<svg xmlns="http://www.w3.org/2000/svg" width="859.765" height="268.228" viewBox="0 0 227.48 70.969"><g style="display:inline;fill:none;fill-opacity:.999999;stroke:#fff;stroke-width:1.3;stroke-miterlimit:4;stroke-dasharray:none;stroke-opacity:1"><g style="fill:none;fill-opacity:.999999;stroke:#fff;stroke-width:1.3;stroke-miterlimit:4;stroke-dasharray:none;stroke-opacity:1" fill="#0099b0"><path d="m150.005 198.606-16.44 3.057c-.4.075-.837.451-.972.837l-5.04 11.756c-.187.363-.151.933.08 1.271l9.579 13.96a.932.932 0 0 1-.105 1.136l-11.963 11.963a.927.927 0 0 1-1.135.105l-14.205-9.748c-.336-.23-.912-.272-1.277-.092l-11.396 4.665c-.387.128-.764.561-.84.962l-3.165 17.003a.929.929 0 0 1-.877.73h-16.92a.928.928 0 0 1-.876-.73l-3.164-17.003c-.076-.4-.452-.834-.84-.962l-11.397-4.665c-.366-.18-.942-.139-1.277.092l-14.204 9.748a.929.929 0 0 1-1.136-.105L30.47 230.623a.93.93 0 0 1-.105-1.136l9.579-13.96c.23-.338.266-.908.079-1.27l-5.04-11.757c-.134-.386-.571-.762-.973-.837l-16.438-3.057a.93.93 0 0 1-.73-.878l.002-16.919c0-.408.328-.805.729-.878l16.035-2.984c.4-.073.83-.454.952-.843l5.006-12.505c.179-.367.137-.94-.095-1.277l-9.108-13.273a.933.933 0 0 1 .105-1.137l11.965-11.963a.934.934 0 0 1 1.136-.105l13.038 8.95c.336.23 1.046.487 1.25.042l11.897-23.832M83.789 92.79l7.915-15.72c5.192-3.325 10.794-10.513 10.794-17.135 0-10.334-8.377-18.711-18.71-18.711S65.077 49.6 65.077 59.934c0 6.623 5.602 13.81 10.793 17.135l7.919 15.721m0 0 25.74 51.843c.292.49.914.188 1.25-.043l13.039-8.949a.933.933 0 0 1 1.135.105l12.154 12.165a.93.93 0 0 1 .105 1.137l-9.11 13.273c-.23.336-.272.91-.093 1.277l5.006 12.505c.123.39.549.77.95.843l16.036 2.984c.4.073.729.47.729.878l.002 16.92a.93.93 0 0 1-.727.878m-44.725-92.585c-2.045 4.535-5.182 10.153-7.227 14.688z" style="display:inline;fill:none;fill-opacity:.999999;stroke:#fff;stroke-width:4.91339;stroke-miterlimit:4;stroke-dasharray:none;stroke-opacity:1" transform="matrix(.26458 0 0 .26458 186.948 2.53)"/><path d="m104.187 107.104 5.53-2.833c.353-.205.915-.188 1.25.043l13.04 8.949a.933.933 0 0 0 1.135-.105l11.965-11.963a.93.93 0 0 0 .105-1.137l-9.11-13.273c-.23-.336-.272-.91-.093-1.277l5.006-12.505c.123-.39.549-.77.95-.843l16.036-2.984a.93.93 0 0 0 .729-.878l.002-16.92c0-.408-.327-.802-.876-.915l-16.29-3.02c-.4-.075-.838-.451-.973-.837l-5.04-11.756c-.187-.363-.151-.933.08-1.271l9.579-13.96a.932.932 0 0 0-.105-1.136L125.144 6.52a.927.927 0 0 0-1.135-.105l-14.205 9.748c-.336.23-.912.272-1.277.092L97.13 11.59c-.387-.128-.764-.561-.84-.962L93.126-6.375a.929.929 0 0 0-.877-.73h-16.92a.928.928 0 0 0-.876.73l-3.164 17.003c-.076.4-.452.834-.84.962l-11.397 4.665c-.366.18-.942.139-1.277-.092L43.57 6.415a.929.929 0 0 0-1.136.105L30.47 18.483a.93.93 0 0 0-.105 1.136l9.579 13.96c.23.338.266.908.079 1.27l-5.04 11.757c-.134.386-.571.762-.973.837L17.573 50.5a.93.93 0 0 0-.73.878l.002 16.919c0 .408.328.805.729.878l16.035 2.984c.4.073.83.454.952.843l5.006 12.505c.179.367.137.94-.095 1.277l-9.108 13.273a.933.933 0 0 0 .105 1.137l11.965 11.963a.934.934 0 0 0 1.136.105l13.038-8.95c.336-.23.899-.247 1.25-.042l5.75 3.07 29.347 65.373c.265.162.627.441.908.697 5.192 3.324 8.635 9.14 8.635 15.761 0 10.334-8.377 18.711-18.71 18.711s-18.492-8.613-18.492-18.947c0-6.622 3.444-12.437 8.635-15.761a6.81 6.81 0 0 1 .91-.697l9.01-20.206" style="fill:none;fill-opacity:.999999;stroke:#fff;stroke-width:4.91339;stroke-miterlimit:4;stroke-dasharray:none;stroke-opacity:1" transform="matrix(.26458 0 0 .26458 186.948 2.53)"/></g></g><g aria-label="Reservoir" style="font-style:normal;font-variant:normal;font-weight:400;font-stretch:normal;font-size:50.8px;line-height:1.25;font-family:'Estrangelo Talada';-inkscape-font-specification:'Estrangelo Talada';letter-spacing:0;word-spacing:.264583px;fill:#fff;fill-opacity:.999999;stroke:#fff;stroke-width:.965;stroke-miterlimit:4;stroke-dasharray:none;stroke-opacity:1"><g aria-label="interrupt labs" style="font-size:36.576px;line-height:1.25;font-family:'Calling Code';-inkscape-font-specification:'Calling Code';stroke-width:.255323"><path d="M-153.673 128.367h6.143v-12.805h-6.143v-2.519h9v15.324h6.145v2.518h-15.145zm7.18-18.913q-1.054 0-1.769-.715-.714-.714-.714-1.768 0-1.071.714-1.786.715-.714 1.768-.714 1.072 0 1.786.714.715.715.715 1.786 0 1.054-.715 1.768-.714.715-1.786.715zM-133.189 113.043h2.537l.178 3.037h.143q.768-1.697 2.215-2.59 1.464-.893 3.482-.893 2.822 0 4.304 1.75 1.483 1.733 1.483 5.054v11.484h-2.858v-11.376q0-2.144-.91-3.215-.912-1.072-2.698-1.072-1.464 0-2.607.697-1.143.679-1.786 1.893-.625 1.214-.625 2.75v10.323h-2.858zM-103.774 131.331q-2.93 0-4.519-1.589-1.589-1.59-1.589-4.518v-9.662h-4.572v-2.519h4.715l.446-6.304h2.268v6.304h8.073v2.519h-8.073v9.287q0 3.84 3.287 3.84 3.321 0 3.321-3.84v-1.322h2.787v1.697q0 2.929-1.59 4.518-1.59 1.59-4.554 1.59zM-84.861 131.331q-3.93 0-5.983-2.393-2.036-2.41-2.036-7.018 0-4.537 2-6.93t5.805-2.393q3.804 0 5.786 2.393 2 2.393 2 6.93 0 .518-.035.768h-12.591q.268 6 5.09 6 3.018 0 4.125-2.34h3.197q-.786 2.412-2.643 3.698-1.84 1.285-4.715 1.285zm4.536-11.054q-.303-2.5-1.5-3.769-1.197-1.286-3.25-1.286-2.054 0-3.269 1.286-1.196 1.268-1.5 3.769zM-71.002 113.043h2.518l.196 3.037h.143q.768-1.68 2.197-2.572 1.429-.911 3.393-.911 2.769 0 4.233 1.75 1.482 1.733 1.482 5.054v2.376h-2.857v-2.018q0-2.215-.947-3.376-.928-1.16-2.679-1.16-1.393 0-2.5.696-1.09.679-1.714 1.893-.608 1.214-.608 2.75v10.323h-2.857zM-50.517 113.043H-48l.196 3.037h.143q.768-1.68 2.197-2.572 1.428-.911 3.393-.911 2.768 0 4.233 1.75 1.482 1.733 1.482 5.054v2.376h-2.857v-2.018q0-2.215-.947-3.376-.929-1.16-2.679-1.16-1.393 0-2.5.696-1.09.679-1.715 1.893-.607 1.214-.607 2.75v10.323h-2.857zM-16.71 130.885h-2.536l-.178-3.036h-.143q-.768 1.697-2.233 2.59-1.446.892-3.482.892-2.822 0-4.304-1.732-1.465-1.75-1.465-5.072v-11.484h2.858v11.377q0 2.125.91 3.197.911 1.071 2.697 1.071 1.465 0 2.608-.678 1.143-.697 1.768-1.911.643-1.215.643-2.75v-10.306h2.857zM-10.459 113.043h2.518l.197 3.037h.143q.66-1.697 2.018-2.59 1.375-.893 3.393-.893 2.25 0 3.84 1.143 1.607 1.125 2.446 3.233.84 2.107.84 4.982 0 2.876-.84 4.983-.839 2.107-2.446 3.25-1.59 1.143-3.804 1.143-1.893 0-3.25-.857-1.358-.857-2.055-2.446H-7.6v10.912h-2.858zm7.787 15.645q2.232 0 3.429-1.732 1.214-1.75 1.214-5 0-3.251-1.214-4.983-1.197-1.75-3.43-1.75-1.482 0-2.607.767-1.107.75-1.714 2.18-.607 1.41-.607 3.357v.875q0 1.946.607 3.375.607 1.411 1.714 2.161 1.125.75 2.608.75zM19.134 131.331q-2.929 0-4.518-1.589-1.59-1.59-1.59-4.518v-9.662H8.454v-2.519h4.715l.447-6.304h2.268v6.304h8.072v2.519h-8.072v9.287q0 3.84 3.286 3.84 3.322 0 3.322-3.84v-1.322h2.786v1.697q0 2.929-1.59 4.518-1.59 1.59-4.554 1.59zM-143.9 165.785q-2.928 0-4.518-1.59-1.589-1.59-1.589-4.518v-17.788h-4.572v-2.518h7.43v19.93q0 3.84 3.286 3.84 3.321 0 3.321-3.84v-1.32h2.786v1.696q0 2.929-1.589 4.518-1.59 1.59-4.554 1.59zM-127.469 165.785q-1.768 0-3.071-.643-1.304-.661-2.018-1.858-.697-1.214-.697-2.84 0-2.589 1.786-3.946 1.786-1.358 5.161-1.358h5.019v-1.357q0-2.036-1.09-3.072-1.089-1.036-3.232-1.036-1.75 0-2.786.68-1.036.678-1.34 2h-2.893q.34-2.626 2.125-3.965 1.804-1.34 4.965-1.34 3.5 0 5.287 1.661 1.803 1.643 1.803 4.894v11.733h-2.518l-.178-3.036h-.143q-.857 1.643-2.483 2.572-1.607.91-3.697.91zm.572-2.644q1.572 0 2.857-.678 1.286-.697 2.019-1.875.732-1.197.732-2.644v-.357h-5.019q-1.928 0-2.964.732-1.018.715-1.018 2.09 0 1.286.893 2.018.893.714 2.5.714zM-103.77 165.785q-2.017 0-3.392-.893-1.358-.893-2.019-2.59h-.142l-.197 3.036h-2.518v-25.967h2.857v10.965h.143q.697-1.571 2.054-2.429 1.358-.857 3.25-.857 2.215 0 3.805 1.143 1.607 1.143 2.446 3.25.84 2.108.84 4.965 0 2.894-.84 5.001-.839 2.108-2.446 3.25-1.59 1.126-3.84 1.126zm-.481-2.644q2.232 0 3.429-1.732 1.214-1.75 1.214-5t-1.214-4.983q-1.197-1.75-3.43-1.75-1.482 0-2.607.767-1.107.75-1.714 2.18-.608 1.41-.608 3.357v.875q0 1.947.608 3.375.607 1.411 1.714 2.161 1.125.75 2.608.75zM-84.356 165.785q-3.358 0-5.304-1.34-1.947-1.34-2.108-3.75h2.93q.178 1.196 1.32 1.821 1.162.625 3.162.625 2.125 0 3.268-.714 1.161-.714 1.161-2.107 0-1.072-.786-1.643-.768-.59-2.571-.84l-2.608-.357q-2.732-.393-4.036-1.607-1.304-1.215-1.304-3.376 0-2.643 1.786-4.036 1.804-1.41 5.019-1.41 3.09 0 4.875 1.267 1.804 1.268 1.965 3.59h-2.965q-.09-.964-1.107-1.59-1-.643-2.733-.643-1.803 0-2.857.715-1.054.696-1.054 1.929 0 1.071.786 1.66.786.59 2.59.822l2.59.375q2.75.375 4.035 1.59 1.304 1.196 1.304 3.375 0 2.75-1.929 4.197-1.91 1.447-5.429 1.447z" style="font-size:36.576px;stroke-width:.255323" transform="translate(154.707 -103.911)"/></g></g><text xml:space="preserve" style="font-style:normal;font-variant:normal;font-weight:400;font-stretch:normal;font-size:76.2px;line-height:1.25;font-family:'Estrangelo Talada';-inkscape-font-specification:'Estrangelo Talada';letter-spacing:0;word-spacing:.264583px;fill:#fff;fill-opacity:.999999;stroke:#fff;stroke-width:.264583;stroke-opacity:1" x="63.201" y="159.017" transform="translate(158.074 -104.93)"/></svg>