<?xml version="1.0" encoding="UTF-8" standalone="no"?>
<svg
   xmlns:dc="http://purl.org/dc/elements/1.1/"
   xmlns:cc="http://creativecommons.org/ns#"
   xmlns:rdf="http://www.w3.org/1999/02/22-rdf-syntax-ns#"
   xmlns:svg="http://www.w3.org/2000/svg"
   xmlns="http://www.w3.org/2000/svg"
   xmlns:sodipodi="http://sodipodi.sourceforge.net/DTD/sodipodi-0.dtd"
   xmlns:inkscape="http://www.inkscape.org/namespaces/inkscape"
   width="184.48015mm"
   height="70.968613mm"
   viewBox="0 0 184.48015 70.968613"
   version="1.1"
   id="svg8"
   inkscape:version="1.0.2 (e86c870879, 2021-01-15)"
   sodipodi:docname="logo.svg"
   inkscape:export-filename="/srv/http/images/logo.png"
   inkscape:export-xdpi="96"
   inkscape:export-ydpi="96">
  <defs
     id="defs2" />
  <sodipodi:namedview
     id="base"
     pagecolor="#888888"
     bordercolor="#666666"
     borderopacity="1.0"
     inkscape:pageopacity="1"
     inkscape:pageshadow="2"
     inkscape:zoom="1.2992248"
     inkscape:cx="374.2285"
     inkscape:cy="145.62258"
     inkscape:document-units="mm"
     inkscape:current-layer="text882"
     inkscape:document-rotation="0"
     showgrid="false"
     inkscape:window-width="1886"
     inkscape:window-height="1015"
     inkscape:window-x="1095"
     inkscape:window-y="31"
     inkscape:window-maximized="0"
     inkscape:pagecheckerboard="false"
     fit-margin-top="0"
     fit-margin-left="0"
     fit-margin-right="0"
     fit-margin-bottom="0"
     showguides="true"
     inkscape:guide-bbox="true">
    <sodipodi:guide
       position="120.55907,35.941313"
       orientation="0,-1"
       id="guide1034" />
  </sodipodi:namedview>
  <metadata
     id="metadata5">
    <rdf:RDF>
      <cc:Work
         rdf:about="">
        <dc:format>image/svg+xml</dc:format>
        <dc:type
           rdf:resource="http://purl.org/dc/dcmitype/StillImage" />
        <dc:title></dc:title>
      </cc:Work>
    </rdf:RDF>
  </metadata>
  <g
     inkscape:label="Layer 1"
     inkscape:groupmode="layer"
     id="layer1"
     transform="translate(123.47491,-103.73044)">
    <g
       inkscape:label="Layer 1"
       id="layer1-6"
       style="display:inline;fill:none;fill-opacity:0.999999;stroke:#ffffff;stroke-width:1.3;stroke-miterlimit:4;stroke-dasharray:none;stroke-opacity:1"
       transform="translate(-55.201587,24.248147)">
      <g
         id="g1105"
         transform="matrix(0.26458333,0,0,0.26458333,75.675672,82.011974)"
         style="fill:none;fill-opacity:0.999999;stroke:#ffffff;stroke-width:4.91339;stroke-miterlimit:4;stroke-dasharray:none;stroke-opacity:1">
        <g
           id="g1133"
           style="fill:none;fill-opacity:0.999999;stroke:#ffffff;stroke-width:4.91339;stroke-miterlimit:4;stroke-dasharray:none;stroke-opacity:1">
          <g
             id="g1155"
             style="fill:none;fill-opacity:0.999999;stroke:#ffffff;stroke-width:4.91339;stroke-miterlimit:4;stroke-dasharray:none;stroke-opacity:1" />
        </g>
      </g>
      <g
         id="g1161"
         style="fill:none;fill-opacity:0.999999;stroke:#ffffff;stroke-width:1.3;stroke-miterlimit:4;stroke-dasharray:none;stroke-opacity:1">
        <path
           fill="#0099b0"
           d="m 150.00492,198.60614 -16.439,3.057 c -0.4,0.075 -0.838,0.451 -0.973,0.837 l -5.039,11.756 c -0.188,0.363 -0.152,0.933 0.08,1.271 l 9.578,13.96 c 0.229,0.336 0.184,0.847 -0.105,1.136 l -11.963,11.963 c -0.289,0.289 -0.799,0.336 -1.135,0.105 l -14.205,-9.748 c -0.336,-0.231 -0.912,-0.272 -1.277,-0.092 l -11.396003,4.665 c -0.387,0.128 -0.764,0.561 -0.84,0.962 l -3.165,17.003 c -0.074,0.401 -0.469,0.729 -0.877,0.729 h -16.92 c -0.407,0 -0.802,-0.328 -0.876,-0.729 l -3.164,-17.003 c -0.076,-0.401 -0.452,-0.834 -0.84,-0.962 l -11.397,-4.665 c -0.366,-0.18 -0.942,-0.139 -1.277,0.092 l -14.204,9.748 c -0.337,0.231 -0.848,0.184 -1.136,-0.105 l -11.964,-11.963 c -0.288,-0.289 -0.336,-0.8 -0.105,-1.136 l 9.579,-13.96 c 0.23,-0.338 0.266,-0.908 0.079,-1.271 l -5.04,-11.756 c -0.134,-0.386 -0.571,-0.762 -0.973,-0.837 l -16.438,-3.057 c -0.402,-0.076 -0.729,-0.47 -0.729,-0.878 l 10e-4,-16.919 c 0,-0.408 0.328,-0.805 0.729,-0.878 l 16.035,-2.984 c 0.401,-0.073 0.83,-0.454 0.952,-0.843 l 5.006,-12.505 c 0.179,-0.367 0.137,-0.941 -0.095,-1.277 l -9.108,-13.273 c -0.23,-0.336 -0.183,-0.848 0.105,-1.137 l 11.965,-11.963 c 0.288,-0.287 0.799,-0.334 1.136,-0.105 l 13.038,8.949 c 0.336,0.23 1.04605,0.48817 1.25,0.043 L 69.754515,121.00386 M 83.78865,92.790114 91.703901,77.069278 v 0 c 5.192,-3.324 10.794019,-10.512589 10.794019,-17.134589 0,-10.334 -8.377003,-18.711 -18.710003,-18.711 -10.333,0 -18.711,8.377 -18.711,18.711 0,6.622 5.601946,13.81017 10.792946,17.13417 v 0 l 7.918787,15.721255 m 0,0 25.74008,51.843176 c 0.29182,0.49022 0.914,0.188 1.25,-0.043 l 13.039,-8.949 c 0.336,-0.229 0.848,-0.182 1.135,0.105 l 12.15419,12.16485 c 0.289,0.289 0.336,0.801 0.105,1.137 l -9.109,13.273 c -0.23,0.336 -0.273,0.91 -0.094,1.277 l 5.006,12.505 c 0.123,0.389 0.549,0.77 0.951,0.843 l 16.035,2.984 c 0.4,0.073 0.729,0.47 0.729,0.878 l 0.002,16.919 c 0.001,0.409 -0.327,0.803 -0.727,0.879 m -44.72501,-92.58475 c -2.04469,4.53482 -5.18236,10.15269 -7.227034,14.68752 z"
           id="path1044-6"
           style="display:inline;fill:none;fill-opacity:0.999999;stroke:#ffffff;stroke-width:4.91339;stroke-miterlimit:4;stroke-dasharray:none;stroke-opacity:1"
           sodipodi:nodetypes="ccccccssccccccsscccccccccccccccccccccccccccccccsssccccccccccccccccccccc"
           transform="matrix(0.26458333,0,0,0.26458333,75.675673,82.011975)" />
        <path
           fill="#0099b0"
           d="m 104.18691,107.10443 5.53101,-2.83374 c 0.352,-0.205 0.914,-0.188 1.25,0.043 l 13.039,8.949 c 0.336,0.229 0.848,0.182 1.135,-0.105 l 11.965,-11.963 c 0.289,-0.289 0.336,-0.801 0.105,-1.137 l -9.109,-13.273001 c -0.23,-0.336 -0.273,-0.91 -0.094,-1.277 l 5.006,-12.505 c 0.123,-0.389 0.549,-0.77 0.951,-0.843 l 16.035,-2.984 c 0.4,-0.073 0.729,-0.47 0.729,-0.878 l 0.002,-16.919 c 0.001,-0.409 -0.327,-0.803 -0.87614,-0.915191 l -16.28986,-3.020809 c -0.4,-0.075 -0.838,-0.451 -0.973,-0.837 l -5.039,-11.756 c -0.188,-0.363 -0.152,-0.933 0.08,-1.271 l 9.578,-13.96 c 0.229,-0.336 0.184,-0.847 -0.105,-1.136 l -11.963,-11.9630003 c -0.289,-0.289 -0.799,-0.336 -1.135,-0.105 l -14.205,9.7480003 c -0.336,0.231 -0.912,0.272 -1.277,0.092 l -11.396003,-4.665 c -0.387,-0.128 -0.764,-0.561 -0.84,-0.962 l -3.165,-17.0030003 c -0.074,-0.401 -0.469,-0.729 -0.877,-0.729 h -16.92 c -0.407,0 -0.802,0.328 -0.876,0.729 l -3.164,17.0030003 c -0.076,0.401 -0.452,0.834 -0.84,0.962 l -11.397,4.665 c -0.366,0.18 -0.942,0.139 -1.277,-0.092 l -14.204,-9.7480003 c -0.337,-0.231 -0.848,-0.184 -1.136,0.105 l -11.964,11.9630003 c -0.288,0.289 -0.336,0.8 -0.105,1.136 l 9.579,13.96 c 0.23,0.338 0.266,0.908 0.079,1.271 l -5.04,11.756 c -0.134,0.386 -0.571,0.762 -0.973,0.837 l -16.438,3.057 c -0.402,0.076 -0.729,0.47 -0.729,0.878 l 10e-4,16.919 c 0,0.408 0.328,0.805 0.729,0.878 l 16.035,2.984 c 0.401,0.073 0.83,0.454 0.952,0.843 l 5.006,12.505 c 0.179,0.367 0.137,0.941 -0.095,1.277 l -9.108,13.273001 c -0.23,0.336 -0.183,0.848 0.105,1.137 l 11.965,11.963 c 0.288,0.287 0.799,0.334 1.136,0.105 l 13.038,-8.949 c 0.336,-0.23 0.899,-0.248 1.25,-0.043 l 5.750004,3.07 v 0 l 29.346996,65.37345 c 0.265,0.162 0.627,0.441 0.908,0.697 5.192,3.324 8.635003,9.139 8.635003,15.761 0,10.334 -8.377003,18.711 -18.710003,18.711 -10.333,0 -18.492013,-8.61326 -18.492013,-18.94726 0,-6.622 3.444,-12.437 8.635,-15.761 0.283,-0.256 0.644,-0.535 0.91,-0.697 l 9.011037,-20.20611"
           id="path1044"
           style="fill:none;fill-opacity:0.999999;stroke:#ffffff;stroke-width:4.91339;stroke-miterlimit:4;stroke-dasharray:none;stroke-opacity:1"
           sodipodi:nodetypes="ccccccccccccccccccccssccccccsscccccccccccccccccccccccccccccccsssccc"
           transform="matrix(0.26458333,0,0,0.26458333,75.675673,82.011975)" />
      </g>
    </g>
    <g
       aria-label="Reservoir"
       id="text882"
       style="font-style:normal;font-variant:normal;font-weight:normal;font-stretch:normal;font-size:50.8px;line-height:1.25;font-family:'Estrangelo Talada';-inkscape-font-specification:'Estrangelo Talada';letter-spacing:0px;word-spacing:0.264583px;fill:#ffffff;fill-opacity:0.999999;stroke:#ffffff;stroke-width:0.965;stroke-miterlimit:4;stroke-dasharray:none;stroke-opacity:1">
      <path
         d="m -108.25407,132.18011 3.175,-3.175 v -2.38125 l -4.7625,-4.7625 h -11.1125 v 10.31875 z m -14.2875,14.2875 v -26.19375 h 13.49375 l 5.55625,5.55625 v 3.96875 l -3.96875,3.96875 h -8.73125 l 12.7,12.7 h -2.38125 l -12.7,-12.7 h -2.38125 v 12.7 z"
         style="font-style:normal;font-variant:normal;font-weight:normal;font-stretch:normal;font-size:50.8px;font-family:'JD Code';-inkscape-font-specification:'JD Code';fill:#ffffff;fill-opacity:0.999999;stroke:#ffffff;stroke-width:0.965;stroke-miterlimit:4;stroke-dasharray:none;stroke-opacity:1"
         id="path2000" />
      <path
         d="m -86.029074,138.53011 v -3.175 l -2.38125,-2.38125 h -8.73125 l -2.38125,2.38125 v 3.175 z m -11.90625,7.9375 -3.174996,-3.175 v -8.73125 l 3.174996,-3.175 h 10.31875 l 3.175,3.175 v 5.55625 h -15.08125 v 2.38125 l 2.38125,2.38125 h 11.1125 v 1.5875 z"
         style="font-style:normal;font-variant:normal;font-weight:normal;font-stretch:normal;font-size:50.8px;font-family:'JD Code';-inkscape-font-specification:'JD Code';fill:#ffffff;fill-opacity:0.999999;stroke:#ffffff;stroke-width:0.965;stroke-miterlimit:4;stroke-dasharray:none;stroke-opacity:1"
         id="path2002" />
      <path
         d="m -82.060323,146.46761 v -1.5875 h 11.90625 l 2.38125,-2.38125 v -0.79375 l -2.38125,-2.38125 h -9.525 l -2.38125,-2.38125 v -2.38125 l 3.175,-3.175 h 11.90625 v 1.5875 h -11.1125 l -2.38125,2.38125 v 0.79375 l 1.5875,1.5875 h 9.525 l 3.175,3.175 v 2.38125 l -3.175,3.175 z"
         style="font-style:normal;font-variant:normal;font-weight:normal;font-stretch:normal;font-size:50.8px;font-family:'JD Code';-inkscape-font-specification:'JD Code';fill:#ffffff;fill-opacity:0.999999;stroke:#ffffff;stroke-width:0.965;stroke-miterlimit:4;stroke-dasharray:none;stroke-opacity:1"
         id="path2004" />
      <path
         d="m -48.722824,138.53011 v -3.175 l -2.38125,-2.38125 h -8.73125 l -2.38125,2.38125 v 3.175 z m -11.90625,7.9375 -3.175,-3.175 v -8.73125 l 3.175,-3.175 h 10.31875 l 3.175,3.175 v 5.55625 h -15.08125 v 2.38125 l 2.38125,2.38125 h 11.1125 v 1.5875 z"
         style="font-style:normal;font-variant:normal;font-weight:normal;font-stretch:normal;font-size:50.8px;font-family:'JD Code';-inkscape-font-specification:'JD Code';fill:#ffffff;fill-opacity:0.999999;stroke:#ffffff;stroke-width:0.965;stroke-miterlimit:4;stroke-dasharray:none;stroke-opacity:1"
         id="path2006" />
      <path
         d="m -44.754079,146.46761 v -15.875 h 1.5875 v 2.38125 l 1.5875,-1.5875 h 6.35 l 1.5875,1.5875 v 2.38125 l -2.38125,-2.38125 h -4.7625 l -2.38125,2.38125 v 11.1125 z"
         style="font-style:normal;font-variant:normal;font-weight:normal;font-stretch:normal;font-size:50.8px;font-family:'JD Code';-inkscape-font-specification:'JD Code';fill:#ffffff;fill-opacity:0.999999;stroke:#ffffff;stroke-width:0.965;stroke-miterlimit:4;stroke-dasharray:none;stroke-opacity:1"
         id="path2008" />
      <path
         d="m -23.322827,146.46761 -7.9375,-7.9375 v -7.14375 h 1.5875 v 6.35 l 6.746875,6.74687 6.746875,-6.74687 v -6.35 h 1.5875 v 7.14375 l -7.9375,7.9375 z"
         style="font-style:normal;font-variant:normal;font-weight:normal;font-stretch:normal;font-size:50.8px;font-family:'JD Code';-inkscape-font-specification:'JD Code';fill:#ffffff;fill-opacity:0.999999;stroke:#ffffff;stroke-width:0.965;stroke-miterlimit:4;stroke-dasharray:none;stroke-opacity:1"
         id="path2010" />
      <path
         d="m 0.4896757,144.88011 2.38125,-2.38125 v -7.14375 l -2.38125,-2.38125 h -8.7312499 l -2.3812498,2.38125 v 7.14375 l 2.3812498,2.38125 z m -9.5249999,1.5875 -3.1749998,-3.175 v -8.73125 l 3.1749998,-3.175 H 1.2834257 l 3.1749999,3.175 v 8.73125 l -3.1749999,3.175 z"
         style="font-style:normal;font-variant:normal;font-weight:normal;font-stretch:normal;font-size:50.8px;font-family:'JD Code';-inkscape-font-specification:'JD Code';fill:#ffffff;fill-opacity:0.999999;stroke:#ffffff;stroke-width:0.965;stroke-miterlimit:4;stroke-dasharray:none;stroke-opacity:1"
         id="path2012" />
      <path
         d="m 6.8396713,146.46761 v -15.08125 h 1.5875 v 15.08125 z m 0,-20.6375 v -3.175 h 1.5875 v 3.175 z"
         style="font-style:normal;font-variant:normal;font-weight:normal;font-stretch:normal;font-size:50.8px;font-family:'JD Code';-inkscape-font-specification:'JD Code';fill:#ffffff;fill-opacity:0.999999;stroke:#ffffff;stroke-width:0.965;stroke-miterlimit:4;stroke-dasharray:none;stroke-opacity:1"
         id="path2014" />
      <path
         d="m 11.602168,146.46761 v -15.875 h 1.5875 v 2.38125 l 1.5875,-1.5875 h 6.35 l 1.5875,1.5875 v 2.38125 l -2.38125,-2.38125 h -4.7625 l -2.38125,2.38125 v 11.1125 z"
         style="font-style:normal;font-variant:normal;font-weight:normal;font-stretch:normal;font-size:50.8px;font-family:'JD Code';-inkscape-font-specification:'JD Code';fill:#ffffff;fill-opacity:0.999999;stroke:#ffffff;stroke-width:0.965;stroke-miterlimit:4;stroke-dasharray:none;stroke-opacity:1"
         id="path2016" />
    </g>
    <text
       xml:space="preserve"
       style="font-style:normal;font-variant:normal;font-weight:normal;font-stretch:normal;font-size:76.2px;line-height:1.25;font-family:'Estrangelo Talada';-inkscape-font-specification:'Estrangelo Talada';letter-spacing:0px;word-spacing:0.264583px;fill:#ffffff;fill-opacity:0.999999;stroke:#ffffff;stroke-width:0.264583;stroke-opacity:1"
       x="63.200645"
       y="159.01678"
       id="text1016"><tspan
         sodipodi:role="line"
         id="tspan1014"
         x="63.200645"
         y="159.01678"
         style="font-style:normal;font-variant:normal;font-weight:normal;font-stretch:normal;font-size:76.2px;font-family:'JD Code';-inkscape-font-specification:'JD Code';fill:#ffffff;fill-opacity:0.999999;stroke:#ffffff;stroke-width:0.264583;stroke-opacity:1" /></text>
  </g>
</svg>
