<?xml version="1.0" encoding="UTF-8" standalone="no"?>
<svg
   xmlns:dc="http://purl.org/dc/elements/1.1/"
   xmlns:cc="http://creativecommons.org/ns#"
   xmlns:rdf="http://www.w3.org/1999/02/22-rdf-syntax-ns#"
   xmlns:svg="http://www.w3.org/2000/svg"
   xmlns="http://www.w3.org/2000/svg"
   xmlns:sodipodi="http://sodipodi.sourceforge.net/DTD/sodipodi-0.dtd"
   xmlns:inkscape="http://www.inkscape.org/namespaces/inkscape"
   width="227.47954mm"
   height="70.968613mm"
   viewBox="0 0 227.47954 70.968613"
   version="1.1"
   id="svg8"
   inkscape:version="1.0.2 (e86c870879, 2021-01-15)"
   sodipodi:docname="reservoir8.svg"
   inkscape:export-filename="/srv/http/images/logo.png"
   inkscape:export-xdpi="96"
   inkscape:export-ydpi="96">
  <defs
     id="defs2" />
  <sodipodi:namedview
     id="base"
     pagecolor="#888888"
     bordercolor="#666666"
     borderopacity="1.0"
     inkscape:pageopacity="1"
     inkscape:pageshadow="2"
     inkscape:zoom="0.91869067"
     inkscape:cx="477.97547"
     inkscape:cy="168.64807"
     inkscape:document-units="mm"
     inkscape:current-layer="layer1"
     inkscape:document-rotation="0"
     showgrid="false"
     inkscape:window-width="1886"
     inkscape:window-height="1015"
     inkscape:window-x="1095"
     inkscape:window-y="31"
     inkscape:window-maximized="0"
     inkscape:pagecheckerboard="false"
     fit-margin-top="0"
     fit-margin-left="0"
     fit-margin-right="0"
     fit-margin-bottom="0"
     showguides="true"
     inkscape:guide-bbox="true">
    <sodipodi:guide
       position="72.576118,62.376594"
       orientation="0,-1"
       id="guide2011" />
    <sodipodi:guide
       position="122.11219,8.8085114"
       orientation="0,-1"
       id="guide2013" />
  </sodipodi:namedview>
  <metadata
     id="metadata5">
    <rdf:RDF>
      <cc:Work
         rdf:about="">
        <dc:format>image/svg+xml</dc:format>
        <dc:type
           rdf:resource="http://purl.org/dc/dcmitype/StillImage" />
        <dc:title></dc:title>
      </cc:Work>
    </rdf:RDF>
  </metadata>
  <g
     inkscape:label="Layer 1"
     inkscape:groupmode="layer"
     id="layer1"
     transform="translate(158.07418,-104.93044)">
    <g
       inkscape:label="Layer 1"
       id="layer1-6"
       style="display:inline;fill:none;fill-opacity:0.999999;stroke:#ffffff;stroke-width:1.3;stroke-miterlimit:4;stroke-dasharray:none;stroke-opacity:1"
       transform="translate(-46.801472,25.448148)">
      <g
         id="g1105"
         transform="matrix(0.26458333,0,0,0.26458333,75.675672,82.011974)"
         style="fill:none;fill-opacity:0.999999;stroke:#ffffff;stroke-width:4.91339;stroke-miterlimit:4;stroke-dasharray:none;stroke-opacity:1">
        <g
           id="g1133"
           style="fill:none;fill-opacity:0.999999;stroke:#ffffff;stroke-width:4.91339;stroke-miterlimit:4;stroke-dasharray:none;stroke-opacity:1">
          <g
             id="g1155"
             style="fill:none;fill-opacity:0.999999;stroke:#ffffff;stroke-width:4.91339;stroke-miterlimit:4;stroke-dasharray:none;stroke-opacity:1" />
        </g>
      </g>
      <g
         id="g1161"
         style="fill:none;fill-opacity:0.999999;stroke:#ffffff;stroke-width:1.3;stroke-miterlimit:4;stroke-dasharray:none;stroke-opacity:1">
        <path
           fill="#0099b0"
           d="m 150.00492,198.60614 -16.439,3.057 c -0.4,0.075 -0.838,0.451 -0.973,0.837 l -5.039,11.756 c -0.188,0.363 -0.152,0.933 0.08,1.271 l 9.578,13.96 c 0.229,0.336 0.184,0.847 -0.105,1.136 l -11.963,11.963 c -0.289,0.289 -0.799,0.336 -1.135,0.105 l -14.205,-9.748 c -0.336,-0.231 -0.912,-0.272 -1.277,-0.092 l -11.396003,4.665 c -0.387,0.128 -0.764,0.561 -0.84,0.962 l -3.165,17.003 c -0.074,0.401 -0.469,0.729 -0.877,0.729 h -16.92 c -0.407,0 -0.802,-0.328 -0.876,-0.729 l -3.164,-17.003 c -0.076,-0.401 -0.452,-0.834 -0.84,-0.962 l -11.397,-4.665 c -0.366,-0.18 -0.942,-0.139 -1.277,0.092 l -14.204,9.748 c -0.337,0.231 -0.848,0.184 -1.136,-0.105 l -11.964,-11.963 c -0.288,-0.289 -0.336,-0.8 -0.105,-1.136 l 9.579,-13.96 c 0.23,-0.338 0.266,-0.908 0.079,-1.271 l -5.04,-11.756 c -0.134,-0.386 -0.571,-0.762 -0.973,-0.837 l -16.438,-3.057 c -0.402,-0.076 -0.729,-0.47 -0.729,-0.878 l 10e-4,-16.919 c 0,-0.408 0.328,-0.805 0.729,-0.878 l 16.035,-2.984 c 0.401,-0.073 0.83,-0.454 0.952,-0.843 l 5.006,-12.505 c 0.179,-0.367 0.137,-0.941 -0.095,-1.277 l -9.108,-13.273 c -0.23,-0.336 -0.183,-0.848 0.105,-1.137 l 11.965,-11.963 c 0.288,-0.287 0.799,-0.334 1.136,-0.105 l 13.038,8.949 c 0.336,0.23 1.04605,0.48817 1.25,0.043 L 69.754515,121.00386 M 83.78865,92.790114 91.703901,77.069278 v 0 c 5.192,-3.324 10.794019,-10.512589 10.794019,-17.134589 0,-10.334 -8.377003,-18.711 -18.710003,-18.711 -10.333,0 -18.711,8.377 -18.711,18.711 0,6.622 5.601946,13.81017 10.792946,17.13417 v 0 l 7.918787,15.721255 m 0,0 25.74008,51.843176 c 0.29182,0.49022 0.914,0.188 1.25,-0.043 l 13.039,-8.949 c 0.336,-0.229 0.848,-0.182 1.135,0.105 l 12.15419,12.16485 c 0.289,0.289 0.336,0.801 0.105,1.137 l -9.109,13.273 c -0.23,0.336 -0.273,0.91 -0.094,1.277 l 5.006,12.505 c 0.123,0.389 0.549,0.77 0.951,0.843 l 16.035,2.984 c 0.4,0.073 0.729,0.47 0.729,0.878 l 0.002,16.919 c 0.001,0.409 -0.327,0.803 -0.727,0.879 m -44.72501,-92.58475 c -2.04469,4.53482 -5.18236,10.15269 -7.227034,14.68752 z"
           id="path1044-6"
           style="display:inline;fill:none;fill-opacity:0.999999;stroke:#ffffff;stroke-width:4.91339;stroke-miterlimit:4;stroke-dasharray:none;stroke-opacity:1"
           sodipodi:nodetypes="ccccccssccccccsscccccccccccccccccccccccccccccccsssccccccccccccccccccccc"
           transform="matrix(0.26458333,0,0,0.26458333,75.675673,82.011975)" />
        <path
           fill="#0099b0"
           d="m 104.18691,107.10443 5.53101,-2.83374 c 0.352,-0.205 0.914,-0.188 1.25,0.043 l 13.039,8.949 c 0.336,0.229 0.848,0.182 1.135,-0.105 l 11.965,-11.963 c 0.289,-0.289 0.336,-0.801 0.105,-1.137 l -9.109,-13.273001 c -0.23,-0.336 -0.273,-0.91 -0.094,-1.277 l 5.006,-12.505 c 0.123,-0.389 0.549,-0.77 0.951,-0.843 l 16.035,-2.984 c 0.4,-0.073 0.729,-0.47 0.729,-0.878 l 0.002,-16.919 c 0.001,-0.409 -0.327,-0.803 -0.87614,-0.915191 l -16.28986,-3.020809 c -0.4,-0.075 -0.838,-0.451 -0.973,-0.837 l -5.039,-11.756 c -0.188,-0.363 -0.152,-0.933 0.08,-1.271 l 9.578,-13.96 c 0.229,-0.336 0.184,-0.847 -0.105,-1.136 l -11.963,-11.9630003 c -0.289,-0.289 -0.799,-0.336 -1.135,-0.105 l -14.205,9.7480003 c -0.336,0.231 -0.912,0.272 -1.277,0.092 l -11.396003,-4.665 c -0.387,-0.128 -0.764,-0.561 -0.84,-0.962 l -3.165,-17.0030003 c -0.074,-0.401 -0.469,-0.729 -0.877,-0.729 h -16.92 c -0.407,0 -0.802,0.328 -0.876,0.729 l -3.164,17.0030003 c -0.076,0.401 -0.452,0.834 -0.84,0.962 l -11.397,4.665 c -0.366,0.18 -0.942,0.139 -1.277,-0.092 l -14.204,-9.7480003 c -0.337,-0.231 -0.848,-0.184 -1.136,0.105 l -11.964,11.9630003 c -0.288,0.289 -0.336,0.8 -0.105,1.136 l 9.579,13.96 c 0.23,0.338 0.266,0.908 0.079,1.271 l -5.04,11.756 c -0.134,0.386 -0.571,0.762 -0.973,0.837 l -16.438,3.057 c -0.402,0.076 -0.729,0.47 -0.729,0.878 l 10e-4,16.919 c 0,0.408 0.328,0.805 0.729,0.878 l 16.035,2.984 c 0.401,0.073 0.83,0.454 0.952,0.843 l 5.006,12.505 c 0.179,0.367 0.137,0.941 -0.095,1.277 l -9.108,13.273001 c -0.23,0.336 -0.183,0.848 0.105,1.137 l 11.965,11.963 c 0.288,0.287 0.799,0.334 1.136,0.105 l 13.038,-8.949 c 0.336,-0.23 0.899,-0.248 1.25,-0.043 l 5.750004,3.07 v 0 l 29.346996,65.37345 c 0.265,0.162 0.627,0.441 0.908,0.697 5.192,3.324 8.635003,9.139 8.635003,15.761 0,10.334 -8.377003,18.711 -18.710003,18.711 -10.333,0 -18.492013,-8.61326 -18.492013,-18.94726 0,-6.622 3.444,-12.437 8.635,-15.761 0.283,-0.256 0.644,-0.535 0.91,-0.697 l 9.011037,-20.20611"
           id="path1044"
           style="fill:none;fill-opacity:0.999999;stroke:#ffffff;stroke-width:4.91339;stroke-miterlimit:4;stroke-dasharray:none;stroke-opacity:1"
           sodipodi:nodetypes="ccccccccccccccccccccssccccccsscccccccccccccccccccccccccccccccsssccc"
           transform="matrix(0.26458333,0,0,0.26458333,75.675673,82.011975)" />
      </g>
    </g>
    <g
       aria-label="Reservoir"
       id="text882"
       style="font-style:normal;font-variant:normal;font-weight:normal;font-stretch:normal;font-size:50.8px;line-height:1.25;font-family:'Estrangelo Talada';-inkscape-font-specification:'Estrangelo Talada';letter-spacing:0px;word-spacing:0.264583px;fill:#ffffff;fill-opacity:0.999999;stroke:#ffffff;stroke-width:0.965;stroke-miterlimit:4;stroke-dasharray:none;stroke-opacity:1">
      <g
         aria-label="interrupt
labs"
         id="text998"
         style="font-size:36.576px;line-height:1.25;font-family:'Calling Code';-inkscape-font-specification:'Calling Code';stroke-width:0.255323"
         transform="translate(-3.3674819,1.0191415)">
        <path
           d="m -153.67322,128.36682 h 6.14362 v -12.80517 h -6.14362 v -2.51817 h 9.00112 v 15.32334 h 6.14363 v 2.51818 h -15.14475 z m 7.17947,-18.91307 q -1.05371,0 -1.76808,-0.71438 -0.71438,-0.71437 -0.71438,-1.76808 0,-1.07156 0.71438,-1.78594 0.71437,-0.71437 1.76808,-0.71437 1.07156,0 1.78594,0.71437 0.71437,0.71438 0.71437,1.78594 0,1.05371 -0.71437,1.76808 -0.71438,0.71438 -1.78594,0.71438 z"
           style="font-size:36.576px;stroke-width:0.255323"
           id="path1984" />
        <path
           d="m -133.18852,113.04348 h 2.53603 l 0.1786,3.03609 h 0.14287 q 0.76796,-1.69664 2.21456,-2.58961 1.46447,-0.89296 3.48258,-0.89296 2.82178,0 4.30411,1.75021 1.48233,1.73236 1.48233,5.05421 V 130.885 h -2.8575 v -11.37643 q 0,-2.14312 -0.91083,-3.21468 -0.91083,-1.07157 -2.69676,-1.07157 -1.46447,0 -2.60747,0.69652 -1.143,0.67866 -1.78594,1.89309 -0.62508,1.21444 -0.62508,2.75035 V 130.885 h -2.8575 z"
           style="font-size:36.576px;stroke-width:0.255323"
           id="path1986" />
        <path
           d="m -103.77413,131.33148 q -2.92893,0 -4.51842,-1.58948 -1.58948,-1.58949 -1.58948,-4.51843 v -9.66192 h -4.572 v -2.51817 h 4.71487 l 0.44649,-6.30436 h 2.26814 v 6.30436 h 8.072435 v 2.51817 h -8.072435 v 9.28688 q 0,3.83976 3.28612,3.83976 3.32185,0 3.32185,-3.83976 v -1.3216 h 2.786065 v 1.69664 q 0,2.92894 -1.58949,4.51843 -1.589485,1.58948 -4.554145,1.58948 z"
           style="font-size:36.576px;stroke-width:0.255323"
           id="path1988" />
        <path
           d="m -84.861049,131.33148 q -3.929063,0 -5.982891,-2.39316 -2.035969,-2.41101 -2.035969,-7.01873 0,-4.53628 2.00025,-6.92944 2.00025,-2.39315 5.804297,-2.39315 3.804047,0 5.786438,2.39315 2.00025,2.39316 2.00025,6.92944 0,0.51792 -0.03572,0.76795 h -12.590859 q 0.26789,6.00075 5.089922,6.00075 3.018234,0 4.125515,-2.33958 h 3.196828 q -0.785812,2.41102 -2.643187,3.69689 -1.839516,1.28588 -4.714874,1.28588 z m 4.536281,-11.05495 q -0.303609,-2.50032 -1.500187,-3.76833 -1.196579,-1.28588 -3.250407,-1.28588 -2.053828,0 -3.268265,1.28588 -1.196579,1.26801 -1.500188,3.76833 z"
           style="font-size:36.576px;stroke-width:0.255323"
           id="path1990" />
        <path
           d="m -71.002174,113.04348 h 2.518172 l 0.196453,3.03609 h 0.142875 q 0.767953,-1.67878 2.196703,-2.57175 1.42875,-0.91082 3.393281,-0.91082 2.768203,0 4.232672,1.75021 1.482328,1.73236 1.482328,5.05421 v 2.37529 h -2.8575 v -2.01811 q 0,-2.21456 -0.946547,-3.37542 -0.928687,-1.16086 -2.678906,-1.16086 -1.393031,0 -2.500313,0.69652 -1.089421,0.67866 -1.7145,1.89309 -0.607218,1.21444 -0.607218,2.75035 V 130.885 h -2.8575 z"
           style="font-size:36.576px;stroke-width:0.255323"
           id="path1992" />
        <path
           d="m -50.517471,113.04348 h 2.518172 l 0.196453,3.03609 h 0.142875 q 0.767953,-1.67878 2.196703,-2.57175 1.42875,-0.91082 3.393281,-0.91082 2.768203,0 4.232672,1.75021 1.482328,1.73236 1.482328,5.05421 v 2.37529 h -2.8575 v -2.01811 q 0,-2.21456 -0.946547,-3.37542 -0.928687,-1.16086 -2.678906,-1.16086 -1.393031,0 -2.500312,0.69652 -1.089422,0.67866 -1.7145,1.89309 -0.607219,1.21444 -0.607219,2.75035 V 130.885 h -2.8575 z"
           style="font-size:36.576px;stroke-width:0.255323"
           id="path1994" />
        <path
           d="m -16.709674,130.885 h -2.536032 l -0.178593,-3.0361 h -0.142875 q -0.767954,1.69664 -2.232422,2.58961 -1.44661,0.89297 -3.482578,0.89297 -2.821782,0 -4.30411,-1.73236 -1.464469,-1.75022 -1.464469,-5.07206 v -11.48358 h 2.8575 v 11.37642 q 0,2.12527 0.910829,3.19683 0.910828,1.07156 2.696765,1.07156 1.464469,0 2.607469,-0.67865 1.143,-0.69652 1.768078,-1.91096 0.642938,-1.21443 0.642938,-2.75034 v -10.30486 h 2.8575 z"
           style="font-size:36.576px;stroke-width:0.255323"
           id="path1996" />
        <path
           d="m -10.458901,113.04348 h 2.5181718 l 0.196453,3.03609 h 0.142875 q 0.6607972,-1.69664 2.0181097,-2.58961 1.3751719,-0.89296 3.3932813,-0.89296 2.25028116,0 3.8397656,1.143 1.6073438,1.12514 2.4467344,3.23254 0.8393906,2.10741 0.8393906,4.98277 0,2.87536 -0.8393906,4.98276 -0.8393906,2.10741 -2.4467344,3.25041 -1.58948444,1.143 -3.8040469,1.143 -1.8930937,0 -3.2504062,-0.85725 -1.3573126,-0.85725 -2.0538285,-2.44673 h -0.142875 v 10.91207 h -2.8574998 z m 7.7866876,15.64481 q 2.23242186,0 3.42900006,-1.73236 1.21443754,-1.75022 1.21443754,-5.00062 0,-3.25041 -1.21443754,-4.98277 -1.1965782,-1.75022 -3.42900006,-1.75022 -1.4823281,0 -2.6074687,0.76796 -1.1072813,0.75009 -1.7144999,2.17884 -0.6072192,1.41089 -0.6072192,3.35756 v 0.87511 q 0,1.94667 0.6072192,3.37542 0.6072186,1.41089 1.7144999,2.16099 1.1251406,0.75009 2.6074687,0.75009 z"
           style="font-size:36.576px;stroke-width:0.255323"
           id="path1998" />
        <path
           d="m 19.134091,131.33148 q -2.928937,0 -4.518422,-1.58948 -1.589484,-1.58949 -1.589484,-4.51843 v -9.66192 H 8.4541848 v -2.51817 H 13.16906 l 0.446484,-6.30436 h 2.268141 v 6.30436 h 8.072437 v 2.51817 h -8.072437 v 9.28688 q 0,3.83976 3.286125,3.83976 3.321844,0 3.321844,-3.83976 v -1.3216 h 2.786062 v 1.69664 q 0,2.92894 -1.589484,4.51843 -1.589485,1.58948 -4.554141,1.58948 z"
           style="font-size:36.576px;stroke-width:0.255323"
           id="path2000" />
        <path
           d="m -143.89913,165.78464 q -2.92894,0 -4.51843,-1.58948 -1.58948,-1.58949 -1.58948,-4.51843 V 141.8888 h -4.572 v -2.51818 h 7.4295 v 19.93107 q 0,3.83976 3.28613,3.83976 3.32184,0 3.32184,-3.83976 v -1.3216 h 2.78606 v 1.69664 q 0,2.92894 -1.58948,4.51843 -1.58949,1.58948 -4.55414,1.58948 z"
           style="font-size:36.576px;stroke-width:0.255323"
           id="path2002" />
        <path
           d="m -127.46851,165.78464 q -1.76808,0 -3.07181,-0.64294 -1.30374,-0.66079 -2.01811,-1.85737 -0.69652,-1.21444 -0.69652,-2.83964 0,-2.58961 1.78594,-3.94692 1.78594,-1.35732 5.16136,-1.35732 h 5.01849 v -1.35731 q 0,-2.03597 -1.08943,-3.07181 -1.08942,-1.03585 -3.23254,-1.03585 -1.75022,0 -2.78607,0.67866 -1.03584,0.67866 -1.33945,2.00025 h -2.89322 q 0.33933,-2.62533 2.12527,-3.96478 1.80379,-1.33945 4.9649,-1.33945 3.50044,0 5.28638,1.66092 1.8038,1.64306 1.8038,4.89347 v 11.73361 h -2.51818 l -0.17859,-3.0361 h -0.14287 q -0.85725,1.64306 -2.48246,2.57175 -1.60734,0.91083 -3.69689,0.91083 z m 0.5715,-2.64319 q 1.57163,0 2.8575,-0.67865 1.28588,-0.69652 2.01811,-1.87524 0.73224,-1.19658 0.73224,-2.64319 v -0.35718 h -5.01849 q -1.92881,0 -2.96466,0.73223 -1.01798,0.71438 -1.01798,2.08955 0,1.28587 0.89297,2.01811 0.89297,0.71437 2.50031,0.71437 z"
           style="font-size:36.576px;stroke-width:0.255323"
           id="path2004" />
        <path
           d="m -103.76912,165.78464 q -2.01811,0 -3.39328,-0.89297 -1.35731,-0.89297 -2.01811,-2.58961 h -0.14287 l -0.19646,3.0361 h -2.51817 v -25.96754 h 2.8575 v 10.96566 h 0.14288 q 0.69651,-1.57162 2.05382,-2.42887 1.35732,-0.85725 3.25041,-0.85725 2.21456,0 3.804055,1.143 1.60734,1.143 2.44673,3.2504 0.839386,2.10741 0.839386,4.96491 0,2.89322 -0.839386,5.00062 -0.83939,2.10741 -2.44673,3.25041 -1.589495,1.12514 -3.839775,1.12514 z m -0.4822,-2.64319 q 2.23242,0 3.429,-1.73236 1.214445,-1.75022 1.214445,-5.00062 0,-3.25041 -1.214445,-4.98277 -1.19658,-1.75022 -3.429,-1.75022 -1.48233,0 -2.60747,0.76796 -1.10728,0.75009 -1.7145,2.17884 -0.60722,1.41089 -0.60722,3.35756 v 0.87511 q 0,1.94667 0.60722,3.37542 0.60722,1.4109 1.7145,2.16099 1.12514,0.75009 2.60747,0.75009 z"
           style="font-size:36.576px;stroke-width:0.255323"
           id="path2006" />
        <path
           d="m -84.355979,165.78464 q -3.357563,0 -5.304235,-1.33945 -1.946672,-1.33946 -2.107406,-3.75047 h 2.928937 q 0.178594,1.19658 1.321594,1.82165 1.16086,0.62508 3.16111,0.62508 2.125265,0 3.268265,-0.71437 1.16086,-0.71438 1.16086,-2.10741 0,-1.07156 -0.785813,-1.64306 -0.767953,-0.58936 -2.57175,-0.83939 l -2.607469,-0.35719 q -2.732484,-0.39291 -4.036218,-1.60734 -1.303735,-1.21444 -1.303735,-3.37542 0,-2.64319 1.785938,-4.03622 1.803797,-1.41089 5.018484,-1.41089 3.089672,0 4.87561,1.26801 1.803796,1.26802 1.964531,3.58974 h -2.964656 q -0.0893,-0.96441 -1.107282,-1.58949 -1.000125,-0.64294 -2.732484,-0.64294 -1.803797,0 -2.8575,0.71438 -1.053703,0.69651 -1.053703,1.92881 0,1.07156 0.785812,1.66092 0.785813,0.58936 2.58961,0.82153 l 2.589609,0.37505 q 2.750344,0.37505 4.036219,1.58949 1.303734,1.19657 1.303734,3.37542 0,2.75034 -1.928812,4.19695 -1.910953,1.44661 -5.42925,1.44661 z"
           style="font-size:36.576px;stroke-width:0.255323"
           id="path2008" />
      </g>
    </g>
    <text
       xml:space="preserve"
       style="font-style:normal;font-variant:normal;font-weight:normal;font-stretch:normal;font-size:76.2px;line-height:1.25;font-family:'Estrangelo Talada';-inkscape-font-specification:'Estrangelo Talada';letter-spacing:0px;word-spacing:0.264583px;fill:#ffffff;fill-opacity:0.999999;stroke:#ffffff;stroke-width:0.264583;stroke-opacity:1"
       x="63.200645"
       y="159.01678"
       id="text1016"><tspan
         sodipodi:role="line"
         id="tspan1014"
         x="63.200645"
         y="159.01678"
         style="font-style:normal;font-variant:normal;font-weight:normal;font-stretch:normal;font-size:76.2px;font-family:'JD Code';-inkscape-font-specification:'JD Code';fill:#ffffff;fill-opacity:0.999999;stroke:#ffffff;stroke-width:0.264583;stroke-opacity:1" /></text>
  </g>
</svg>
