<?xml version="1.0" encoding="UTF-8" standalone="no"?>
<!-- Created with Inkscape (http://www.inkscape.org/) -->

<svg
   version="1.1"
   id="svg1"
   width="436.32001"
   height="434.88"
   viewBox="0 0 436.32001 434.88"
   xmlns="http://www.w3.org/2000/svg"
   xmlns:svg="http://www.w3.org/2000/svg">
  <defs
     id="defs1" />
  <g
     id="g1">
    <path
       style="fill:#000000;stroke-width:1.76948"
       d="m 206.17894,411.78836 -1.41436,-3.34461 h -7.99033 -7.99033 l -1.28876,2.86512 c -1.17214,2.60593 -1.61171,2.86513 -4.8587,2.86513 -1.9635,0 -3.56999,-0.11372 -3.56999,-0.2527 0,-1.13835 5.83774,-14.62557 8.72995,-20.16929 1.9842,-3.80317 3.60758,-7.40395 3.60758,-8.00168 0,-1.22073 3.52297,-2.68534 6.44644,-2.68003 1.50691,0.002 2.62089,1.29292 5.12447,5.93492 10.76909,19.96747 13.16739,24.56338 12.9294,24.77698 -0.14631,0.13126 -2.07601,0.48882 -4.28843,0.79465 l -4.02261,0.55607 z m -5.08116,-10.31171 c 0,-1.80432 -3.57882,-8.58648 -4.53095,-8.58648 -0.44653,0 -0.95935,0.46048 -1.13959,1.02328 -0.18037,0.56276 -0.90659,2.77303 -1.61405,4.91163 l -1.28631,3.88839 h 4.28544 c 3.23553,0 4.28546,-0.30299 4.28546,-1.23682 z m 31.68848,13.01147 c -0.19519,-3.85747 0.18945,-30.19882 0.44444,-30.43571 0.7766,-0.72139 13.00296,-0.235 15.82277,0.62946 3.63111,1.11319 8.44448,5.89474 8.44448,8.3887 0,0.96834 -0.84123,2.59243 -1.86939,3.60907 l -1.86947,1.84846 2.31102,1.88806 c 4.81138,3.93079 3.37979,9.46982 -3.27654,12.67736 -3.05583,1.47253 -19.94379,2.64969 -20.00731,1.3946 z m 17.57368,-7.4508 c 3.63249,-2.73231 -0.1327,-5.96107 -6.95146,-5.96107 -4.02436,0 -4.78026,0.80912 -4.06476,4.35084 0.49699,2.46 0.76784,2.6208 4.79231,2.84531 3.08221,0.17209 4.80886,-0.17066 6.22391,-1.23508 z m -0.22641,-12.92965 c 0.85093,-2.05989 -1.28874,-3.49931 -6.11904,-4.11642 -2.52023,-0.322 -4.78051,-0.52987 -5.02287,-0.46198 -0.49642,0.13896 -0.64858,4.25712 -0.19233,5.20277 0.16296,0.33769 2.66471,0.61396 5.55946,0.61396 3.88511,0 5.39709,-0.32421 5.77471,-1.23833 z m 32.48011,19.57324 c -1.93879,-0.658 -4.31816,-1.93762 -5.28753,-2.84364 l -1.76249,-1.64732 2.2031,-1.58281 c 2.62179,-1.88357 4.65554,-2.02035 7.30138,-0.49104 3.48167,2.01244 7.31619,2.23922 8.98028,0.53112 2.72278,-2.79473 1.39234,-4.25566 -5.70663,-6.26611 -7.78027,-2.20343 -9.69376,-3.96575 -9.69376,-8.92808 0,-6.29794 5.26429,-10.2042 13.30477,-9.87257 7.39493,0.30498 11.3772,3.68272 8.53952,7.2431 -0.96472,1.21038 -1.63545,1.29442 -4.47462,0.56053 -1.83687,-0.47481 -4.8111,-0.74983 -6.6094,-0.61116 -2.59093,0.19987 -3.3267,0.62471 -3.5446,2.04719 -0.23189,1.51353 0.40287,1.98207 4.04716,2.98737 7.39216,2.03921 11.67262,4.48249 12.99208,7.41594 3.90948,8.69161 -8.23373,15.54896 -20.28926,11.45748 z m -143.38625,-14.65211 -0.2579,-15.1452 3.74534,9.3e-4 3.7453,9.5e-4 v 11.86984 11.8698 l 6.82973,0.0125 c 9.69263,0.0161 10.79535,0.40077 10.79535,3.76805 v 2.7689 H 151.78529 139.4854 Z m -119.667701,0.24671 1.8e-5,-3.84735 43.296667,-0.0587 c 23.813177,-0.0326 43.641366,-0.25687 44.062646,-0.49866 0.42128,-0.24177 0.76594,1.51595 0.76594,3.90628 l -2e-5,4.34601 H 63.622319 19.559696 Z m 356.246391,3.63452 -40.75793,-0.21287 v -3.6756 -3.67556 h 40.8681 c 22.47748,0 42.12998,-0.23448 43.67226,-0.52095 l 2.80413,-0.52095 -0.27054,4.40934 c -0.26369,4.29769 -0.33749,4.40933 -2.91428,4.40933 -1.45408,0 -20.98484,-0.096 -43.40174,-0.21287 z m -357.347938,-48.27747 -4.185946,-0.30664 0.0097,-22.67151 c 0.0052,-12.46933 0.244837,-23.9918 0.532202,-25.60549 l 0.522506,-2.93395 13.788149,0.36032 c 15.235005,0.3981 18.405641,1.16775 24.166245,5.86609 7.66651,6.25279 6.645345,20.64954 -1.841553,25.96229 -1.591077,0.996 -3.341406,1.94982 -3.889622,2.11956 -1.041622,0.32252 1.901028,4.71399 8.780827,13.10402 l 3.859709,4.707 h -5.626027 c -6.596793,0 -6.808349,-0.15955 -13.827893,-10.43725 l -4.612643,-6.75354 h -5.64323 -5.643285 v 8.5954 c 0,6.40928 -0.280164,8.55788 -1.101565,8.44783 -0.60586,-0.0811 -2.985243,-0.2855 -5.287515,-0.45413 z M 44.252424,328.621 c 5.444196,-2.61515 6.098023,-8.79997 1.392363,-13.17113 -2.93852,-2.72961 -3.140932,-2.78328 -10.502955,-2.78328 -4.128687,0 -8.133979,-0.22354 -8.90065,-0.49684 -1.219545,-0.43475 -1.39396,0.64071 -1.39396,8.59536 v 9.09227 h 8.41567 c 5.782614,0 9.220951,-0.38682 10.989532,-1.23638 z m 192.095436,5.32942 v -21.28383 h -8.37189 -8.37191 v -4.91163 -4.91165 h 22.03133 22.0313 v 4.91165 4.91163 h -9.25316 -9.25313 v 20.78695 c 0,22.96879 0.31638,21.78071 -5.80021,21.78071 h -3.01233 z m 46.25011,20.44169 c -0.6176,-0.92826 0.34868,-49.90619 1.00399,-50.89114 0.24073,-0.36168 2.39699,-0.65766 4.79182,-0.65766 h 4.35425 v 11.46053 c 0,6.30328 0.26024,11.4605 0.57821,11.4605 0.68167,0 8.96638,-8.42165 10.87808,-11.05789 0.72705,-1.00257 2.66655,-2.86901 4.31006,-4.14764 1.64349,-1.27862 3.68501,-3.38921 4.53675,-4.69019 1.47867,-2.25869 1.87078,-2.37544 8.68843,-2.58733 3.98869,-0.1241 7.13983,0.11425 7.13983,0.53988 0,0.41899 -3.88603,4.51461 -8.63566,9.10132 -12.68501,12.25004 -13.60362,13.4061 -12.36509,15.56165 0.56332,0.9804 5.02322,6.34331 9.91091,11.91756 4.88769,5.57425 9.61378,11.00777 10.50243,12.07447 l 1.61566,1.93949 h -6.2337 -6.23372 l -2.8726,-3.55601 c -1.57995,-1.95582 -5.64858,-6.73155 -9.04142,-10.61278 l -6.16876,-7.05677 -3.26711,3.44994 c -3.13287,3.30817 -3.26925,3.70232 -3.31821,9.58952 -0.0281,3.37677 -0.34241,6.5434 -0.69851,7.03695 -0.87131,1.20765 -8.79484,2.14888 -9.47564,1.1256 z m 119.5829,0.23994 -3.80813,-0.31621 0.61728,-20.8246 0.61724,-20.82461 h -9.36698 -9.36696 v -4.91163 -4.91167 h 8.67177 c 4.76946,0 15.27843,0.24202 23.35318,0.53787 l 14.68144,0.53784 v 4.82698 4.82695 l -9.47347,-0.24852 -9.47346,-0.24854 -0.23525,21.07918 c -0.18008,16.14047 -0.4898,21.04568 -1.32187,20.93617 -0.59769,-0.0786 -2.80038,-0.2853 -4.89482,-0.45922 z M 95.658639,352.9061 c -5.607914,-1.80033 -9.728281,-4.96396 -13.809221,-10.60272 -4.111728,-5.68134 -5.434567,-11.54365 -4.228551,-18.73944 3.330687,-19.87276 29.171753,-27.60022 45.814863,-13.70036 6.63675,5.54288 8.46883,9.70051 8.47698,19.23742 0.005,7.29297 -0.178,8.1168 -2.6469,11.82799 -7.31487,10.99606 -21.2233,15.95278 -33.607171,11.97711 z m 18.379551,-10.42998 c 6.15533,-4.02649 9.5758,-12.03946 7.78151,-18.22936 -3.8576,-13.30759 -25.559121,-16.11311 -32.43051,-4.19255 -4.915591,8.52765 0.377611,21.21148 10.36452,24.83588 3.30323,1.19877 10.66292,-0.0449 14.28448,-2.41397 z m 54.7462,10.47443 c -11.67977,-3.87797 -18.7993,-13.70276 -18.7993,-25.94254 0,-10.04674 4.98099,-17.2895 14.84439,-21.58493 4.16729,-1.81485 6.21107,-2.17044 12.47446,-2.17044 6.94002,0 7.9117,0.21548 13.21879,2.93252 6.67935,3.4195 10.81793,7.97278 12.75557,14.03367 3.08434,9.64778 0.96782,18.97042 -5.82064,25.63793 -7.61513,7.47955 -19.01628,10.30018 -28.67327,7.09379 z m 15.62641,-9.79073 c 3.13029,-1.47452 5.69314,-3.47584 7.42836,-5.80079 2.3491,-3.1475 2.6492,-4.22113 2.6492,-9.47772 0,-5.23546 -0.2891,-6.28024 -2.47448,-8.94173 -5.22691,-6.36568 -15.12856,-8.28416 -23.30692,-4.51576 -11.4235,5.26362 -10.51923,23.21282 1.46525,29.08432 5.06729,2.48262 8.40185,2.40104 14.23859,-0.34832 z m 166.98901,-13.77633 c -0.354,-13.76772 -0.50973,-25.13615 -0.34607,-25.26317 0.16368,-0.12696 2.47869,-0.45892 5.14447,-0.73751 l 4.8469,-0.50653 -0.24464,25.76971 -0.24462,25.7697 h -4.25626 -4.25627 z M 214.77882,279.59054 c -3.21776,-3.16931 -5.36832,-9.16755 -4.47381,-12.47817 0.82423,-3.05056 3.6882,-6.63103 5.80275,-7.25443 1.72114,-0.50745 1.7423,-1.33111 1.5193,-59.19291 -0.22408,-58.16959 -0.2415,-58.67584 -1.98864,-58.39444 -1.57777,0.254 -18.60829,14.81155 -21.37851,18.27408 -0.84631,1.05783 -1.11113,8.7932 -1.11572,32.59142 l -0.005,31.20439 2.68955,2.10225 c 4.22969,3.30607 5.5618,6.41202 4.98328,11.61899 -0.41347,3.7216 -1.02989,4.99103 -3.56853,7.3492 -2.56403,2.38179 -3.84412,2.91026 -7.78426,3.21381 -9.46947,0.72943 -14.79146,-3.62008 -14.79146,-12.08869 0,-5.28313 2.16754,-9.20522 6.24699,-11.30373 l 2.69177,-1.3847 -0.28541,-33.20639 -0.28538,-33.20637 3.83184,-4.25138 c 2.10751,-2.33825 6.07255,-5.98474 8.8112,-8.1033 2.73865,-2.11855 7.61762,-6.1678 10.84212,-8.9983 3.96643,-3.48171 6.57294,-5.14635 8.05838,-5.14635 1.69965,0 2.18776,-0.41602 2.16101,-1.84186 -0.0183,-1.01302 0.12123,-6.26235 0.31198,-11.66516 0.47314,-13.41103 0.31754,-13.40507 -15.52557,0.59569 -6.77867,5.99039 -13.90557,12.1749 -15.8376,13.74336 -1.93202,1.56845 -8.42458,7.27221 -14.4279,12.67503 -6.00333,5.40281 -11.36841,10.22352 -11.92241,10.71267 -0.63609,0.56166 -0.92863,3.42734 -0.79387,7.77677 0.11736,3.78809 0.2225,13.59016 0.23369,21.78236 l 0.0208,14.89494 2.42346,1.06794 c 2.86097,1.26072 6.38908,7.28198 6.38908,10.90394 0,3.54297 -3.96159,10.54102 -6.7516,11.92656 -3.09832,1.53866 -9.74363,1.36191 -13.28197,-0.35329 -3.25129,-1.57605 -5.22109,-4.63351 -6.03635,-9.36956 -0.76631,-4.45149 0.70432,-8.09319 4.96498,-12.295 l 3.5787,-3.52925 -0.10227,-21.43809 c -0.0562,-11.79094 -0.0786,-22.25108 -0.0494,-23.24468 0.0742,-2.52287 28.84338,-29.09415 43.45467,-40.13452 3.27163,-2.47207 5.94847,-4.82156 5.94847,-5.22109 0,-0.39952 -7.98333,-0.72639 -17.7407,-0.72639 h -17.74074 l -12.00155,10.41069 c -6.60139,5.72586 -16.7609,14.73222 -22.57716,20.01413 l -10.57503,9.60347 0.26141,13.54752 0.26142,13.54752 2.59402,1.24606 c 3.5459,1.70332 6.13631,6.71091 6.13631,11.86229 0,5.02207 -1.62454,8.1912 -5.66725,11.05552 l -3.02535,2.14353 0.51093,12.01978 0.51094,12.0198 3.34867,2.68763 c 7.00052,5.61863 5.72932,17.46343 -2.2518,20.9815 -6.61646,2.91652 -14.26168,0.60757 -17.4389,-5.26676 -2.88417,-5.3325 -1.04532,-13.18799 3.8442,-16.42213 l 2.5435,-1.68242 v -12.94784 -12.94785 l -2.24519,-1.36653 c -3.31434,-2.01729 -5.67903,-6.14384 -5.68278,-9.9169 -0.003,-3.83833 3.74182,-11.43961 6.25191,-12.68747 1.55846,-0.77478 1.67606,-1.94284 1.67606,-16.64652 v -15.8133 l 11.6776,-10.55803 c 6.42271,-5.80692 15.13149,-13.47783 19.35286,-17.04643 4.22139,-3.56863 7.86715,-6.95306 8.10176,-7.52093 0.24645,-0.59643 -1.32078,-1.98243 -3.71061,-3.28163 -2.27541,-1.23699 -7.76374,-4.929337 -12.19624,-8.20519 l -8.05909,-5.956091 -3.55616,1.297594 c -8.37231,3.054961 -17.77888,-3.128218 -17.77888,-11.686476 0,-4.178531 3.58307,-9.591105 7.4889,-11.312818 3.66384,-1.615013 9.71865,-1.293171 12.9766,0.689773 2.77038,1.68619 5.63097,6.569873 6.39621,10.919775 0.33662,1.913484 0.99826,3.479077 1.47029,3.479077 0.47206,0 4.80894,3.511817 9.63759,7.804049 l 8.77933,7.804047 29.59967,-0.392082 c 16.27983,-0.215741 29.82189,-0.598453 30.09347,-0.850758 1.02115,-0.948558 -19.17099,-17.437132 -32.72179,-26.720086 -13.91912,-9.535259 -12.91383,-8.483253 -12.91383,-13.513871 0,-4.126665 -0.18113,-4.520022 -2.42346,-5.2582 -4.03121,-1.327184 -4.982,-2.048916 -7.08689,-5.379667 -5.01108,-7.929365 0.81617,-19.179283 10.12884,-19.554491 6.97742,-0.281116 11.74142,2.910744 13.38298,8.966561 1.29465,4.776038 -0.1001,11.013433 -3.03602,13.575344 -1.39334,1.215957 -2.1455,2.767107 -2.13189,4.396588 0.0183,2.196889 1.16967,3.381357 9.03286,9.293364 4.95648,3.726543 14.56367,11.337308 21.34932,16.912795 6.78563,5.575461 12.40406,10.077735 12.48534,10.005023 0.0811,-0.07262 0.25166,-10.024723 0.37864,-22.115641 l 0.23033,-21.983416 -2.38917,-1.346037 c -5.08499,-2.864865 -7.63551,-12.951038 -4.37007,-17.28171 2.02079,-2.679985 4.19524,-4.64021 6.31794,-5.695494 2.7988,-1.391394 9.08777,-1.038741 12.12157,0.679715 3.38467,1.917196 6.51424,7.69968 6.4949,12.000557 -0.0183,4.111417 -3.15891,9.259682 -6.65401,10.908321 l -2.70282,1.274931 0.29929,21.664416 c 0.16475,11.915462 0.4699,21.822947 0.67843,22.016645 0.20847,0.193621 4.66093,-3.469553 9.89419,-8.140592 5.2333,-4.671041 12.88586,-11.209685 17.00571,-14.530328 4.11985,-3.320668 9.5726,-7.728968 12.11722,-9.796255 2.54464,-2.067263 4.62656,-4.349381 4.62656,-5.071372 0,-0.721966 -1.02906,-2.205763 -2.28682,-3.297273 -3.73172,-3.238412 -4.99967,-6.282516 -4.57913,-10.993511 0.48036,-5.38036 3.26503,-9.108489 8.37044,-11.20632 11.07071,-4.54899 21.60276,7.273319 16.32701,18.327202 -1.94897,4.083583 -3.31534,5.304848 -6.3752,5.698022 -1.98641,0.255299 -2.22914,0.701172 -2.46773,4.533555 -0.25373,4.075188 -0.44982,4.374077 -4.75591,7.247752 -4.54008,3.029873 -31.8434,25.726584 -37.94055,31.539283 -1.81759,1.732771 -3.30393,3.44103 -3.30292,3.796131 0.001,0.825463 31.23508,0.759569 46.36737,-0.09785 l 11.55968,-0.654952 8.59498,-7.741277 c 5.1475,-4.636193 9.08263,-7.567434 9.81073,-7.307895 0.90883,0.323976 1.2157,-0.394917 1.2157,-2.848016 0,-4.27503 2.86807,-9.407375 6.13365,-10.976038 3.51254,-1.687257 12.26361,-1.633934 14.91462,0.09083 2.35374,1.53145 6.24917,8.779046 6.26196,11.650614 0.005,1.064288 -0.88056,3.404649 -1.9673,5.20079 -3.47016,5.735406 -11.20579,7.922588 -17.75692,5.02065 l -3.04885,-1.350528 -10.1797,8.922648 c -5.59885,4.907473 -10.18879,9.397173 -10.19986,9.977153 -0.0108,0.57995 8.30767,8.8492 18.48614,18.37616 l 18.50632,17.32171 v 15.00239 15.00239 l 2.13887,0.7554 c 4.97986,1.75873 8.13008,11.0703 5.73635,16.9555 -1.12777,2.77271 -5.10937,6.80683 -6.71821,6.80683 -0.90391,0 -1.15701,2.69342 -1.15701,12.31156 v 12.31153 l 3.53862,3.22197 c 4.12842,3.75905 5.27388,6.14191 5.27388,10.97108 0,6.54855 -6.21729,12.12048 -13.69185,12.27052 -7.20999,0.1447 -12.7457,-5.74 -12.7457,-13.54938 0,-4.3518 0.29048,-5.08691 3.18693,-8.06502 1.7528,-1.80226 3.70194,-3.27677 4.33144,-3.27677 0.91014,0 1.04712,-2.63963 0.66882,-12.89309 l -0.47567,-12.8931 -2.64424,-1.98142 c -3.02691,-2.26818 -5.90078,-7.58269 -5.92918,-10.96454 -0.0326,-3.86089 3.41196,-10.17132 6.465,-11.84445 l 2.76879,-1.51739 -0.0892,-12.79101 -0.0892,-12.79102 -18.24544,-17.40151 C 294.693,120.42712 285.01735,111.47339 283.22655,110.10077 l -3.25604,-2.49565 -18.48854,0.40931 -18.48859,0.40931 13.65391,11.11558 c 7.50969,6.11357 18.60547,16.1856 24.65736,22.38232 9.35697,9.58093 11.09,11.7761 11.58213,14.67062 0.31829,1.87211 0.64804,19.21245 0.73278,38.5341 0.17066,38.93177 0.43799,37.1878 -5.53109,36.09717 -2.10968,-0.38545 -2.4938,-0.29922 -1.50856,0.33861 0.81059,0.52471 0.91591,0.86059 0.27232,0.86827 -0.57723,0.005 -1.35143,-0.44124 -1.72044,-0.99584 -0.36898,-0.55458 -0.79225,-17.96025 -0.94056,-38.67925 l -0.26963,-37.67088 -14.89939,-13.50705 c -18.64338,-16.90114 -21.98611,-19.8222 -30.0958,-26.29923 -3.59273,-2.86945 -7.25316,-5.88449 -8.13425,-6.70009 -0.88111,-0.8156 -2.26877,-1.36362 -3.08368,-1.21783 -1.25512,0.22458 -1.43542,1.1396 -1.17918,5.98523 0.83656,15.82129 1.10993,17.72837 2.47199,17.24284 0.88439,-0.31523 6.20326,4.12817 16.22831,13.55712 l 14.91272,14.02603 v 8.8642 8.86417 l 3.61217,3.12983 c 2.96717,2.571 3.69459,3.80956 4.07402,6.93661 0.73747,6.07765 -0.34343,9.36737 -4.27898,13.02318 l -3.54453,3.29257 0.289,10.4164 0.28897,10.41648 3.20049,3.47035 c 7.3816,8.00407 6.38679,17.854 -2.16765,21.46187 -6.65161,2.80539 -11.7103,1.73158 -15.32674,-3.25337 -3.66919,-5.05763 -1.86066,-16.24449 3.03781,-18.79096 1.32336,-0.68796 1.57614,-2.41157 1.83711,-12.52766 l 0.3026,-11.73002 -2.63654,-1.35417 c -3.22208,-1.65494 -5.36167,-4.56357 -6.36675,-8.6553 -1.08956,-4.43552 0.32395,-8.2472 4.63632,-12.50227 l 3.73338,-3.68372 0.0643,-7.62779 0.0643,-7.62778 -9.96144,-8.30837 c -11.09937,-9.25751 -12.37989,-10.10558 -13.57789,-8.99276 -0.50188,0.4662 -0.72759,23.09678 -0.57602,57.75028 l 0.24931,56.98366 1.98843,1.72041 c 3.20525,2.77325 4.66558,5.32831 5.14148,8.99581 0.60535,4.66528 -0.90708,8.45025 -4.5706,11.43823 -2.55614,2.08477 -3.8024,2.49673 -7.5531,2.49673 -3.96819,0 -4.82183,-0.32498 -7.32211,-2.78759 z m 11.05196,-6.24594 c 1.87654,-0.93288 2.25124,-4.0416 0.79232,-6.57385 -0.62968,-1.09296 -1.84842,-1.58341 -3.93466,-1.58341 -3.28059,0 -4.84688,1.6492 -4.84688,5.10342 0,3.56095 3.93986,5.06695 7.98922,3.05384 z M 119.35577,239.81364 c 3.02753,-4.039 1.13286,-8.18925 -3.73848,-8.18925 -3.16984,0 -6.46492,3.54231 -5.64037,6.06354 1.57278,4.80915 6.52594,5.93176 9.37885,2.12571 z m 213.09993,-1.35641 c 1.37459,-3.3584 -0.73665,-6.45406 -4.29692,-6.30036 -3.68383,0.15902 -5.44814,1.5685 -5.44814,4.35252 0,2.20212 1.83827,4.34241 4.40624,5.13016 1.96461,0.60267 4.37858,-0.83623 5.33882,-3.18232 z m -140.66104,1.1711 c 1.63332,-2.16614 1.78933,-5.65145 0.31433,-7.02162 -1.52727,-1.41869 -6.02748,-1.20669 -7.90593,0.37246 -2.25106,1.89234 -2.07124,5.6208 0.34699,7.19418 2.76396,1.79836 5.64083,1.58191 7.24461,-0.54502 z m 67.3828,0.26885 c 2.32455,-1.66009 2.80276,-5.80569 0.91355,-7.92022 -1.59759,-1.78812 -5.0719,-1.39881 -7.48003,0.83814 -2.51151,2.33299 -2.77581,5.00959 -0.70459,7.13559 1.85222,1.90118 4.56191,1.88126 7.27107,-0.0536 z M 157.00029,216.07081 c 0.38625,0 1.20245,-1.1217 1.81379,-2.49271 2.28506,-5.12441 -2.8914,-8.91974 -7.53647,-5.52565 -3.07864,2.24952 -2.95685,5.93353 0.24957,7.55236 1.33291,0.67294 2.9516,1.05308 3.5971,0.84478 0.64551,-0.2082 1.48966,-0.37878 1.87591,-0.37878 z m 101.70068,-23.79905 c 2.45458,-1.79354 2.915,-3.93055 1.40974,-6.54327 -0.71387,-1.23906 -1.86379,-1.58339 -5.28753,-1.58339 -3.90845,0 -4.39016,0.19648 -4.51489,1.84185 -0.25323,3.34101 0.16206,5.01041 1.61842,6.50529 1.88233,1.93209 3.91898,1.86581 6.77426,-0.22043 z M 118.45981,190.8986 c 3.52324,-3.72704 2.11174,-8.39074 -2.53952,-8.39074 -2.52912,0 -5.59155,2.69006 -5.59155,4.91165 0,2.05379 2.99711,4.91167 5.15093,4.91167 0.89425,0 2.23533,-0.64464 2.98014,-1.43258 z m 212.4024,-0.86533 c 1.78888,-1.42704 2.1001,-6.67971 0.4847,-8.1803 -0.58164,-0.54029 -2.28685,-0.98232 -3.78939,-0.98232 -3.59082,0 -4.84688,1.29988 -4.84688,5.01597 0,2.31622 0.55569,3.45733 2.3067,4.73676 2.33325,1.70488 3.05998,1.63153 5.84487,-0.59011 z M 328.94897,83.046924 c 2.54013,-6.046603 -2.60074,-11.166275 -7.27051,-7.240596 -1.82191,1.531606 -2.11697,5.283183 -0.59371,7.548907 1.44217,2.145151 6.92384,1.93027 7.86422,-0.308311 z M 121.60206,81.941753 c 1.71913,-2.036476 0.91735,-5.078918 -1.84026,-6.983138 -2.27587,-1.571605 -2.6456,-1.606582 -4.84688,-0.458887 -1.95911,1.021453 -2.38307,1.815141 -2.38307,4.461364 0,2.613198 0.41457,3.412586 2.20314,4.248407 2.52794,1.181293 5.21908,0.684463 6.86707,-1.267746 z m 48.25129,-38.150827 c 2.34626,-2.179475 2.91493,-6.248479 1.06151,-7.595524 -1.8483,-1.343317 -5.26205,-1.816419 -6.97218,-0.966247 -2.49313,1.239434 -2.2613,7.605181 0.33857,9.296752 2.58918,1.684639 3.0299,1.6265 5.5721,-0.734981 z m 109.95132,0.98605 c 0.82142,-0.562792 1.8589,-2.213788 2.30546,-3.66888 1.11839,-3.644158 -1.11351,-6.237677 -5.27335,-6.127811 -5.40993,0.142868 -7.26525,5.946002 -2.91683,9.123321 2.68552,1.962268 3.81485,2.09149 5.88472,0.67337 z m -53.97389,-6.373018 c 1.14722,-0.570319 1.70457,-1.71529 1.70457,-3.501592 0,-3.763355 -2.16358,-6.29291 -5.38246,-6.29291 -2.18899,0 -2.86117,0.494494 -3.94369,2.901165 -0.71774,1.59564 -1.03373,3.345418 -0.70226,3.88839 2.28778,3.747395 4.9194,4.697424 8.32384,3.004947 z"
       id="path1" />
  </g>
</svg>
