<?xml version="1.0" encoding="UTF-8" standalone="no"?>
<svg
   width="300"
   height="300"
   viewBox="0 0 79.374995 79.375004"
   version="1.1"
   id="svg8"
   xmlns="http://www.w3.org/2000/svg"
   xmlns:svg="http://www.w3.org/2000/svg"
   xmlns:rdf="http://www.w3.org/1999/02/22-rdf-syntax-ns#"
   xmlns:cc="http://creativecommons.org/ns#"
   xmlns:dc="http://purl.org/dc/elements/1.1/">
  <defs
     id="defs2" />
  <metadata
     id="metadata5">
    <rdf:RDF>
      <cc:Work
         rdf:about="">
        <dc:format>image/svg+xml</dc:format>
        <dc:type
           rdf:resource="http://purl.org/dc/dcmitype/StillImage" />
        <dc:title />
      </cc:Work>
    </rdf:RDF>
  </metadata>
  <g
     id="layer2">
    <path
       style="fill:#000000;stroke-width:1.48652"
       d="m 139.39031,283.56338 c -1.11967,-0.82261 -1.54762,-2.25006 -3.01093,-10.04315 -0.87134,-4.64051 -1.65079,-8.49079 -1.73211,-8.55619 -0.0813,-0.0654 -2.45939,-1.07002 -5.28461,-2.23248 l -5.13676,-2.11357 -7.09046,4.85776 c -3.89975,2.67177 -7.45727,4.93774 -7.9056,5.0355 -1.43417,0.31272 -2.71957,-0.70159 -9.272313,-7.31672 -4.861631,-4.90793 -6.419291,-6.7287 -6.419291,-7.50359 0,-0.63734 1.736749,-3.54663 4.605684,-7.71514 2.53313,-3.68059 4.75032,-6.93009 4.92709,-7.22111 0.19481,-0.32071 -0.59487,-2.6715 -2.00483,-5.9682 l -2.326241,-5.43909 -2.295171,-0.43337 c -1.262344,-0.23835 -4.925856,-0.92338 -8.141138,-1.52228 -4.462237,-0.83118 -6.102263,-1.30938 -6.928759,-2.0203 l -1.08279,-0.93138 v -9.64857 -9.64856 l 1.048271,-0.90169 c 0.817443,-0.70313 2.657265,-1.19419 8.355267,-2.23007 4.018848,-0.73062 7.611899,-1.41669 7.984559,-1.52461 0.426488,-0.12351 1.531432,-2.3302 2.981862,-5.9551 l 2.3043,-5.75887 -4.767788,-7.02552 c -4.186269,-6.16862 -4.732514,-7.16685 -4.478592,-8.18439 0.35062,-1.40503 12.61901,-13.92034 13.98147,-14.26286 1.55724,-0.39149 2.55705,0.10855 8.65897,4.33069 l 5.90784,4.08785 5.17662,-10.29208 c 2.84714,-5.66064 5.18649,-10.53455 5.19855,-10.83092 0.0121,-0.29636 -1.12437,-3.11485 -2.52541,-6.2633 -2.48122,-5.57588 -2.60022,-5.75484 -4.5852,-6.89555 -1.12083,-0.64411 -2.23154,-1.17282 -2.46823,-1.17493 -0.2367,-0.002 -3.22793,1.92872 -6.64718,4.29072 -3.41925,2.36199 -6.77046,4.40526 -7.44713,4.54059 -1.15618,0.23124 -1.65823,-0.18184 -8.33117,-6.85479 -4.926033,-4.92603 -7.100854,-7.37763 -7.100854,-8.00455 0,-0.49703 2.109297,-4.01434 4.687326,-7.81625 l 4.687328,-6.91256 -2.3265,-5.85831 -2.326491,-5.858305 -8.157159,-1.494374 c -6.322188,-1.158212 -8.34314,-1.680167 -8.98391,-2.320299 -0.773013,-0.772238 -0.834741,-1.415961 -0.949709,-9.903902 -0.07635,-5.636826 0.03854,-9.502755 0.303088,-10.198569 0.588336,-1.547441 1.914126,-1.995682 10.416796,-3.521872 4.034983,-0.724259 7.537436,-1.525985 7.783229,-1.781612 0.945047,-0.982856 4.743956,-10.614177 4.390836,-11.132016 -7.556273,-11.081003 -9.524834,-14.160806 -9.524834,-14.901549 0,-0.619138 2.203385,-3.101076 7.100854,-7.998544 6.55243,-6.552431 7.19168,-7.082686 8.27694,-6.865635 0.64685,0.12937 4.26772,2.356048 8.04638,4.948173 3.77866,2.592126 7.06941,4.717211 7.31277,4.722411 0.24336,0.0052 2.62203,-0.865313 5.28594,-1.934474 3.27626,-1.314927 4.95467,-2.208176 5.18712,-2.76058 0.189,-0.449158 0.98381,-4.278568 1.76623,-8.509801 0.78243,-4.231233 1.70234,-8.120088 2.04424,-8.641901 0.86898,-1.326222 2.09534,-1.461684 11.92756,-1.317492 8.08935,0.118632 8.70473,0.181127 9.48614,0.963373 0.65256,0.653252 1.18013,2.692006 2.40816,9.306111 0.8649,4.658279 1.73157,8.613137 1.92594,8.788573 0.50754,0.458106 9.5238,4.096736 10.15142,4.096736 0.28916,0 3.43002,-1.991734 6.97971,-4.426075 7.79053,-5.342671 8.07423,-5.497458 9.44685,-5.154278 1.23249,0.308143 12.82937,11.577483 13.78361,13.39431 0.34496,0.656779 0.50439,1.59249 0.36557,2.145592 -0.1354,0.539476 -2.35123,4.035487 -4.92406,7.768913 -2.57283,3.733427 -4.66744,6.894596 -4.65469,7.024824 0.0128,0.130228 1.06773,2.616731 2.3444,5.525566 l 2.32121,5.288791 8.3485,1.54347 c 6.44864,1.192224 8.53534,1.730319 9.16957,2.364541 0.77733,0.777329 0.82107,1.341024 0.82107,10.58021 0,9.261671 -0.0421,9.801278 -0.82683,10.585964 -0.63929,0.639292 -2.67893,1.170626 -8.99242,2.342552 l -8.16559,1.515719 -2.31953,5.840789 -2.31954,5.84078 4.48531,6.53245 c 2.46692,3.59285 4.59251,6.95958 4.72353,7.48163 0.37547,1.496 -0.36121,2.48175 -6.49804,8.69501 -5.55645,5.62566 -7.24687,7.00275 -8.59608,7.00275 -0.34697,0 -3.66546,-2.05014 -7.37444,-4.55585 l -6.74358,-4.55586 -1.80511,0.87699 c -1.73078,0.84088 -1.9334,1.14164 -4.91978,7.30259 l -3.11465,6.4256 5.03952,10.12518 c 2.77175,5.56886 5.162,10.20339 5.31167,10.29896 0.14969,0.0956 2.98579,-1.69849 6.30248,-3.98681 4.71578,-3.25362 6.32883,-4.16058 7.3997,-4.16058 1.23005,0 2.07136,0.70537 8.26831,6.9323 5.37975,5.40578 6.89892,7.1656 6.89892,7.9918 0,0.65592 -1.25599,2.89796 -3.29727,5.88591 -1.81349,2.65452 -3.92263,5.7501 -4.68697,6.87907 l -1.38972,2.05267 2.28085,5.69124 c 1.25447,3.13017 2.34149,5.75427 2.41559,5.83132 0.0741,0.0771 3.75639,0.82921 8.18287,1.67147 10.77067,2.04942 9.94459,0.99389 9.94459,12.70684 0,9.08581 -0.15281,10.16178 -1.59498,11.23034 -0.51732,0.38331 -0.7021,0.34254 -0.92371,-0.20379 -0.252,-0.62121 -0.27963,-0.62246 -0.30568,-0.0139 -0.0337,0.78694 0.10585,0.7488 -8.79149,2.4034 -3.81082,0.70868 -6.95367,1.31604 -6.98411,1.34968 -0.0305,0.0336 -1.09118,2.49465 -2.35717,5.46891 l -2.30182,5.40775 4.90451,7.19835 c 3.05527,4.48421 4.90451,7.58433 4.90451,8.22205 0,0.77979 -1.63959,2.67124 -6.88088,7.93788 -6.03332,6.06252 -7.03572,6.90977 -8.13799,6.87843 -0.90613,-0.0258 -3.25662,-1.4107 -8.41864,-4.96037 l -7.16152,-4.92462 -5.18108,2.11096 c -2.8496,1.16102 -5.23259,2.1476 -5.29555,2.19239 -0.063,0.0448 -0.75905,3.54525 -1.54688,7.77881 -1.67464,8.99902 -2.01715,10.21438 -3.0316,10.7573 -0.87225,0.46681 -19.54303,0.55246 -20.16907,0.0925 z m 17.47266,-4.88465 c 0.11313,-0.39229 0.79002,-3.9229 1.50422,-7.8458 0.71419,-3.9229 1.54391,-7.61404 1.84381,-8.20252 0.41935,-0.82285 1.69695,-1.55506 5.53159,-3.1702 6.99677,-2.94704 8.58978,-3.46689 9.73945,-3.17834 0.55354,0.13893 3.84726,2.21154 7.31937,4.6058 3.47211,2.39426 6.58804,4.42635 6.92429,4.51576 0.36737,0.0977 2.6247,-1.85947 5.65599,-4.90384 l 5.04463,-5.06639 -4.73895,-6.86926 c -3.29692,-4.77899 -4.73894,-7.21828 -4.73894,-8.01624 0,-1.02908 3.41073,-9.58795 5.33279,-13.3821 0.93499,-1.84566 1.24188,-1.952 10.47053,-3.62813 l 7.44622,-1.35241 -0.11081,-7.36066 -0.1108,-7.36066 -7.86482,-1.46114 c -5.88782,-1.09384 -8.0572,-1.65841 -8.63012,-2.24594 -0.96641,-0.99105 -6.12542,-13.84829 -6.12542,-15.2657 0,-0.67445 1.63795,-3.45465 4.53686,-7.70073 l 4.53686,-6.64519 -5.27864,-5.27864 -5.27863,-5.27863 -6.28441,4.32281 c -3.45643,2.37755 -6.71262,4.43029 -7.23597,4.56164 -2.31013,0.57981 -2.09896,0.94894 -19.78923,-34.5932 -16.7797,-33.71269 -16.9108,-33.95827 -18.94068,-35.48225 -2.57733,-1.93499 -5.46793,-5.735384 -7.33915,-9.649089 -5.13189,-10.733506 1.79708,-24.340728 14.01513,-27.523127 8.30369,-2.162836 17.655,1.42514 22.41853,8.601699 4.42061,6.659922 4.61384,15.080614 0.49533,21.585768 -1.74119,2.750203 -4.96606,6.420939 -6.5923,7.503759 -1.27623,0.84975 -2.11942,2.19683 -5.16362,8.24929 l -3.63831,7.2337 5.70922,11.41281 c 3.14007,6.27705 5.79897,11.41282 5.90868,11.41282 0.1097,0 1.39331,-2.38246 2.85246,-5.29435 l 2.653,-5.29434 3.31232,-1.6654 c 2.3315,-1.17225 3.60508,-1.59193 4.30098,-1.41727 0.54376,0.13648 3.59219,2.04407 6.77428,4.2391 3.1821,2.19503 5.98149,4.10498 6.22086,4.24434 0.23938,0.13936 2.76525,-2.08182 5.61304,-4.93594 l 5.1778,-5.18932 -4.4844,-6.50661 c -3.00787,-4.36424 -4.48697,-6.87521 -4.49221,-7.6261 -0.0112,-1.60352 5.16149,-14.310421 6.22939,-15.30279 0.64893,-0.603035 2.46578,-1.125039 6.60139,-1.896674 3.13832,-0.585558 6.66893,-1.255699 7.8458,-1.489203 l 2.13976,-0.424549 v -7.278538 -7.278538 l -2.13976,-0.422345 c -1.17687,-0.232289 -4.77045,-0.91074 -7.98573,-1.507673 -4.31545,-0.801185 -6.1,-1.311737 -6.81626,-1.950103 -1.14702,-1.022282 -6.28996,-12.861858 -6.28996,-14.480139 0,-0.748196 1.53654,-3.368698 4.6924,-8.002669 l 4.6924,-6.890186 -5.17421,-5.185723 c -2.84582,-2.852148 -5.37007,-5.067203 -5.60945,-4.922345 -0.23937,0.144857 -3.44662,2.335935 -7.12721,4.869062 -3.68059,2.533126 -7.04168,4.605683 -7.46909,4.605683 -1.53597,0 -13.12776,-4.960674 -14.1817,-6.069021 -0.87204,-0.917051 -1.21426,-2.083053 -2.17003,-7.393536 -0.6241,-3.46763 -1.31971,-7.175972 -1.5458,-8.240759 l -0.41108,-1.935976 h -7.30256 c -4.01641,0 -7.30256,0.06771 -7.30256,0.150465 0,0.830061 -2.95408,15.795587 -3.27106,16.571367 -0.56005,1.370693 -0.97265,1.597862 -8.16105,4.493383 -4.31627,1.738617 -6.48306,2.414689 -7.17911,2.239994 -0.54831,-0.137619 -3.60047,-2.048759 -6.78256,-4.246979 -3.1821,-2.19822 -6.25115,-4.297039 -6.82012,-4.664043 l -1.03449,-0.667279 -5.19281,5.20436 -5.192805,5.204361 1.557887,2.224169 c 6.068268,8.663559 7.839908,11.52926 7.839908,12.681365 0,1.763638 -5.18794,13.647355 -6.36054,14.56972 -0.62704,0.493234 -3.329316,1.199722 -7.794653,2.037858 -3.75918,0.705588 -7.339245,1.384382 -7.955701,1.508427 l -1.120828,0.225535 v 7.275054 7.275049 l 2.139763,0.424549 c 1.17687,0.233504 4.70748,0.903645 7.8458,1.489203 4.135607,0.771635 5.952459,1.293639 6.601389,1.896674 1.06788,0.992349 6.23719,13.69108 6.23719,15.32204 0,0.78356 -1.39777,3.16564 -4.48131,7.63702 l -4.481317,6.49827 5.166907,5.1784 c 2.84181,2.84812 5.36277,5.06289 5.60215,4.9217 0.23938,-0.14118 3.23157,-2.14885 6.64933,-4.46148 3.41775,-2.31264 6.52181,-4.20479 6.89791,-4.20479 0.87325,0 7.05461,3.13306 7.92662,4.01765 0.36295,0.3682 6.94355,14.70019 14.62355,31.84886 7.68,17.14868 14.26084,31.7499 14.6241,32.44716 0.36326,0.69725 1.65984,2.07622 2.88129,3.06436 4.6841,3.78939 7.35717,9.52178 7.35717,15.77739 0,5.7695 -1.92717,10.74456 -5.62481,14.52062 -8.42062,8.59921 -21.27569,8.81039 -29.5725,0.48581 -4.60108,-4.61648 -6.9945,-11.46267 -6.10222,-17.45487 0.8683,-5.83114 3.65893,-10.81495 7.84192,-14.00493 1.9108,-1.4572 2.16624,-1.90902 6.13141,-10.84541 l 4.13755,-9.32485 -5.82946,-13.02665 -5.82947,-13.02666 -4.95283,9.89049 c -2.72406,5.43977 -5.23322,10.12317 -5.57589,10.40757 -1.49185,1.23812 -2.85481,0.6872 -9.42402,-3.80924 l -6.41959,-4.39405 -5.23204,5.22043 -5.232041,5.22043 2.971051,4.30987 c 1.63408,2.37043 3.64054,5.29335 4.4588,6.49537 0.87963,1.29218 1.48774,2.67565 1.48774,3.38466 0,1.52189 -5.07964,14.13877 -6.11328,15.18427 -0.57574,0.58234 -2.792547,1.16152 -8.64075,2.25753 l -7.866325,1.47424 -0.11077,7.33991 -0.110768,7.33992 7.608139,1.38579 c 4.184478,0.76219 8.162614,1.67047 8.840314,2.01841 1.04571,0.53689 1.65351,1.6169 4.01659,7.1371 1.53144,3.57747 2.78443,7.07707 2.78443,7.7769 0,0.95734 -1.16952,2.96949 -4.72315,8.12616 l -4.723153,6.85374 5.022713,5.03481 c 2.76249,2.76914 5.22432,5.0348 5.47073,5.0348 0.24641,0 1.44131,-0.69574 2.65535,-1.54609 8.27387,-5.79532 11.53333,-7.82811 12.55185,-7.82811 1.02024,0 9.95171,3.47129 13.03841,5.06749 1.62821,0.84197 1.78654,1.26342 3.09258,8.23156 0.58277,3.10923 1.25062,6.61603 1.48413,7.7929 l 0.42455,2.13977 h 7.27997 c 6.58323,0 7.29965,-0.0683 7.48566,-0.71326 z m -4.58781,-47.7902 c 5.22332,-0.97483 9.86975,-4.56146 12.14136,-9.37205 0.93964,-1.9899 1.05853,-2.74518 1.05853,-6.72498 0,-4.01108 -0.11505,-4.72879 -1.09232,-6.81385 -1.17492,-2.50676 -4.13181,-5.94203 -6.23156,-7.23975 -1.09013,-0.67374 -1.87689,-2.10101 -4.93144,-8.94619 -1.9989,-4.47951 -3.75607,-8.01489 -3.90483,-7.85641 -0.14875,0.15848 -1.76787,3.68121 -3.59805,7.82827 -2.29655,5.20383 -3.66053,7.7927 -4.4021,8.35527 -4.60746,3.49533 -7.01899,7.0676 -7.86287,11.64746 -1.55159,8.42079 4.46501,17.47602 12.68187,19.08673 2.54334,0.49856 3.62666,0.50482 6.14141,0.0355 z m 0.33735,-123.8521 c 2.13543,-4.3014 3.33087,-6.25423 4.11052,-6.71478 1.87191,-1.105765 5.82865,-5.656166 7.32551,-8.424609 1.35931,-2.514042 1.42651,-2.83034 1.42651,-6.714072 0,-3.755404 -0.10206,-4.283958 -1.29852,-6.724971 -2.16969,-4.426568 -5.40574,-7.218968 -9.97387,-8.606492 -7.76941,-2.359886 -15.99365,1.221352 -19.59413,8.53224 -1.22197,2.481249 -1.33183,3.025026 -1.33183,6.592045 0,3.584491 0.10631,4.103846 1.36303,6.658809 1.38237,2.810394 5.3629,7.490204 7.389,8.68705 0.77964,0.46055 1.97508,2.41338 4.11051,6.71478 1.65612,3.33595 3.11261,6.06536 3.23664,6.06536 0.12402,0 1.58051,-2.72941 3.23663,-6.06536 z"
       id="path622"
       transform="scale(0.26458333)" />
  </g>
</svg>
