<svg xmlns="http://www.w3.org/2000/svg"><defs><font id="icomoon" horiz-adv-x="1024"><font-face units-per-em="1024" ascent="960" descent="-64"/><glyph horiz-adv-x="512"/><glyph unicode="" glyph-name="align-center" d="M810.667 674.133H213.334c-25.6 0-42.667 17.067-42.667 42.667s17.067 42.667 42.667 42.667h597.333c25.6 0 42.667-17.067 42.667-42.667s-17.067-42.667-42.667-42.667zm-128-170.666H341.334c-25.6 0-42.667 17.067-42.667 42.667s17.067 42.667 42.667 42.667h341.333c25.6 0 42.667-17.067 42.667-42.667s-17.067-42.667-42.667-42.667zm128-170.667H256c-25.6 0-42.667 17.067-42.667 42.667S230.4 418.134 256 418.134h554.667c25.6 0 42.667-17.067 42.667-42.667S836.267 332.8 810.667 332.8zm-85.334-170.667h-384c-25.6 0-42.667 17.067-42.667 42.667s17.067 42.667 42.667 42.667h384c25.6 0 42.667-17.067 42.667-42.667s-17.067-42.667-42.667-42.667z"/><glyph unicode="" glyph-name="align-justify" d="M810.667 674.133H213.334c-25.6 0-42.667 17.067-42.667 42.667s17.067 42.667 42.667 42.667h597.333c25.6 0 42.667-17.067 42.667-42.667s-17.067-42.667-42.667-42.667zm0-170.666H213.334c-25.6 0-42.667 17.067-42.667 42.667s17.067 42.667 42.667 42.667h597.333c25.6 0 42.667-17.067 42.667-42.667s-17.067-42.667-42.667-42.667zm0-170.667H213.334c-25.6 0-42.667 17.067-42.667 42.667s17.067 42.667 42.667 42.667h597.333c25.6 0 42.667-17.067 42.667-42.667S836.267 332.8 810.667 332.8zm0-170.667H213.334c-25.6 0-42.667 17.067-42.667 42.667s17.067 42.667 42.667 42.667h597.333c25.6 0 42.667-17.067 42.667-42.667s-17.067-42.667-42.667-42.667z"/><glyph unicode="" glyph-name="align-left" d="M810.667 674.133H213.334c-25.6 0-42.667 17.067-42.667 42.667s17.067 42.667 42.667 42.667h597.333c25.6 0 42.667-17.067 42.667-42.667s-17.067-42.667-42.667-42.667zM512 503.467H213.333c-25.6 0-42.667 17.067-42.667 42.667s17.067 42.667 42.667 42.667H512c25.6 0 42.667-17.067 42.667-42.667S537.6 503.467 512 503.467zM768 332.8H213.333c-25.6 0-42.667 17.067-42.667 42.667s17.067 42.667 42.667 42.667H768c25.6 0 42.667-17.067 42.667-42.667S793.6 332.8 768 332.8zM640 162.133H213.333c-25.6 0-42.667 17.067-42.667 42.667s17.067 42.667 42.667 42.667H640c25.6 0 42.667-17.067 42.667-42.667S665.6 162.133 640 162.133z"/><glyph unicode="" glyph-name="align-right" d="M810.667 674.133H213.334c-25.6 0-42.667 17.067-42.667 42.667s17.067 42.667 42.667 42.667h597.333c25.6 0 42.667-17.067 42.667-42.667s-17.067-42.667-42.667-42.667zm0-170.666H512c-25.6 0-42.667 17.067-42.667 42.667S486.4 588.801 512 588.801h298.667c25.6 0 42.667-17.067 42.667-42.667s-17.067-42.667-42.667-42.667zm0-170.667H256c-25.6 0-42.667 17.067-42.667 42.667S230.4 418.134 256 418.134h554.667c25.6 0 42.667-17.067 42.667-42.667S836.267 332.8 810.667 332.8zm0-170.667H384c-25.6 0-42.667 17.067-42.667 42.667S358.4 247.467 384 247.467h426.667c25.6 0 42.667-17.067 42.667-42.667s-17.067-42.667-42.667-42.667z"/><glyph unicode="" glyph-name="alt" d="M981.333 204.8H554.666c-17.067 0-29.867 8.533-38.4 21.333L315.733 588.8H42.666c-25.6 0-42.667 17.067-42.667 42.667s17.067 42.667 42.667 42.667h298.667c17.067 0 29.867-8.533 38.4-21.333l200.533-362.667h401.067c25.6 0 42.667-17.067 42.667-42.667s-17.067-42.667-42.667-42.667zm0 384H554.666c-25.6 0-42.667 17.067-42.667 42.667s17.067 42.667 42.667 42.667h426.667c25.6 0 42.667-17.067 42.667-42.667s-17.067-42.667-42.667-42.667z"/><glyph unicode="" glyph-name="arrow-right" d="M640 204.8c-12.8 0-21.333 4.267-29.867 12.8-17.067 17.067-17.067 42.667 0 59.733l213.333 213.333c17.067 17.067 42.667 17.067 59.733 0s17.067-42.667 0-59.733L669.866 217.6c-8.533-8.533-17.067-12.8-29.867-12.8zm213.333 213.333c-12.8 0-21.333 4.267-29.867 12.8L610.133 644.266c-17.067 17.067-17.067 42.667 0 59.733s42.667 17.067 59.733 0l213.333-213.333c17.067-17.067 17.067-42.667 0-59.733-8.533-8.533-17.067-12.8-29.867-12.8zm0 0H170.666c-25.6 0-42.667 17.067-42.667 42.667s17.067 42.667 42.667 42.667h682.667c25.6 0 42.667-17.067 42.667-42.667s-17.067-42.667-42.667-42.667z"/><glyph unicode="" glyph-name="arrow-up" d="M725.333 546.133c-12.8 0-21.333 4.267-29.867 12.8L482.133 772.266c-17.067 17.067-17.067 42.667 0 59.733s42.667 17.067 59.733 0l213.333-213.333c17.067-17.067 17.067-42.667 0-59.733-8.533-8.533-17.067-12.8-29.867-12.8zm-426.666 0c-12.8 0-21.333 4.267-29.867 12.8-17.067 17.067-17.067 42.667 0 59.733l213.333 213.333c17.067 17.067 42.667 17.067 59.733 0s17.067-42.667 0-59.733L328.533 558.933c-8.533-8.533-17.067-12.8-29.867-12.8zM512 76.8c-25.6 0-42.667 17.067-42.667 42.667v682.667c0 25.6 17.067 42.667 42.667 42.667s42.667-17.067 42.667-42.667V119.467c0-25.6-17.067-42.667-42.667-42.667z"/><glyph unicode="" glyph-name="artboard" d="M170.667 34.133C145.067 34.133 128 51.2 128 76.8v640c0 25.6 17.067 42.667 42.667 42.667h810.667c25.6 0 42.667-17.067 42.667-42.667s-17.067-42.667-42.667-42.667h-768V76.8c0-25.6-17.067-42.667-42.667-42.667zm682.666 128H42.666c-25.6 0-42.667 17.067-42.667 42.667s17.067 42.667 42.667 42.667h768V844.8c0 25.6 17.067 42.667 42.667 42.667S896 870.4 896 844.8v-640c0-25.6-17.067-42.667-42.667-42.667zm128-85.333c-8.533 0-17.067 4.267-25.6 8.533L17.066 768c-17.067 12.8-21.333 38.4-8.533 59.733 12.8 17.067 42.667 21.333 59.733 8.533l938.667-682.667c17.067-12.8 21.333-42.667 8.533-59.733-8.533-12.8-21.333-17.067-34.133-17.067z"/><glyph unicode="" glyph-name="at" d="M512-51.2c-281.6 0-512 230.4-512 512s230.4 512 512 512 512-230.4 512-512c0-25.6-17.067-42.667-42.667-42.667S938.666 435.2 938.666 460.8c0 234.667-192 426.667-426.667 426.667S85.332 695.467 85.332 460.8s192-426.667 426.667-426.667c115.2 0 221.867 42.667 302.933 123.733 17.067 17.067 42.667 17.067 59.733 0s17.067-42.667 0-59.733C776.532 0 648.532-51.2 511.998-51.2zm341.333 341.333c-93.867 0-170.667 76.8-170.667 170.667 0 25.6 17.067 42.667 42.667 42.667S768 486.4 768 460.8c0-46.933 38.4-85.333 85.333-85.333s85.333 38.4 85.333 85.333c0 25.6 17.067 42.667 42.667 42.667S1024 486.4 1024 460.8c0-93.867-76.8-170.667-170.667-170.667zM512 204.8c-140.8 0-256 115.2-256 256s115.2 256 256 256 256-115.2 256-256-115.2-256-256-256zm0 426.667c-93.867 0-170.667-76.8-170.667-170.667S418.133 290.133 512 290.133s170.667 76.8 170.667 170.667S605.867 631.467 512 631.467zm213.333-213.334c-25.6 0-42.667 17.067-42.667 42.667v213.333c0 25.6 17.067 42.667 42.667 42.667S768 699.733 768 674.133V460.8c0-25.6-17.067-42.667-42.667-42.667z"/><glyph unicode="" glyph-name="attachment" d="M320 140.8c-34.133 0-64 12.8-89.6 38.4-51.2 51.2-51.2 132.267 0 179.2 17.067 17.067 42.667 17.067 59.733 0s17.067-42.667 0-59.733c-17.067-17.067-17.067-42.667 0-59.733s42.667-17.067 59.733 0c17.067 17.067 42.667 17.067 59.733 0s17.067-42.667 0-59.733c-25.6-25.6-59.733-38.4-89.6-38.4zm541.867 264.533c-12.8 0-21.333 4.267-29.867 12.8-17.067 17.067-17.067 42.667 0 59.733 51.2 51.2 51.2 132.267 0 179.2-46.933 46.933-132.267 46.933-179.2 0-17.067-17.067-42.667-17.067-59.733 0s-17.067 42.667 0 59.733c38.4 42.667 89.6 64 149.333 64s110.933-21.333 149.333-59.733c81.067-81.067 81.067-217.6 0-302.933-8.533-8.533-21.333-12.8-29.867-12.8zM256 285.867c-12.8 0-21.333 4.267-29.867 12.8-17.067 17.067-17.067 42.667 0 59.733L588.8 721.067c17.067 17.067 42.667 17.067 59.733 0s17.067-42.667 0-59.733L285.866 298.667c-4.267-8.533-17.067-12.8-29.867-12.8zm243.2-243.2c-12.8 0-21.333 4.267-29.867 12.8-17.067 17.067-17.067 42.667 0 59.733L832 477.867c17.067 17.067 42.667 17.067 59.733 0s17.067-42.667 0-59.733L529.066 55.467c-8.533-8.533-17.067-12.8-29.867-12.8zM379.733 166.4c-12.8 0-21.333 4.267-29.867 12.8-17.067 17.067-17.067 42.667 0 59.733L712.533 601.6c17.067 17.067 42.667 17.067 59.733 0s17.067-42.667 0-59.733L409.599 179.2c-8.533-12.8-21.333-12.8-29.867-12.8zm-243.2 238.933c-12.8 0-21.333 4.267-29.867 12.8-17.067 17.067-17.067 42.667 0 59.733l482.133 482.133c17.067 17.067 42.667 17.067 59.733 0s17.067-42.667 0-59.733L166.399 418.133c-8.533-8.533-17.067-12.8-29.867-12.8zM320-29.867c-76.8 0-153.6 29.867-209.067 85.333S25.6 187.733 25.6 264.533s29.867 153.6 85.333 209.067c17.067 17.067 42.667 17.067 59.733 0s17.067-42.667 0-59.733c-38.4-38.4-64-93.867-64-149.333s21.333-110.933 64-149.333c81.067-81.067 217.6-81.067 302.933 0 17.067 17.067 42.667 17.067 59.733 0s17.067-42.667 0-59.733c-64-59.733-136.533-85.333-213.333-85.333z"/><glyph unicode="" glyph-name="backward" d="M896 162.133c-8.533 0-17.067 4.267-25.6 8.533l-384 256c-8.533 8.533-17.067 21.333-17.067 34.133s8.533 25.6 17.067 34.133l384 256c12.8 8.533 29.867 8.533 42.667 0 17.067-4.267 25.6-17.067 25.6-34.133v-512c0-17.067-8.533-29.867-21.333-38.4-8.533-4.267-12.8-4.267-21.333-4.267zM588.8 460.8l264.533-174.933v349.867L588.8 460.801zM512 162.133c-8.533 0-17.067 4.267-25.6 8.533l-384 256c-8.533 8.533-17.067 21.333-17.067 34.133s8.533 25.6 17.067 34.133l384 256c12.8 8.533 29.867 8.533 42.667 0 17.067-4.267 25.6-17.067 25.6-34.133v-512c0-17.067-8.533-29.867-21.333-38.4-8.533-4.267-12.8-4.267-21.333-4.267zM204.8 460.8l264.533-174.933v349.867L204.8 460.801zM128 162.133c-25.6 0-42.667 17.067-42.667 42.667v512c0 25.6 17.067 42.667 42.667 42.667s42.667-17.067 42.667-42.667v-512c0-25.6-17.067-42.667-42.667-42.667z"/><glyph unicode="" glyph-name="badge" d="M512 290.133c-187.733 0-341.333 153.6-341.333 341.333S324.267 972.799 512 972.799s341.333-153.6 341.333-341.333S699.733 290.133 512 290.133zm0 597.334c-140.8 0-256-115.2-256-256s115.2-256 256-256 256 115.2 256 256-115.2 256-256 256zM682.667-51.2c-8.533 0-12.8 0-17.067 4.267L512 29.867l-153.6-76.8c-12.8-8.533-29.867-4.267-42.667 0-8.533 8.533-17.067 25.6-17.067 38.4v384c0 25.6 17.067 42.667 42.667 42.667S384 401.067 384 375.467V59.734l110.933 55.467c12.8 4.267 25.6 4.267 38.4 0l110.933-55.467v315.733c0 25.6 17.067 42.667 42.667 42.667s42.667-17.067 42.667-42.667v-384c0-12.8-8.533-29.867-21.333-38.4-8.533 0-17.067-4.267-25.6-4.267z"/><glyph unicode="" glyph-name="bank-note" d="M981.333 119.467H42.666c-25.6 0-42.667 17.067-42.667 42.667v597.333c0 25.6 17.067 42.667 42.667 42.667h938.667c25.6 0 42.667-17.067 42.667-42.667V162.134c0-25.6-17.067-42.667-42.667-42.667zm-896 85.333h853.333v512H85.333v-512zM512 290.133c-93.867 0-170.667 76.8-170.667 170.667S418.133 631.467 512 631.467s170.667-76.8 170.667-170.667S605.867 290.133 512 290.133zm0 256c-46.933 0-85.333-38.4-85.333-85.333s38.4-85.333 85.333-85.333 85.333 38.4 85.333 85.333-38.4 85.333-85.333 85.333zm-426.667 0c-21.333 0-38.4 4.267-59.733 8.533-21.333 8.533-29.867 34.133-21.333 55.467s34.133 34.133 55.467 25.6c8.533-4.267 17.067-4.267 25.6-4.267 46.933 0 85.333 38.4 85.333 85.333 0 8.533 0 17.067-4.267 25.6-8.533 25.6 0 46.933 25.6 55.467 21.333 8.533 46.933 0 55.467-21.333C251.734 755.2 256 738.133 256 716.8c0-93.867-76.8-170.667-170.667-170.667zm853.334 0C844.8 546.133 768 622.933 768 716.8c0 21.333 4.267 38.4 8.533 59.733 8.533 21.333 34.133 34.133 55.467 25.6s34.133-34.133 25.6-55.467c-4.267-12.8-4.267-21.333-4.267-29.867 0-46.933 38.4-85.333 85.333-85.333 8.533 0 17.067 0 25.6 4.267 21.333 8.533 46.933-4.267 55.467-25.6s-4.267-46.933-25.6-55.467c-17.067-4.267-34.133-8.533-55.467-8.533zM204.8 119.467c-4.267 0-8.533 0-17.067 4.267-21.333 8.533-34.133 34.133-25.6 55.467 8.533 8.533 8.533 17.067 8.533 25.6 0 46.933-38.4 85.333-85.333 85.333-8.533 0-17.067 0-25.6-4.267-21.333-8.533-46.933 4.267-55.467 25.6s4.267 46.933 25.6 55.467c17.067 4.267 34.133 8.533 55.467 8.533C179.2 375.467 256 298.667 256 204.8c0-21.333-4.267-38.4-8.533-59.733-8.533-17.067-25.6-25.6-42.667-25.6zm614.4 0c-17.067 0-34.133 8.533-38.4 25.6-8.533 21.333-12.8 38.4-12.8 59.733 0 93.867 76.8 170.667 170.667 170.667 21.333 0 38.4-4.267 59.733-8.533 21.333-8.533 34.133-34.133 25.6-55.467s-34.133-34.133-55.467-25.6c-12.8 4.267-21.333 4.267-29.867 4.267-46.933 0-85.333-38.4-85.333-85.333 0-8.533 0-17.067 4.267-25.6 8.533-21.333-4.267-46.933-25.6-55.467-4.267-4.267-8.533-4.267-12.8-4.267z"/><glyph unicode="" glyph-name="bar-chart" d="M1024-51.2H213.333c-93.867 0-170.667 76.8-170.667 170.667v810.667c0 25.6 17.067 42.667 42.667 42.667S128 955.734 128 930.134V119.467c0-46.933 38.4-85.333 85.333-85.333H1024c25.6 0 42.667-17.067 42.667-42.667S1049.6-51.2 1024-51.2zM256 119.467c-25.6 0-42.667 17.067-42.667 42.667v213.333c0 25.6 17.067 42.667 42.667 42.667s42.667-17.067 42.667-42.667V162.134c0-25.6-17.067-42.667-42.667-42.667zm170.667 0c-25.6 0-42.667 17.067-42.667 42.667v384c0 25.6 17.067 42.667 42.667 42.667s42.667-17.067 42.667-42.667v-384c0-25.6-17.067-42.667-42.667-42.667zm170.666 0c-25.6 0-42.667 17.067-42.667 42.667v298.667c0 25.6 17.067 42.667 42.667 42.667S640 486.401 640 460.801V162.134c0-25.6-17.067-42.667-42.667-42.667zm170.667 0c-25.6 0-42.667 17.067-42.667 42.667v512c0 25.6 17.067 42.667 42.667 42.667s42.667-17.067 42.667-42.667v-512c0-25.6-17.067-42.667-42.667-42.667zm170.667 0c-25.6 0-42.667 17.067-42.667 42.667v256c0 25.6 17.067 42.667 42.667 42.667s42.667-17.067 42.667-42.667v-256c0-25.6-17.067-42.667-42.667-42.667z"/><glyph unicode="" glyph-name="basket-ball" d="M512-51.2c-281.6 0-512 230.4-512 512s230.4 512 512 512 512-230.4 512-512-230.4-512-512-512zm0 938.667c-234.667 0-426.667-192-426.667-426.667S277.333 34.133 512 34.133s426.667 192 426.667 426.667-192 426.667-426.667 426.667zM217.6 51.2c-12.8 0-25.6 4.267-34.133 17.067C170.667 85.334 174.934 115.2 192 128c93.867 68.267 149.333 196.267 149.333 332.8 0 85.333-21.333 162.133-59.733 230.4C256 733.867 226.133 768 192 793.6c-17.067 12.8-21.333 38.4-8.533 59.733 12.8 17.067 42.667 21.333 59.733 8.533 42.667-34.133 81.067-76.8 110.933-128 46.933-76.8 72.533-170.667 72.533-268.8 0-166.4-68.267-315.733-183.467-405.333-8.533-4.267-17.067-8.533-25.6-8.533zm588.8 0c-8.533 0-17.067 4.267-25.6 8.533C665.6 145.066 597.333 294.4 597.333 460.8c0 102.4 25.6 196.267 72.533 277.333 29.867 46.933 64 89.6 106.667 123.733 17.067 12.8 46.933 8.533 59.733-8.533s8.533-46.933-8.533-59.733c-34.133-25.6-64-59.733-85.333-98.133C704 627.2 682.667 546.134 682.667 460.8c0-136.533 55.467-264.533 149.333-332.8 17.067-12.8 21.333-42.667 8.533-59.733C832 59.734 819.2 51.2 806.4 51.2zM554.667 418.133c-64 0-119.467 0-170.667 4.267-136.533 4.267-243.2 17.067-332.8 29.867-21.333 4.267-38.4 25.6-38.4 46.933s25.6 38.4 46.933 38.4C145.066 524.8 256 512 384 507.733c51.2 0 106.667-4.267 170.667-4.267H640c119.467 0 234.667 8.533 337.067 17.067 21.333 4.267 42.667-12.8 46.933-38.4 4.267-21.333-12.8-42.667-38.4-46.933-102.4-8.533-221.867-17.067-345.6-17.067h-85.333z"/><glyph unicode="" glyph-name="battery-high" d="M640 759.467H384c-25.6 0-42.667 17.067-42.667 42.667v128c0 25.6 17.067 42.667 42.667 42.667h256c25.6 0 42.667-17.067 42.667-42.667v-128c0-25.6-17.067-42.667-42.667-42.667zM426.667 844.8h170.667v42.667H426.667V844.8zM768-51.2H256c-25.6 0-42.667 17.067-42.667 42.667v810.667c0 25.6 17.067 42.667 42.667 42.667h512c25.6 0 42.667-17.067 42.667-42.667V-8.533c0-25.6-17.067-42.667-42.667-42.667zM298.667 34.133h426.667v725.333H298.667V34.133zM256 503.467c-21.333 0-38.4 12.8-42.667 34.133-4.267 25.6 12.8 46.933 34.133 51.2l512 85.333c21.333 4.267 46.933-12.8 51.2-34.133s-12.8-46.933-34.133-51.2l-512-85.333H256z"/><glyph unicode="" glyph-name="battery-low" d="M640 759.467H384c-25.6 0-42.667 17.067-42.667 42.667v128c0 25.6 17.067 42.667 42.667 42.667h256c25.6 0 42.667-17.067 42.667-42.667v-128c0-25.6-17.067-42.667-42.667-42.667zM426.667 844.8h170.667v42.667H426.667V844.8zM768-51.2H256c-25.6 0-42.667 17.067-42.667 42.667v810.667c0 25.6 17.067 42.667 42.667 42.667h512c25.6 0 42.667-17.067 42.667-42.667V-8.533c0-25.6-17.067-42.667-42.667-42.667zM298.667 34.133h426.667v725.333H298.667V34.133zM256 76.8c-21.333 0-38.4 12.8-42.667 34.133s12.8 46.933 34.133 51.2l512 85.333c21.333 4.267 46.933-12.8 51.2-34.133s-12.8-46.933-34.133-51.2l-512-85.333H256z"/><glyph unicode="" glyph-name="bed" d="M981.333 418.133H384c-25.6 0-42.667 17.067-42.667 42.667v42.667c0 93.867 76.8 170.667 170.667 170.667h341.333c93.867 0 170.667-76.8 170.667-170.667V460.8c0-25.6-17.067-42.667-42.667-42.667zm-554.666 85.334h512c0 46.933-38.4 85.333-85.333 85.333H512.001c-46.933 0-85.333-38.4-85.333-85.333zm554.666-256H42.666c-25.6 0-42.667 17.067-42.667 42.667v512c0 25.6 17.067 42.667 42.667 42.667s42.667-17.067 42.667-42.667V332.801h853.333v128c0 25.6 17.067 42.667 42.667 42.667S1024 486.401 1024 460.801V290.134c0-25.6-17.067-42.667-42.667-42.667zM810.667 418.133H85.334c-25.6 0-42.667 17.067-42.667 42.667s17.067 42.667 42.667 42.667h725.333c25.6 0 42.667-17.067 42.667-42.667s-17.067-42.667-42.667-42.667zm-426.667 0H42.667C17.067 418.133 0 435.2 0 460.8v42.667c0 93.867 76.8 170.667 170.667 170.667H256c93.867 0 170.667-76.8 170.667-170.667V460.8c0-25.6-17.067-42.667-42.667-42.667zM85.333 503.467h256c0 46.933-38.4 85.333-85.333 85.333h-85.333c-46.933 0-85.333-38.4-85.333-85.333zm896-426.667H42.666c-25.6 0-42.667 17.067-42.667 42.667v170.667c0 25.6 17.067 42.667 42.667 42.667h938.667c25.6 0 42.667-17.067 42.667-42.667V119.467c0-25.6-17.067-42.667-42.667-42.667zm-896 85.333h853.333v85.333H85.333v-85.333z"/><glyph unicode="" glyph-name="bell" d="M768 503.467c-25.6 0-42.667 17.067-42.667 42.667 0 119.467-93.867 213.333-213.333 213.333S298.667 665.6 298.667 546.134c0-25.6-17.067-42.667-42.667-42.667s-42.667 17.067-42.667 42.667c0 166.4 132.267 298.667 298.667 298.667s298.667-132.267 298.667-298.667c0-25.6-17.067-42.667-42.667-42.667zm128-384c-93.867 0-170.667 110.933-170.667 256 0 25.6 17.067 42.667 42.667 42.667s42.667-17.067 42.667-42.667C810.667 277.334 857.6 204.8 896 204.8c25.6 0 42.667-17.067 42.667-42.667S921.6 119.466 896 119.466zm-768 0c-25.6 0-42.667 17.067-42.667 42.667S102.4 204.801 128 204.801c38.4 0 85.333 72.533 85.333 170.667 0 25.6 17.067 42.667 42.667 42.667s42.667-17.067 42.667-42.667c0-145.067-76.8-256-170.667-256zm768 0H128c-25.6 0-42.667 17.067-42.667 42.667S102.4 204.801 128 204.801h768c25.6 0 42.667-17.067 42.667-42.667S921.6 119.467 896 119.467zM256 332.8c-25.6 0-42.667 17.067-42.667 42.667v170.667c0 25.6 17.067 42.667 42.667 42.667s42.667-17.067 42.667-42.667V375.467c0-25.6-17.067-42.667-42.667-42.667zm512 0c-25.6 0-42.667 17.067-42.667 42.667v170.667c0 25.6 17.067 42.667 42.667 42.667s42.667-17.067 42.667-42.667V375.467c0-25.6-17.067-42.667-42.667-42.667zm-256-384c-93.867 0-170.667 76.8-170.667 170.667 0 21.333 4.267 38.4 8.533 59.733 8.533 21.333 34.133 34.133 55.467 25.6s34.133-34.133 25.6-55.467c-4.267-12.8-4.267-21.333-4.267-29.867 0-46.933 38.4-85.333 85.333-85.333s85.333 38.4 85.333 85.333c0 8.533 0 17.067-4.267 25.6-8.533 21.333 4.267 46.933 25.6 55.467s46.933-4.267 55.467-25.6c8.533-17.067 8.533-38.4 8.533-59.733 0-89.6-76.8-166.4-170.667-166.4zm0 810.667c-25.6 0-42.667 17.067-42.667 42.667v128c0 25.6 17.067 42.667 42.667 42.667s42.667-17.067 42.667-42.667v-128c0-25.6-17.067-42.667-42.667-42.667z"/><glyph unicode="" glyph-name="bin" d="M384 844.8h-85.333c0 72.533 55.467 128 128 128v-85.333c-25.6 0-42.667-17.067-42.667-42.667zm341.333 0H640c0 25.6-17.067 42.667-42.667 42.667V972.8c72.533 0 128-55.467 128-128zm0-128H298.666v128h85.333v-42.667h256V844.8h85.333zm-298.666 256h170.667v-85.333H426.667V972.8zM896 716.8H128c-25.6 0-42.667 17.067-42.667 42.667S102.4 802.134 128 802.134h768c25.6 0 42.667-17.067 42.667-42.667S921.6 716.8 896 716.8zm-85.333-768H213.334c-25.6 0-42.667 17.067-42.667 42.667V588.8c0 25.6 17.067 42.667 42.667 42.667h597.333c25.6 0 42.667-17.067 42.667-42.667V-8.533c0-25.6-17.067-42.667-42.667-42.667zM256 34.133h512v512H256v-512zm170.667 85.334c-25.6 0-42.667 17.067-42.667 42.667v256c0 25.6 17.067 42.667 42.667 42.667s42.667-17.067 42.667-42.667v-256c0-25.6-17.067-42.667-42.667-42.667zm170.666 0c-25.6 0-42.667 17.067-42.667 42.667v256c0 25.6 17.067 42.667 42.667 42.667S640 443.734 640 418.134v-256c0-25.6-17.067-42.667-42.667-42.667z"/><glyph unicode="" glyph-name="block" d="M512-51.2c-281.6 0-512 230.4-512 512s230.4 512 512 512 512-230.4 512-512-230.4-512-512-512zm0 938.667c-234.667 0-426.667-192-426.667-426.667S277.333 34.133 512 34.133s426.667 192 426.667 426.667-192 426.667-426.667 426.667zM844.8 85.333c-12.8 0-21.333 4.267-29.867 12.8l-665.6 665.6c-17.067 17.067-17.067 42.667 0 59.733s42.667 17.067 59.733 0l665.6-665.6c17.067-17.067 17.067-42.667 0-59.733-8.533-8.533-21.333-12.8-29.867-12.8z"/><glyph unicode="" glyph-name="bluetooth" d="M512 418.133c-4.267 0-12.8 0-17.067 4.267-17.067 4.267-25.6 21.333-25.6 38.4v426.667c0 17.067 8.533 34.133 25.6 38.4 17.067 8.533 34.133 4.267 46.933-8.533l213.333-213.333c17.067-17.067 17.067-42.667 0-59.733L541.866 430.935c-8.533-8.533-17.067-12.8-29.867-12.8zm42.667 366.934V563.2L665.6 674.133 554.667 785.066zM512-8.533c-4.267 0-12.8 0-17.067 4.267-17.067 4.267-25.6 21.333-25.6 38.4v426.667c0 17.067 8.533 34.133 25.6 38.4 17.067 8.533 34.133 4.267 46.933-8.533l213.333-213.333c17.067-17.067 17.067-42.667 0-59.733L541.866 4.269c-8.533-8.533-17.067-12.8-29.867-12.8zM554.667 358.4V136.533L665.6 247.466 554.667 358.399zM512 418.133c-12.8 0-21.333 4.267-29.867 12.8L268.8 644.266c-17.067 17.067-17.067 42.667 0 59.733s42.667 17.067 59.733 0l213.333-213.333c17.067-17.067 17.067-42.667 0-59.733-8.533-8.533-17.067-12.8-29.867-12.8zM298.667 204.8c-12.8 0-21.333 4.267-29.867 12.8-17.067 17.067-17.067 42.667 0 59.733l213.333 213.333c17.067 17.067 42.667 17.067 59.733 0s17.067-42.667 0-59.733L328.533 217.6c-8.533-8.533-17.067-12.8-29.867-12.8z"/><glyph unicode="" glyph-name="book" d="M512-51.2c-8.533 0-17.067 4.267-21.333 8.533-4.267 0-128 76.8-448 76.8C17.067 34.133 0 51.2 0 76.8v853.333c0 25.6 17.067 42.667 42.667 42.667 273.067 0 418.133-55.467 469.333-81.067 51.2 25.6 196.267 81.067 469.333 81.067 25.6 0 42.667-17.067 42.667-42.667V76.8c0-25.6-17.067-42.667-42.667-42.667-320 0-443.733-76.8-448-76.8-4.267-4.267-12.8-8.533-21.333-8.533zM85.333 119.467C332.8 115.2 460.8 64 512 38.4c51.2 25.6 179.2 72.533 426.667 81.067v768c-290.133-8.533-401.067-76.8-405.333-76.8-12.8-8.533-34.133-8.533-46.933 0 0 0-115.2 72.533-401.067 76.8v-768zM512-51.2c-25.6 0-42.667 17.067-42.667 42.667V844.8c0 25.6 17.067 42.667 42.667 42.667s42.667-17.067 42.667-42.667V-8.533c0-25.6-17.067-42.667-42.667-42.667zM42.667 34.133C17.067 34.133 0 51.2 0 76.8v682.667c0 25.6 17.067 42.667 42.667 42.667s42.667-17.067 42.667-42.667V76.8c0-25.6-17.067-42.667-42.667-42.667zM512-51.2c-25.6 0-42.667 17.067-42.667 42.667v682.667c0 25.6 17.067 42.667 42.667 42.667s42.667-17.067 42.667-42.667V-8.533c0-25.6-17.067-42.667-42.667-42.667zM42.667 34.133C17.067 34.133 0 51.2 0 76.8v554.667c0 25.6 17.067 42.667 42.667 42.667s42.667-17.067 42.667-42.667V76.8c0-25.6-17.067-42.667-42.667-42.667zM512-51.2c-25.6 0-42.667 17.067-42.667 42.667v554.667c0 25.6 17.067 42.667 42.667 42.667s42.667-17.067 42.667-42.667V-8.533c0-25.6-17.067-42.667-42.667-42.667zM42.667 34.133C17.067 34.133 0 51.2 0 76.8v426.667c0 25.6 17.067 42.667 42.667 42.667s42.667-17.067 42.667-42.667V76.8c0-25.6-17.067-42.667-42.667-42.667zM512-51.2c-25.6 0-42.667 17.067-42.667 42.667v426.667c0 25.6 17.067 42.667 42.667 42.667s42.667-17.067 42.667-42.667V-8.533c0-25.6-17.067-42.667-42.667-42.667zM42.667 34.133C17.067 34.133 0 51.2 0 76.8v298.667c0 25.6 17.067 42.667 42.667 42.667s42.667-17.067 42.667-42.667V76.8c0-25.6-17.067-42.667-42.667-42.667zM512-51.2c-25.6 0-42.667 17.067-42.667 42.667v298.667c0 25.6 17.067 42.667 42.667 42.667s42.667-17.067 42.667-42.667V-8.533c0-25.6-17.067-42.667-42.667-42.667zM42.667 34.133C17.067 34.133 0 51.2 0 76.8v170.667c0 25.6 17.067 42.667 42.667 42.667s42.667-17.067 42.667-42.667V76.8c0-25.6-17.067-42.667-42.667-42.667zM512-51.2c-25.6 0-42.667 17.067-42.667 42.667v170.667c0 25.6 17.067 42.667 42.667 42.667s42.667-17.067 42.667-42.667V-8.533c0-25.6-17.067-42.667-42.667-42.667z"/><glyph unicode="" glyph-name="box" d="M981.333 34.133H42.666C17.066 34.133-.001 51.2-.001 76.8v768c0 25.6 17.067 42.667 42.667 42.667h938.667c25.6 0 42.667-17.067 42.667-42.667v-768c0-25.6-17.067-42.667-42.667-42.667zm-896 85.334h853.333v682.667H85.333V119.467zm896 512H42.666c-25.6 0-42.667 17.067-42.667 42.667s17.067 42.667 42.667 42.667h938.667c25.6 0 42.667-17.067 42.667-42.667s-17.067-42.667-42.667-42.667zM640 460.8H384c-25.6 0-42.667 17.067-42.667 42.667S358.4 546.134 384 546.134h256c25.6 0 42.667-17.067 42.667-42.667S665.6 460.8 640 460.8z"/><glyph unicode="" glyph-name="brightness" d="M512 759.467c-25.6 0-42.667 17.067-42.667 42.667v128c0 25.6 17.067 42.667 42.667 42.667s42.667-17.067 42.667-42.667v-128c0-25.6-17.067-42.667-42.667-42.667zM512-51.2c-25.6 0-42.667 17.067-42.667 42.667v128c0 25.6 17.067 42.667 42.667 42.667s42.667-17.067 42.667-42.667v-128c0-25.6-17.067-42.667-42.667-42.667zm469.333 469.333h-128c-25.6 0-42.667 17.067-42.667 42.667s17.067 42.667 42.667 42.667h128c25.6 0 42.667-17.067 42.667-42.667s-17.067-42.667-42.667-42.667zm-810.666 0h-128C17.067 418.133 0 435.2 0 460.8s17.067 42.667 42.667 42.667h128c25.6 0 42.667-17.067 42.667-42.667s-17.067-42.667-42.667-42.667zm584.533 243.2c-12.8 0-21.333 4.267-29.867 12.8-17.067 17.067-17.067 42.667 0 59.733l89.6 89.6c17.067 17.067 42.667 17.067 59.733 0s17.067-42.667 0-59.733l-89.6-89.6c-8.533-8.533-21.333-12.8-29.867-12.8zm-576-576c-12.8 0-21.333 4.267-29.867 12.8-17.067 17.067-17.067 42.667 0 59.733l89.6 89.6c17.067 17.067 42.667 17.067 59.733 0s17.067-42.667 0-59.733l-89.6-89.6c-8.533-8.533-17.067-12.8-29.867-12.8zm665.6 0c-12.8 0-21.333 4.267-29.867 12.8l-89.6 89.6c-17.067 17.067-17.067 42.667 0 59.733s42.667 17.067 59.733 0l89.6-89.6c17.067-17.067 17.067-42.667 0-59.733-8.533-8.533-21.333-12.8-29.867-12.8zm-576 576c-12.8 0-21.333 4.267-29.867 12.8l-89.6 89.6c-17.067 17.067-17.067 42.667 0 59.733s42.667 17.067 59.733 0l89.6-89.6c17.067-17.067 17.067-42.667 0-59.733-4.267-8.533-17.067-12.8-29.867-12.8zM512 247.467c-119.467 0-213.333 93.867-213.333 213.333S392.534 674.133 512 674.133 725.333 580.266 725.333 460.8 631.466 247.467 512 247.467zm0 341.333c-72.533 0-128-55.467-128-128s55.467-128 128-128 128 55.467 128 128-55.467 128-128 128z"/><glyph unicode="" glyph-name="brush" d="M426.667 204.8c-25.6 0-42.667 17.067-42.667 42.667 0 12.8-4.267 21.333-4.267 29.867-8.533 21.333-25.6 38.4-46.933 46.933-59.733 25.6-119.467-17.067-119.467-76.8 0-25.6-17.067-42.667-42.667-42.667s-42.667 17.067-42.667 42.667c0 93.867 76.8 170.667 170.667 170.667 21.333 0 42.667-4.267 64-12.8 42.667-17.067 76.8-51.2 93.867-93.867 8.533-17.067 12.8-42.667 12.8-64 0-25.6-21.333-42.667-42.667-42.667zm-384-256C17.067-51.2 0-34.133 0-8.533s17.067 42.667 42.667 42.667C226.134 34.134 384 132.267 384 247.467c0 25.6 17.067 42.667 42.667 42.667s42.667-17.067 42.667-42.667c0-166.4-192-298.667-426.667-298.667zm0 0C17.067-51.2 0-34.133 0-8.533s17.067 42.667 42.667 42.667C76.8 34.134 128 115.201 128 247.467c0 25.6 17.067 42.667 42.667 42.667s42.667-17.067 42.667-42.667C213.334 76.8 140.801-51.2 42.667-51.2zm375.466 302.933H409.6c-12.8 4.267-25.6 12.8-29.867 25.6-8.533 21.333-25.6 38.4-46.933 46.933-12.8 4.267-21.333 17.067-25.6 29.867s0 29.867 8.533 38.4l477.867 537.6c55.467 55.467 140.8 51.2 187.733 0C1011.2 908.8 1024 874.666 1024 840.533s-12.8-68.267-38.4-93.867L443.733 264.533c-8.533-8.533-17.067-12.8-25.6-12.8zm-4.266 123.734l12.8-12.8 499.2 443.733c8.533 8.533 12.8 21.333 12.8 34.133s-4.267 25.6-12.8 34.133c-21.333 21.333-51.2 21.333-68.267 0l-443.733-499.2z"/><glyph unicode="" glyph-name="bucket" d="M725.333 34.133H128c-21.333 0-38.4 17.067-42.667 38.4L0 840.533c0 12.8 4.267 25.6 8.533 34.133 8.533 8.533 21.333 12.8 34.133 12.8h768c12.8 0 25.6-4.267 29.867-12.8 8.533-8.533 12.8-21.333 12.8-34.133L768 72.533c-4.267-21.333-21.333-38.4-42.667-38.4zM166.4 119.467h520.533l76.8 682.667H89.6l76.8-682.667zM951.467 307.2c-38.4 0-98.133 17.067-209.067 76.8-72.533 38.4-162.133 93.867-268.8 162.133-42.667 29.867-72.533 46.933-72.533 46.933-17.067 17.067-21.333 42.667-8.533 64s38.4 25.6 59.733 12.8c0 0 25.6-17.067 68.267-46.933 38.4-25.6 157.867-102.4 264.533-157.867 85.333-46.933 128-59.733 149.333-64-12.8 38.4-64 102.4-174.933 187.733-17.067 12.8-21.333 42.667-8.533 59.733s42.667 21.333 59.733 8.533C955.734 546.132 1024 456.532 1024 383.998c0-25.6-12.8-46.933-29.867-59.733-12.8-12.8-25.6-17.067-42.667-17.067zM512 631.467c0-47.128-38.205-85.333-85.333-85.333s-85.333 38.205-85.333 85.333 38.205 85.333 85.333 85.333S512 678.595 512 631.467zM426.667 524.8C366.934 524.8 320 571.733 320 631.467s46.933 106.667 106.667 106.667 106.667-46.933 106.667-106.667S486.401 524.8 426.667 524.8zm0 170.667c-34.133 0-64-29.867-64-64s29.867-64 64-64 64 29.867 64 64-29.867 64-64 64z"/><glyph unicode="" glyph-name="building" d="M554.667-51.2h-512C17.067-51.2 0-34.133 0-8.533v938.667c0 25.6 17.067 42.667 42.667 42.667h512c25.6 0 42.667-17.067 42.667-42.667V-8.533c0-25.6-17.067-42.667-42.667-42.667zM85.333 34.133H512v853.333H85.333V34.133zm896-85.333H554.666c-25.6 0-42.667 17.067-42.667 42.667v682.667c0 25.6 17.067 42.667 42.667 42.667h426.667c25.6 0 42.667-17.067 42.667-42.667V-8.533c0-25.6-17.067-42.667-42.667-42.667zm-384 85.333h341.333v597.333H597.333V34.133zm-384 256c-25.6 0-42.667 17.067-42.667 42.667v426.667c0 25.6 17.067 42.667 42.667 42.667S256 785.067 256 759.467V332.8c0-25.6-17.067-42.667-42.667-42.667zm170.667 0c-25.6 0-42.667 17.067-42.667 42.667v426.667c0 25.6 17.067 42.667 42.667 42.667s42.667-17.067 42.667-42.667V332.8c0-25.6-17.067-42.667-42.667-42.667zM853.333-51.2H682.666c-25.6 0-42.667 17.067-42.667 42.667v170.667c0 25.6 17.067 42.667 42.667 42.667h170.667c25.6 0 42.667-17.067 42.667-42.667V-8.533c0-25.6-17.067-42.667-42.667-42.667zm-128 85.333h85.333v85.333h-85.333V34.133zM384-51.2H213.333c-25.6 0-42.667 17.067-42.667 42.667v170.667c0 25.6 17.067 42.667 42.667 42.667H384c25.6 0 42.667-17.067 42.667-42.667V-8.533c0-25.6-17.067-42.667-42.667-42.667zM256 34.133h85.333v85.333H256V34.133zm597.333 256H682.666c-25.6 0-42.667 17.067-42.667 42.667s17.067 42.667 42.667 42.667h170.667c25.6 0 42.667-17.067 42.667-42.667s-17.067-42.667-42.667-42.667zm0 170.667H682.666c-25.6 0-42.667 17.067-42.667 42.667s17.067 42.667 42.667 42.667h170.667c25.6 0 42.667-17.067 42.667-42.667S878.933 460.8 853.333 460.8z"/><glyph unicode="" glyph-name="calendar" d="M896-8.533H128c-72.533 0-128 55.467-128 128V716.8c0 72.533 55.467 128 128 128h768c72.533 0 128-55.467 128-128V119.467c0-72.533-55.467-128-128-128zm-768 768c-25.6 0-42.667-17.067-42.667-42.667V119.467C85.333 93.867 102.4 76.8 128 76.8h768c25.6 0 42.667 17.067 42.667 42.667V716.8c0 25.6-17.067 42.667-42.667 42.667H128zm128-85.334c-25.6 0-42.667 17.067-42.667 42.667v170.667c0 25.6 17.067 42.667 42.667 42.667s42.667-17.067 42.667-42.667V716.8c0-25.6-17.067-42.667-42.667-42.667zm512 0c-25.6 0-42.667 17.067-42.667 42.667v170.667c0 25.6 17.067 42.667 42.667 42.667s42.667-17.067 42.667-42.667V716.8c0-25.6-17.067-42.667-42.667-42.667zm213.333-170.666H42.666c-25.6 0-42.667 17.067-42.667 42.667s17.067 42.667 42.667 42.667h938.667c25.6 0 42.667-17.067 42.667-42.667s-17.067-42.667-42.667-42.667zm-682.666-128c0-23.564-19.103-42.667-42.667-42.667s-42.667 19.103-42.667 42.667 19.103 42.667 42.667 42.667 42.667-19.103 42.667-42.667zm-42.667-64c-34.133 0-64 29.867-64 64s29.867 64 64 64 64-29.867 64-64-29.867-64-64-64zm0 85.333c-12.8 0-21.333-8.533-21.333-21.333S243.2 354.134 256 354.134s21.333 8.533 21.333 21.333S268.8 396.8 256 396.8zm42.667-192c0-23.564-19.103-42.667-42.667-42.667s-42.667 19.103-42.667 42.667 19.103 42.667 42.667 42.667 42.667-19.103 42.667-42.667zM256 140.8c-34.133 0-64 29.867-64 64s29.867 64 64 64 64-29.867 64-64-29.867-64-64-64zm0 85.333c-12.8 0-21.333-8.533-21.333-21.333S243.2 183.467 256 183.467 277.333 192 277.333 204.8 268.8 226.133 256 226.133zM469.333 204.8c0-23.564-19.103-42.667-42.667-42.667s-42.667 19.103-42.667 42.667 19.103 42.667 42.667 42.667 42.667-19.103 42.667-42.667zm-42.666-64c-34.133 0-64 29.867-64 64s29.867 64 64 64 64-29.867 64-64-29.867-64-64-64zm0 85.333c-12.8 0-21.333-8.533-21.333-21.333s8.533-21.333 21.333-21.333S448 192 448 204.8s-8.533 21.333-21.333 21.333zm42.666 149.334c0-23.564-19.103-42.667-42.667-42.667s-42.667 19.103-42.667 42.667 19.103 42.667 42.667 42.667 42.667-19.103 42.667-42.667zm-42.666-64c-34.133 0-64 29.867-64 64s29.867 64 64 64 64-29.867 64-64-29.867-64-64-64zm0 85.333c-12.8 0-21.333-8.533-21.333-21.333s8.533-21.333 21.333-21.333S448 362.667 448 375.467s-8.533 21.333-21.333 21.333zM640 375.467c0-23.564-19.103-42.667-42.667-42.667s-42.667 19.103-42.667 42.667 19.103 42.667 42.667 42.667S640 399.031 640 375.467zm-42.667-64c-34.133 0-64 29.867-64 64s29.867 64 64 64 64-29.867 64-64-29.867-64-64-64zm0 85.333c-12.8 0-21.333-8.533-21.333-21.333s8.533-21.333 21.333-21.333 21.333 8.533 21.333 21.333-8.533 21.333-21.333 21.333zM640 204.8c0-23.564-19.103-42.667-42.667-42.667s-42.667 19.103-42.667 42.667 19.103 42.667 42.667 42.667S640 228.364 640 204.8zm-42.667-64c-34.133 0-64 29.867-64 64s29.867 64 64 64 64-29.867 64-64-29.867-64-64-64zm0 85.333c-12.8 0-21.333-8.533-21.333-21.333s8.533-21.333 21.333-21.333S618.666 192 618.666 204.8s-8.533 21.333-21.333 21.333zM810.667 204.8c0-23.564-19.103-42.667-42.667-42.667s-42.667 19.103-42.667 42.667 19.103 42.667 42.667 42.667 42.667-19.103 42.667-42.667zM768 140.8c-34.133 0-64 29.867-64 64s29.867 64 64 64 64-29.867 64-64-29.867-64-64-64zm0 85.333c-12.8 0-21.333-8.533-21.333-21.333S755.2 183.467 768 183.467 789.333 192 789.333 204.8 780.8 226.133 768 226.133zm42.667 149.334c0-23.564-19.103-42.667-42.667-42.667s-42.667 19.103-42.667 42.667 19.103 42.667 42.667 42.667 42.667-19.103 42.667-42.667zm-42.667-64c-34.133 0-64 29.867-64 64s29.867 64 64 64 64-29.867 64-64-29.867-64-64-64zm0 85.333c-12.8 0-21.333-8.533-21.333-21.333S755.2 354.134 768 354.134s21.333 8.533 21.333 21.333S780.8 396.8 768 396.8z"/><glyph unicode="" glyph-name="camera" d="M878.933 34.133H145.066c-81.067 0-145.067 64-145.067 145.067v392.533c0 81.067 64 145.067 145.067 145.067 25.6 0 46.933 12.8 59.733 34.133l25.6 55.467c25.6 51.2 76.8 81.067 132.267 81.067h298.667C716.8 887.467 768 857.6 793.6 806.4l25.6-55.467C832 729.6 853.333 716.8 874.667 716.8 960 716.8 1024 652.8 1024 571.733V183.466c0-85.333-64-149.333-145.067-149.333zm-516.266 768c-21.333 0-42.667-12.8-55.467-34.133l-25.6-55.467c-25.6-51.2-76.8-81.067-132.267-81.067-38.4 0-64-25.6-64-59.733V183.466c0-38.4 25.6-64 59.733-64h729.6c34.133 0 59.733 25.6 59.733 59.733v392.533c4.267 34.133-21.333 59.733-55.467 59.733-59.733 0-106.667 29.867-132.267 81.067l-25.6 55.467c-17.067 21.333-38.4 34.133-59.733 34.133H362.665zM512 204.8c-119.467 0-213.333 93.867-213.333 213.333S392.534 631.466 512 631.466s213.333-93.867 213.333-213.333S631.466 204.8 512 204.8zm0 341.333c-72.533 0-128-55.467-128-128s55.467-128 128-128 128 55.467 128 128-55.467 128-128 128z"/><glyph unicode="" glyph-name="car" d="M981.333 162.133H42.666c-25.6 0-42.667 17.067-42.667 42.667v298.667c0 72.533 55.467 128 128 128h768c72.533 0 128-55.467 128-128V204.8c0-25.6-17.067-42.667-42.667-42.667zm-896 85.334h853.333v256c0 25.6-17.067 42.667-42.667 42.667h-768c-25.6 0-42.667-17.067-42.667-42.667v-256zM896 546.133H128c-12.8 0-25.6 4.267-34.133 17.067-8.533 8.533-8.533 25.6-8.533 38.4l85.333 298.667c8.533 17.067 25.6 29.867 42.667 29.867h597.333c17.067 0 34.133-12.8 42.667-29.867L938.667 601.6c0-12.8 0-29.867-8.533-38.4-8.533-12.8-21.333-17.067-34.133-17.067zm-712.533 85.334h652.8L776.534 844.8H247.467l-64-213.333zM256-8.533H42.667C17.067-8.533 0 8.534 0 34.134v170.667c0 25.6 17.067 42.667 42.667 42.667H256c25.6 0 42.667-17.067 42.667-42.667V34.134c0-25.6-17.067-42.667-42.667-42.667zM85.333 76.8h128v85.333h-128V76.8zm896-85.333H768c-25.6 0-42.667 17.067-42.667 42.667v170.667c0 25.6 17.067 42.667 42.667 42.667h213.333c25.6 0 42.667-17.067 42.667-42.667V34.134c0-25.6-17.067-42.667-42.667-42.667zM810.667 76.8h128v85.333h-128V76.8zM294.4 285.867h-55.466c-64 4.267-110.933 51.2-110.933 110.933s46.933 106.667 106.667 106.667c59.733 0 149.333-89.6 149.333-149.333 0-21.333-8.533-68.267-89.6-68.267zm-59.733 132.266c-12.8 0-21.333-8.533-21.333-21.333s8.533-21.333 21.333-21.333h55.467c-17.067 17.067-42.667 38.4-55.467 42.667zM729.6 285.867c-81.067 0-89.6 46.933-89.6 68.267 0 59.733 89.6 149.333 149.333 149.333S896 456.534 896 396.8s-46.933-106.667-106.667-106.667H768c-12.8 0-25.6-4.267-38.4-4.267zm59.733 132.266c-12.8-4.267-38.4-25.6-51.2-46.933H793.6c12.8 0 21.333 8.533 21.333 21.333s-12.8 25.6-25.6 25.6zM106.667 588.8C46.934 588.8 0 635.733 0 695.467s46.933 106.667 106.667 106.667c42.667 0 81.067-25.6 98.133-64 8.533-21.333 0-46.933-21.333-55.467-4.267-4.267-8.533-4.267-12.8-4.267 0-4.267 4.267-4.267 8.533-8.533 12.8-21.333 8.533-46.933-8.533-59.733s-42.667-21.333-64-21.333zm0 128c-12.8 0-21.333-8.533-21.333-21.333s8.533-21.333 21.333-21.333c4.267 0 8.533 0 12.8 4.267 8.533 4.267 12.8 8.533 21.333 8.533-8.533 4.267-12.8 8.533-12.8 17.067-4.267 8.533-12.8 12.8-21.333 12.8zm810.666-128c-21.333 0-46.933 8.533-64 21.333S832 652.8 844.8 669.866c4.267 4.267 8.533 4.267 8.533 8.533-4.267 0-8.533 0-12.8 4.267-21.333 8.533-34.133 34.133-21.333 55.467 17.067 38.4 55.467 64 98.133 64 59.733 0 106.667-46.933 106.667-106.667s-46.933-106.667-106.667-106.667zM883.2 686.933c8.533 0 17.067-4.267 21.333-8.533s8.533-4.267 12.8-4.267c12.8 0 21.333 8.533 21.333 21.333s-8.533 21.333-21.333 21.333c-8.533 0-17.067-4.267-21.333-12.8 0-8.533-4.267-12.8-12.8-17.067z"/><glyph unicode="" glyph-name="card" d="M981.333 119.467H42.666c-25.6 0-42.667 17.067-42.667 42.667v597.333c0 25.6 17.067 42.667 42.667 42.667h938.667c25.6 0 42.667-17.067 42.667-42.667V162.134c0-25.6-17.067-42.667-42.667-42.667zm-896 85.333h853.333v512H85.333v-512zm896 341.333H42.666c-25.6 0-42.667 17.067-42.667 42.667s17.067 42.667 42.667 42.667h938.667c25.6 0 42.667-17.067 42.667-42.667s-17.067-42.667-42.667-42.667zm0-85.333H42.666c-25.6 0-42.667 17.067-42.667 42.667s17.067 42.667 42.667 42.667h938.667c25.6 0 42.667-17.067 42.667-42.667s-17.067-42.667-42.667-42.667z"/><glyph unicode="" glyph-name="chat" d="M456.533 119.467c-21.333 0-42.667 17.067-42.667 38.4 0 25.6 17.067 42.667 38.4 46.933 179.2 12.8 315.733 162.133 315.733 341.333 0 187.733-153.6 341.333-341.333 341.333S85.333 733.866 85.333 546.133c0-132.267 76.8-251.733 196.267-307.2 21.333-8.533 29.867-34.133 21.333-55.467s-34.133-29.867-55.467-21.333C98.133 230.4-.001 379.733-.001 546.133c0 234.667 192 426.667 426.667 426.667s426.667-192 426.667-426.667c0-221.867-174.933-409.6-396.8-426.667zM213.333-51.2c-17.067 0-34.133 12.8-38.4 29.867s0 38.4 17.067 46.933c8.533 8.533 93.867 76.8 42.667 149.333-12.8 17.067-8.533 46.933 8.533 59.733 12.8 12.8 38.4 8.533 55.467-8.533C341.334 166.4 341.334 106.666 320 55.466c42.667 21.333 76.8 64 93.867 119.467 8.533 21.333 29.867 34.133 55.467 29.867 21.333-8.533 34.133-29.867 29.867-51.2-25.6-76.8-93.867-204.8-285.867-204.8zm512 115.2c-4.267 0-4.267 0 0 0-85.333 4.267-153.6 38.4-200.533 93.867-17.067 17.067-12.8 46.933 4.267 59.733 17.067 17.067 46.933 12.8 59.733-4.267 34.133-38.4 76.8-59.733 136.533-64 25.6 0 42.667-21.333 38.4-46.933 0-21.333-17.067-38.4-38.4-38.4zm123.734 12.8c-17.067 0-29.867 8.533-38.4 25.6-8.533 21.333 0 46.933 21.333 55.467C900.267 187.734 942.933 256 942.933 332.8c0 85.333-55.467 162.133-140.8 183.467-21.333 8.533-34.133 29.867-29.867 51.2s29.867 34.133 51.2 29.867c119.467-34.133 200.533-145.067 200.533-268.8 0-106.667-64-204.8-157.867-251.733h-17.067zm29.866-128C785.066-51.2 716.8 0 691.2 85.333c-8.533 21.333 4.267 46.933 29.867 51.2 21.333 8.533 46.933-4.267 55.467-29.867 4.267-12.8 8.533-25.6 17.067-38.4 0 21.333 8.533 46.933 25.6 72.533 12.8 17.067 42.667 21.333 59.733 8.533s21.333-42.667 8.533-59.733c-25.6-34.133 17.067-64 21.333-68.267 12.8-12.8 21.333-29.867 17.067-46.933-12.8-12.8-29.867-25.6-46.933-25.6zm-281.6 640H256c-25.6 0-42.667 17.067-42.667 42.667S230.4 674.134 256 674.134h341.333c25.6 0 42.667-17.067 42.667-42.667S622.933 588.8 597.333 588.8zM512 418.133H256c-25.6 0-42.667 17.067-42.667 42.667S230.4 503.467 256 503.467h256c25.6 0 42.667-17.067 42.667-42.667S537.6 418.133 512 418.133z"/><glyph unicode="" glyph-name="circle-bottom-left" d="M512-51.2C375.467-51.2 247.467 0 149.333 98.133c-200.533 200.533-200.533 524.8 0 725.333C247.466 921.599 375.466 972.799 512 972.799s264.533-51.2 362.667-149.333c200.533-200.533 200.533-524.8 0-725.333C776.534 0 648.534-51.2 512-51.2zm0 938.667c-115.2 0-221.867-42.667-302.933-123.733-166.4-166.4-166.4-439.467 0-605.867C290.134 76.8 396.8 34.134 512 34.134s221.867 42.667 302.933 123.733c166.4 166.4 166.4 435.2 0 601.6-81.067 85.333-187.733 128-302.933 128zm42.667-597.334H384c-25.6 0-42.667 17.067-42.667 42.667S358.4 375.467 384 375.467h170.667c25.6 0 42.667-17.067 42.667-42.667s-17.067-42.667-42.667-42.667zm-170.667 0c-25.6 0-42.667 17.067-42.667 42.667v170.667c0 25.6 17.067 42.667 42.667 42.667s42.667-17.067 42.667-42.667V332.8c0-25.6-17.067-42.667-42.667-42.667zm8.533 8.534c-12.8 0-21.333 4.267-29.867 12.8-17.067 17.067-17.067 42.667 0 59.733l243.2 243.2c17.067 17.067 42.667 17.067 59.733 0s17.067-42.667 0-59.733l-243.2-243.2c-8.533-8.533-21.333-12.8-29.867-12.8z"/><glyph unicode="" glyph-name="circle-bottom-right" d="M512-51.2C375.467-51.2 247.467 0 149.333 98.133c-200.533 200.533-200.533 524.8 0 725.333C247.466 921.599 375.466 972.799 512 972.799s264.533-51.2 362.667-149.333c200.533-200.533 200.533-524.8 0-725.333C776.534 0 648.534-51.2 512-51.2zm0 938.667c-115.2 0-221.867-42.667-302.933-123.733-166.4-166.4-166.4-439.467 0-605.867C290.134 76.8 396.8 34.134 512 34.134s221.867 42.667 302.933 123.733c166.4 166.4 166.4 435.2 0 601.6-81.067 85.333-187.733 128-302.933 128zm128-597.334c-25.6 0-42.667 17.067-42.667 42.667v170.667c0 25.6 17.067 42.667 42.667 42.667s42.667-17.067 42.667-42.667V332.8c0-25.6-17.067-42.667-42.667-42.667zm0 0H469.333c-25.6 0-42.667 17.067-42.667 42.667s17.067 42.667 42.667 42.667H640c25.6 0 42.667-17.067 42.667-42.667S665.6 290.133 640 290.133zm-8.533 8.534c-12.8 0-21.333 4.267-29.867 12.8L362.667 550.4c-17.067 17.067-17.067 42.667 0 59.733s42.667 17.067 59.733 0l243.2-243.2c17.067-17.067 17.067-42.667 0-59.733-12.8-4.267-21.333-8.533-34.133-8.533z"/><glyph unicode="" glyph-name="circle-down" d="M512-51.2c-281.6 0-512 230.4-512 512s230.4 512 512 512 512-230.4 512-512-230.4-512-512-512zm0 938.667c-234.667 0-426.667-192-426.667-426.667S277.333 34.133 512 34.133s426.667 192 426.667 426.667-192 426.667-426.667 426.667zm0-640c-12.8 0-21.333 4.267-29.867 12.8-17.067 17.067-17.067 42.667 0 59.733l128 128c17.067 17.067 42.667 17.067 59.733 0s17.067-42.667 0-59.733l-128-128c-8.533-8.533-17.067-12.8-29.867-12.8zm0 0c-12.8 0-21.333 4.267-29.867 12.8l-128 128c-17.067 17.067-17.067 42.667 0 59.733s42.667 17.067 59.733 0l128-128c17.067-17.067 17.067-42.667 0-59.733-8.533-8.533-17.067-12.8-29.867-12.8zm0 0c-25.6 0-42.667 17.067-42.667 42.667v341.333c0 25.6 17.067 42.667 42.667 42.667s42.667-17.067 42.667-42.667V290.134c0-25.6-17.067-42.667-42.667-42.667z"/><glyph unicode="" glyph-name="circle-left" d="M512-51.2c-281.6 0-512 230.4-512 512s230.4 512 512 512 512-230.4 512-512-230.4-512-512-512zm0 938.667c-234.667 0-426.667-192-426.667-426.667S277.333 34.133 512 34.133s426.667 192 426.667 426.667-192 426.667-426.667 426.667zm-42.667-597.334c-12.8 0-21.333 4.267-29.867 12.8l-128 128c-17.067 17.067-17.067 42.667 0 59.733s42.667 17.067 59.733 0l128-128c17.067-17.067 17.067-42.667 0-59.733-8.533-8.533-17.067-12.8-29.867-12.8zm-128 128c-12.8 0-21.333 4.267-29.867 12.8-17.067 17.067-17.067 42.667 0 59.733l128 128c17.067 17.067 42.667 17.067 59.733 0s17.067-42.667 0-59.733l-128-128c-8.533-8.533-17.067-12.8-29.867-12.8zm341.334 0H341.334c-25.6 0-42.667 17.067-42.667 42.667s17.067 42.667 42.667 42.667h341.333c25.6 0 42.667-17.067 42.667-42.667s-17.067-42.667-42.667-42.667z"/><glyph unicode="" glyph-name="circle-right" d="M512-51.2c-281.6 0-512 230.4-512 512s230.4 512 512 512 512-230.4 512-512-230.4-512-512-512zm0 938.667c-234.667 0-426.667-192-426.667-426.667S277.333 34.133 512 34.133s426.667 192 426.667 426.667-192 426.667-426.667 426.667zm170.667-469.334c-12.8 0-21.333 4.267-29.867 12.8l-128 128c-17.067 17.067-17.067 42.667 0 59.733s42.667 17.067 59.733 0l128-128c17.067-17.067 17.067-42.667 0-59.733-8.533-8.533-17.067-12.8-29.867-12.8zm-128-128c-12.8 0-21.333 4.267-29.867 12.8-17.067 17.067-17.067 42.667 0 59.733l128 128c17.067 17.067 42.667 17.067 59.733 0s17.067-42.667 0-59.733l-128-128c-8.533-8.533-17.067-12.8-29.867-12.8zm128 128H341.334c-25.6 0-42.667 17.067-42.667 42.667s17.067 42.667 42.667 42.667h341.333c25.6 0 42.667-17.067 42.667-42.667s-17.067-42.667-42.667-42.667z"/><glyph unicode="" glyph-name="circle-top-left" d="M512-51.2C375.467-51.2 247.467 0 149.333 98.133c-200.533 200.533-200.533 524.8 0 725.333C247.466 921.599 375.466 972.799 512 972.799s264.533-51.2 362.667-149.333c200.533-200.533 200.533-524.8 0-725.333C776.534 0 648.534-51.2 512-51.2zm0 938.667c-115.2 0-221.867-42.667-302.933-123.733-166.4-166.4-166.4-439.467 0-605.867C290.134 76.8 396.8 34.134 512 34.134s221.867 42.667 302.933 123.733c166.4 166.4 166.4 435.2 0 601.6-81.067 85.333-187.733 128-302.933 128zm-128-512c-25.6 0-42.667 17.067-42.667 42.667v170.667c0 25.6 17.067 42.667 42.667 42.667s42.667-17.067 42.667-42.667V418.134c0-25.6-17.067-42.667-42.667-42.667zm170.667 170.666H384c-25.6 0-42.667 17.067-42.667 42.667S358.4 631.467 384 631.467h170.667c25.6 0 42.667-17.067 42.667-42.667s-17.067-42.667-42.667-42.667zm76.8-247.466c-12.8 0-21.333 4.267-29.867 12.8L362.667 550.4c-17.067 17.067-17.067 42.667 0 59.733s42.667 17.067 59.733 0l243.2-243.2c17.067-17.067 17.067-42.667 0-59.733-12.8-4.267-21.333-8.533-34.133-8.533z"/><glyph unicode="" glyph-name="circle-top-right" d="M554.667-51.2C418.134-51.2 290.134 0 192 98.133c-200.533 200.533-200.533 524.8 0 725.333 98.133 98.133 226.133 149.333 362.667 149.333s264.533-51.2 362.667-149.333c200.533-200.533 200.533-524.8 0-725.333C819.201 0 691.201-51.2 554.667-51.2zm0 938.667c-115.2 0-221.867-42.667-302.933-123.733-166.4-166.4-166.4-439.467 0-605.867C332.801 76.8 439.467 34.134 554.667 34.134S776.534 76.801 857.6 157.867c166.4 166.4 166.4 435.2 0 601.6-81.067 85.333-187.733 128-302.933 128zm128-341.334H512c-25.6 0-42.667 17.067-42.667 42.667S486.4 631.467 512 631.467h170.667c25.6 0 42.667-17.067 42.667-42.667s-17.067-42.667-42.667-42.667zm0-170.666c-25.6 0-42.667 17.067-42.667 42.667v170.667c0 25.6 17.067 42.667 42.667 42.667s42.667-17.067 42.667-42.667V418.134c0-25.6-17.067-42.667-42.667-42.667zm-247.467-76.8c-12.8 0-21.333 4.267-29.867 12.8-17.067 17.067-17.067 42.667 0 59.733l243.2 243.2c17.067 17.067 42.667 17.067 59.733 0s17.067-42.667 0-59.733l-243.2-243.2c-8.533-8.533-21.333-12.8-29.867-12.8z"/><glyph unicode="" glyph-name="circle-up" d="M512-51.2c-281.6 0-512 230.4-512 512s230.4 512 512 512 512-230.4 512-512-230.4-512-512-512zm0 938.667c-234.667 0-426.667-192-426.667-426.667S277.333 34.133 512 34.133c234.667 0 426.667 192 426.667 426.667S746.667 887.467 512 887.467zM384 460.8c-12.8 0-21.333 4.267-29.867 12.8-17.067 17.067-17.067 42.667 0 59.733l128 128c17.067 17.067 42.667 17.067 59.733 0s17.067-42.667 0-59.733l-128-128c-8.533-8.533-17.067-12.8-29.867-12.8zm256 0c-12.8 0-21.333 4.267-29.867 12.8l-128 128c-17.067 17.067-17.067 42.667 0 59.733s42.667 17.067 59.733 0l128-128c17.067-17.067 17.067-42.667 0-59.733-8.533-8.533-17.067-12.8-29.867-12.8zM512 247.467c-25.6 0-42.667 17.067-42.667 42.667v341.333c0 25.6 17.067 42.667 42.667 42.667s42.667-17.067 42.667-42.667V290.134c0-25.6-17.067-42.667-42.667-42.667z"/><glyph unicode="" glyph-name="clock" d="M512-51.2c-281.6 0-512 230.4-512 512s230.4 512 512 512 512-230.4 512-512-230.4-512-512-512zm0 938.667c-234.667 0-426.667-192-426.667-426.667S277.333 34.133 512 34.133s426.667 192 426.667 426.667-192 426.667-426.667 426.667zm0-469.334c-25.6 0-42.667 17.067-42.667 42.667v298.667c0 25.6 17.067 42.667 42.667 42.667s42.667-17.067 42.667-42.667V460.8c0-25.6-17.067-42.667-42.667-42.667zm170.667-170.666c-12.8 0-21.333 4.267-29.867 12.8L482.133 430.934c-17.067 17.067-17.067 42.667 0 59.733s42.667 17.067 59.733 0L712.533 320c17.067-17.067 17.067-42.667 0-59.733-8.533-8.533-17.067-12.8-29.867-12.8z"/><glyph unicode="" glyph-name="cloud" d="M213.333 460.8c-25.6 0-42.667 17.067-42.667 42.667 0 166.4 132.267 298.667 298.667 298.667 128 0 243.2-85.333 285.867-209.067 8.533-21.333-4.267-46.933-25.6-55.467s-46.933 4.267-55.467 25.6c-29.867 93.867-110.933 153.6-204.8 153.6C349.866 716.8 256 622.933 256 503.467c0-25.6-17.067-42.667-42.667-42.667zM768 119.467c-25.6 0-42.667 17.067-42.667 42.667S742.4 204.801 768 204.801c93.867 0 170.667 76.8 170.667 170.667S861.867 546.135 768 546.135c-12.8 0-29.867 0-42.667-4.267-21.333-4.267-46.933 8.533-51.2 29.867s8.533 46.933 29.867 51.2c21.333 4.267 42.667 8.533 64 8.533 140.8 0 256-115.2 256-256s-115.2-256-256-256zm-85.333 0H213.334c-25.6 0-42.667 17.067-42.667 42.667s17.067 42.667 42.667 42.667h469.333c25.6 0 42.667-17.067 42.667-42.667s-17.067-42.667-42.667-42.667zm85.333 0h-85.333c-25.6 0-42.667 17.067-42.667 42.667s17.067 42.667 42.667 42.667H768c25.6 0 42.667-17.067 42.667-42.667S793.6 119.467 768 119.467zm-554.667 0C93.866 119.467 0 213.334 0 332.8s93.867 213.333 213.333 213.333c25.6 0 42.667-17.067 42.667-42.667s-17.067-42.667-42.667-42.667c-72.533 0-128-55.467-128-128s55.467-128 128-128c25.6 0 42.667-17.067 42.667-42.667s-17.067-42.667-42.667-42.667z"/><glyph unicode="" glyph-name="cmd" d="M213.333 546.133C93.866 546.133 0 640 0 759.466s93.867 213.333 213.333 213.333 213.333-93.867 213.333-213.333c0-25.6-17.067-42.667-42.667-42.667s-42.667 17.067-42.667 42.667c0 72.533-55.467 128-128 128s-128-55.467-128-128 55.467-128 128-128c25.6 0 42.667-17.067 42.667-42.667s-17.067-42.667-42.667-42.667zm597.334 0c-25.6 0-42.667 17.067-42.667 42.667s17.067 42.667 42.667 42.667c72.533 0 128 55.467 128 128s-55.467 128-128 128-128-55.467-128-128c0-25.6-17.067-42.667-42.667-42.667s-42.667 17.067-42.667 42.667c0 119.467 93.867 213.333 213.333 213.333s213.333-93.867 213.333-213.333-93.867-213.333-213.333-213.333zM213.333-51.2C93.866-51.2 0 42.667 0 162.133s93.867 213.333 213.333 213.333c25.6 0 42.667-17.067 42.667-42.667s-17.067-42.667-42.667-42.667c-72.533 0-128-55.467-128-128s55.467-128 128-128 128 55.467 128 128c0 25.6 17.067 42.667 42.667 42.667s42.667-17.067 42.667-42.667c0-119.467-93.867-213.333-213.333-213.333zm597.334 0c-119.467 0-213.333 93.867-213.333 213.333 0 25.6 17.067 42.667 42.667 42.667s42.667-17.067 42.667-42.667c0-72.533 55.467-128 128-128s128 55.467 128 128-55.467 128-128 128c-25.6 0-42.667 17.067-42.667 42.667s17.067 42.667 42.667 42.667c119.467 0 213.333-93.867 213.333-213.333S930.134-51.199 810.668-51.199zM384 119.467c-25.6 0-42.667 17.067-42.667 42.667v597.333c0 25.6 17.067 42.667 42.667 42.667s42.667-17.067 42.667-42.667V162.134c0-25.6-17.067-42.667-42.667-42.667zm256 0c-25.6 0-42.667 17.067-42.667 42.667v597.333c0 25.6 17.067 42.667 42.667 42.667s42.667-17.067 42.667-42.667V162.134c0-25.6-17.067-42.667-42.667-42.667zm170.667 426.666H213.334c-25.6 0-42.667 17.067-42.667 42.667s17.067 42.667 42.667 42.667h597.333c25.6 0 42.667-17.067 42.667-42.667s-17.067-42.667-42.667-42.667zm0-256H213.334c-25.6 0-42.667 17.067-42.667 42.667s17.067 42.667 42.667 42.667h597.333c25.6 0 42.667-17.067 42.667-42.667s-17.067-42.667-42.667-42.667z"/><glyph unicode="" glyph-name="collapse" d="M341.333 588.8H170.666c-25.6 0-42.667 17.067-42.667 42.667s17.067 42.667 42.667 42.667h170.667c25.6 0 42.667-17.067 42.667-42.667S366.933 588.8 341.333 588.8zm0 0c-25.6 0-42.667 17.067-42.667 42.667v170.667c0 25.6 17.067 42.667 42.667 42.667S384 827.734 384 802.134V631.467c0-25.6-17.067-42.667-42.667-42.667zm0 0c-12.8 0-21.333 4.267-29.867 12.8L12.799 900.267c-17.067 17.067-17.067 42.667 0 59.733s42.667 17.067 59.733 0l298.667-298.667c17.067-17.067 17.067-42.667 0-59.733-8.533-8.533-17.067-12.8-29.867-12.8zm512 0H682.666c-25.6 0-42.667 17.067-42.667 42.667s17.067 42.667 42.667 42.667h170.667c25.6 0 42.667-17.067 42.667-42.667S878.933 588.8 853.333 588.8zm-170.666 0c-25.6 0-42.667 17.067-42.667 42.667v170.667c0 25.6 17.067 42.667 42.667 42.667s42.667-17.067 42.667-42.667V631.467c0-25.6-17.067-42.667-42.667-42.667zm0 0c-12.8 0-21.333 4.267-29.867 12.8-17.067 17.067-17.067 42.667 0 59.733L951.467 960c17.067 17.067 42.667 17.067 59.733 0s17.067-42.667 0-59.733L712.533 601.6c-8.533-8.533-17.067-12.8-29.867-12.8zM341.333 247.467H170.666c-25.6 0-42.667 17.067-42.667 42.667s17.067 42.667 42.667 42.667h170.667c25.6 0 42.667-17.067 42.667-42.667s-17.067-42.667-42.667-42.667zm0-170.667c-25.6 0-42.667 17.067-42.667 42.667v170.667c0 25.6 17.067 42.667 42.667 42.667S384 315.734 384 290.134V119.467c0-25.6-17.067-42.667-42.667-42.667zM42.667-51.2c-12.8 0-21.333 4.267-29.867 12.8-17.067 17.067-17.067 42.667 0 59.733L311.467 320c17.067 17.067 42.667 17.067 59.733 0s17.067-42.667 0-59.733L72.533-38.4C64-46.933 55.466-51.2 42.666-51.2zm810.666 298.667H682.666c-25.6 0-42.667 17.067-42.667 42.667s17.067 42.667 42.667 42.667h170.667c25.6 0 42.667-17.067 42.667-42.667s-17.067-42.667-42.667-42.667zM682.667 76.8c-25.6 0-42.667 17.067-42.667 42.667v170.667c0 25.6 17.067 42.667 42.667 42.667s42.667-17.067 42.667-42.667V119.467c0-25.6-17.067-42.667-42.667-42.667zm298.666-128c-12.8 0-21.333 4.267-29.867 12.8L652.799 260.267c-17.067 17.067-17.067 42.667 0 59.733s42.667 17.067 59.733 0l298.667-298.667c17.067-17.067 17.067-42.667 0-59.733-8.533-8.533-17.067-12.8-29.867-12.8z"/><glyph unicode="" glyph-name="comment" d="M853.333 119.467H682.666c-25.6 0-42.667 17.067-42.667 42.667s17.067 42.667 42.667 42.667h170.667c46.933 0 85.333 38.4 85.333 85.333v512c0 46.933-38.4 85.333-85.333 85.333H170.666c-46.933 0-85.333-38.4-85.333-85.333v-512c0-46.933 38.4-85.333 85.333-85.333h170.667c25.6 0 42.667-17.067 42.667-42.667s-17.067-42.667-42.667-42.667H170.666c-93.867 0-170.667 76.8-170.667 170.667v512c0 93.867 76.8 170.667 170.667 170.667h682.667c93.867 0 170.667-76.8 170.667-170.667v-512c0-93.867-76.8-170.667-170.667-170.667zM512-51.2c-12.8 0-21.333 4.267-29.867 12.8L311.466 132.267c-17.067 17.067-17.067 42.667 0 59.733s42.667 17.067 59.733 0l140.8-140.8 140.8 140.8c17.067 17.067 42.667 17.067 59.733 0s17.067-42.667 0-59.733L541.865-38.4c-8.533-8.533-17.067-12.8-29.867-12.8zm256 725.333H256c-25.6 0-42.667 17.067-42.667 42.667S230.4 759.467 256 759.467h512c25.6 0 42.667-17.067 42.667-42.667S793.6 674.133 768 674.133zM554.667 503.467H256c-25.6 0-42.667 17.067-42.667 42.667S230.4 588.801 256 588.801h298.667c25.6 0 42.667-17.067 42.667-42.667s-17.067-42.667-42.667-42.667zm128-170.667H256c-25.6 0-42.667 17.067-42.667 42.667S230.4 418.134 256 418.134h426.667c25.6 0 42.667-17.067 42.667-42.667S708.267 332.8 682.667 332.8z"/><glyph unicode="" glyph-name="contrast" d="M981.333 460.8C981.333 200.533 810.666-8.533 512-8.533v938.667c298.667 0 469.333-209.067 469.333-469.333zM512-51.2c-25.6 0-42.667 17.067-42.667 42.667v938.667c0 25.6 17.067 42.667 42.667 42.667 302.933 0 512-209.067 512-512s-209.067-512-512-512zm42.667 938.667V34.134c264.533 21.333 384 221.867 384 426.667s-119.467 405.333-384 426.667zM512-51.2c-281.6 0-512 230.4-512 512s230.4 512 512 512c25.6 0 42.667-17.067 42.667-42.667V-8.534c0-25.6-17.067-42.667-42.667-42.667zm-42.667 938.667c-213.333-25.6-384-204.8-384-426.667S256 59.733 469.333 34.133v853.333z"/><glyph unicode="" glyph-name="corner-arrow" d="M768 460.8c-12.8 0-21.333 4.267-29.867 12.8-17.067 17.067-17.067 42.667 0 59.733l213.333 213.333c17.067 17.067 42.667 17.067 59.733 0s17.067-42.667 0-59.733L797.866 473.6c-8.533-8.533-17.067-12.8-29.867-12.8zm213.333 213.333c-12.8 0-21.333 4.267-29.867 12.8L738.133 900.266c-17.067 17.067-17.067 42.667 0 59.733s42.667 17.067 59.733 0l213.333-213.333c17.067-17.067 17.067-42.667 0-59.733-8.533-8.533-17.067-12.8-29.867-12.8zM256-51.2c-12.8 0-21.333 4.267-29.867 12.8L12.8 174.933C-4.267 192-4.267 217.6 12.8 234.666s42.667 17.067 59.733 0L285.866 21.333c17.067-17.067 17.067-42.667 0-59.733-8.533-8.533-17.067-12.8-29.867-12.8zm0 0c-12.8 0-21.333 4.267-29.867 12.8-17.067 17.067-17.067 42.667 0 59.733l213.333 213.333c17.067 17.067 42.667 17.067 59.733 0s17.067-42.667 0-59.733L285.866-38.4c-8.533-8.533-17.067-12.8-29.867-12.8zm0 0c-25.6 0-42.667 17.067-42.667 42.667V460.8c0 166.4 132.267 298.667 298.667 298.667h469.333c25.6 0 42.667-17.067 42.667-42.667s-17.067-42.667-42.667-42.667H512c-119.467 0-213.333-93.867-213.333-213.333V-8.533c0-25.6-17.067-42.667-42.667-42.667z"/><glyph unicode="" glyph-name="cube" d="M512 546.133c-4.267 0-8.533 0-12.8 4.267L29.867 721.067C12.8 725.334 0 742.4 0 759.467s12.8 34.133 29.867 38.4L499.2 968.534c8.533 4.267 21.333 4.267 29.867 0L998.4 797.867c12.8-4.267 25.6-21.333 25.6-38.4s-12.8-34.133-29.867-38.4L524.8 550.4c-4.267-4.267-8.533-4.267-12.8-4.267zM166.4 759.467L512 635.734l345.6 123.733L512 883.2 166.4 759.467zM512-51.2c-4.267 0-8.533 0-12.8 4.267L29.867 123.734c-21.333 8.533-34.133 34.133-25.6 55.467s34.133 34.133 55.467 25.6l452.267-166.4 456.533 166.4c21.333 8.533 46.933-4.267 55.467-25.6s-4.267-46.933-25.6-55.467L529.068-46.933c-8.533-4.267-12.8-4.267-17.067-4.267zm0 0c-25.6 0-42.667 17.067-42.667 42.667V588.8c0 25.6 17.067 42.667 42.667 42.667s42.667-17.067 42.667-42.667V-8.533c0-25.6-17.067-42.667-42.667-42.667zm469.333 170.667c-25.6 0-42.667 17.067-42.667 42.667v597.333c0 25.6 17.067 42.667 42.667 42.667S1024 785.067 1024 759.467V162.134c0-25.6-17.067-42.667-42.667-42.667zm-938.666 0C17.067 119.467 0 136.534 0 162.134v597.333c0 25.6 17.067 42.667 42.667 42.667s42.667-17.067 42.667-42.667V162.134c0-25.6-17.067-42.667-42.667-42.667z"/><glyph unicode="" glyph-name="cup" d="M597.333 247.467H426.666c-140.8 0-256 115.2-256 256v298.667c0 25.6 17.067 42.667 42.667 42.667h597.333c25.6 0 42.667-17.067 42.667-42.667V503.467c0-140.8-115.2-256-256-256zM256 759.467v-256C256 409.6 332.8 332.8 426.667 332.8h170.667c93.867 0 170.667 76.8 170.667 170.667v256h-512zM810.667 76.8H213.334c-25.6 0-42.667 17.067-42.667 42.667s17.067 42.667 42.667 42.667h597.333c25.6 0 42.667-17.067 42.667-42.667S836.267 76.8 810.667 76.8zM832 482.133h-21.333c-25.6 0-42.667 17.067-42.667 42.667v277.333c0 25.6 17.067 42.667 42.667 42.667H896c72.533 0 128-55.467 128-128v-42.667c0-106.667-85.333-192-192-192zm21.333 277.334V571.734c46.933 8.533 85.333 51.2 85.333 102.4v42.667c0 25.6-17.067 42.667-42.667 42.667h-42.667z"/><glyph unicode="" glyph-name="cursor" d="M597.333-8.533c-17.067 0-34.133 12.8-38.4 29.867l-98.133 294.4c-8.533 21.333 4.267 46.933 25.6 55.467s46.933-4.267 55.467-25.6L601.6 162.134l260.267 652.8-652.8-264.533 183.467-59.733c21.333-8.533 34.133-29.867 25.6-55.467-8.533-21.333-29.867-34.133-55.467-25.6l-294.4 98.133c-12.8 4.267-25.6 21.333-25.6 38.4s8.533 34.133 25.6 42.667L921.6 930.134c17.067 4.267 34.133 0 46.933-12.8s17.067-29.867 8.533-46.933L635.733 17.068c-4.267-17.067-21.333-25.6-38.4-25.6zm-426.666 0c-34.133 0-64 12.8-89.6 38.4-51.2 51.2-51.2 132.267 0 179.2l268.8 268.8c17.067 17.067 42.667 17.067 59.733 0s17.067-42.667 0-59.733l-268.8-268.8c-8.533-8.533-12.8-17.067-12.8-29.867s4.267-21.333 12.8-29.867c17.067-17.067 42.667-17.067 59.733 0l268.8 268.8c17.067 17.067 42.667 17.067 59.733 0s17.067-42.667 0-59.733l-268.8-268.8c-25.6-25.6-55.467-38.4-89.6-38.4z"/><glyph unicode="" glyph-name="desktop" d="M861.867 119.467H162.134C72.534 119.467.001 192 .001 281.6v529.067c0 89.6 72.533 162.133 162.133 162.133h695.467c93.867 0 166.4-72.533 166.4-162.133v-524.8c0-93.867-72.533-166.4-162.133-166.4zm-699.734 768c-42.667 0-76.8-34.133-76.8-76.8v-524.8c0-42.667 34.133-76.8 76.8-76.8H857.6c42.667 0 76.8 34.133 76.8 76.8v524.8c0 42.667-34.133 76.8-76.8 76.8H162.133zm-119.466-512h938.667v-85.333H42.667v85.333zm640-426.667H341.334c-25.6 0-42.667 17.067-42.667 42.667s17.067 42.667 42.667 42.667h341.333c25.6 0 42.667-17.067 42.667-42.667S708.267-51.2 682.667-51.2zm-341.334 0c-25.6 0-42.667 17.067-42.667 42.667s17.067 42.667 42.667 42.667c8.533 0 42.667 42.667 42.667 128 0 25.6 17.067 42.667 42.667 42.667s42.667-17.067 42.667-42.667c0-123.733-55.467-213.333-128-213.333zm341.334 0c-72.533 0-128 89.6-128 213.333 0 25.6 17.067 42.667 42.667 42.667s42.667-17.067 42.667-42.667c0-85.333 34.133-128 42.667-128 25.6 0 42.667-17.067 42.667-42.667s-17.067-42.667-42.667-42.667z"/><glyph unicode="" glyph-name="disk" d="M179.2 85.333c-12.8 0-21.333 4.267-29.867 12.8-17.067 17.067-17.067 42.667 0 59.733l243.2 243.2c17.067 17.067 42.667 17.067 59.733 0s17.067-42.667 0-59.733l-243.2-243.2c-8.533-8.533-17.067-12.8-29.867-12.8zm422.4 422.4c-12.8 0-21.333 4.267-29.867 12.8-17.067 17.067-17.067 42.667 0 59.733l243.2 243.2c17.067 17.067 42.667 17.067 59.733 0s17.067-42.667 0-59.733l-243.2-243.2c-8.533-8.533-17.067-12.8-29.867-12.8zM635.733 448c-17.067 0-38.4 12.8-42.667 34.133s8.533 46.933 29.867 51.2l332.8 81.067c21.333 4.267 46.933-8.533 51.2-29.867s-8.533-46.933-29.867-51.2l-332.8-81.067c0-4.267-4.267-4.267-8.533-4.267zM477.867-51.2c-4.267 0-4.267 0 0 0-25.6 0-42.667 21.333-42.667 46.933l25.6 341.333c0 21.333 21.333 42.667 46.933 38.4 25.6 0 42.667-21.333 38.4-46.933L520.533-12.8c-4.267-21.333-21.333-38.4-42.667-38.4zM409.6 494.933c-8.533 0-17.067 4.267-25.6 8.533L106.667 703.999c-17.067 12.8-21.333 38.4-8.533 59.733s42.667 21.333 59.733 8.533L435.2 571.732c17.067-12.8 21.333-42.667 8.533-59.733-8.533-12.8-21.333-17.067-34.133-17.067zM512-51.2c-281.6 0-512 230.4-512 512s230.4 512 512 512 512-230.4 512-512-230.4-512-512-512zm0 938.667c-234.667 0-426.667-192-426.667-426.667S277.333 34.133 512 34.133s426.667 192 426.667 426.667-192 426.667-426.667 426.667zm0-597.334c-93.867 0-170.667 76.8-170.667 170.667S418.133 631.467 512 631.467s170.667-76.8 170.667-170.667S605.867 290.133 512 290.133zm0 256c-46.933 0-85.333-38.4-85.333-85.333s38.4-85.333 85.333-85.333 85.333 38.4 85.333 85.333-38.4 85.333-85.333 85.333z"/><glyph unicode="" glyph-name="dollar" d="M512-51.2c-281.6 0-512 230.4-512 512s230.4 512 512 512 512-230.4 512-512-230.4-512-512-512zm0 938.667c-234.667 0-426.667-192-426.667-426.667S277.333 34.133 512 34.133s426.667 192 426.667 426.667-192 426.667-426.667 426.667zm0-469.334c-81.067 0-149.333 51.2-166.4 119.467-4.267 8.533-4.267 17.067-4.267 29.867 0 81.067 76.8 149.333 170.667 149.333s170.667-68.267 170.667-149.333c0-12.8 0-21.333-4.267-29.867-4.267-21.333-29.867-38.4-51.2-29.867-21.333 4.267-38.4 29.867-29.867 51.2v12.8c0 29.867-38.4 59.733-85.333 59.733s-85.333-29.867-85.333-64v-12.8c8.533-29.867 42.667-51.2 85.333-51.2 25.6 0 42.667-17.067 42.667-42.667S537.6 418.132 512 418.132zm0-213.333c-93.867 0-170.667 68.267-170.667 149.333 0 12.8 0 21.333 4.267 29.867 4.267 21.333 29.867 38.4 51.2 29.867 21.333-4.267 38.4-29.867 29.867-51.2v-12.8c0-34.133 38.4-64 85.333-64s85.333 29.867 85.333 64v12.8c-8.533 29.867-42.667 51.2-85.333 51.2-25.6 0-42.667 17.067-42.667 42.667S486.4 499.201 512 499.201c81.067 0 149.333-51.2 166.4-119.467 4.267-4.267 4.267-12.8 4.267-25.6 0-81.067-76.8-149.333-170.667-149.333zm0-85.333c-25.6 0-42.667 17.067-42.667 42.667v85.333c0 25.6 17.067 42.667 42.667 42.667s42.667-17.067 42.667-42.667v-85.333c0-25.6-17.067-42.667-42.667-42.667zm0 512c-25.6 0-42.667 17.067-42.667 42.667v85.333c0 25.6 17.067 42.667 42.667 42.667s42.667-17.067 42.667-42.667v-85.333c0-25.6-17.067-42.667-42.667-42.667zm128-128c-12.8 0-21.333 4.267-29.867 12.8s-12.8 17.067-12.8 29.867 4.267 21.333 12.8 29.867c17.067 17.067 42.667 17.067 59.733 0 8.533-8.533 12.8-17.067 12.8-29.867s-4.267-21.333-12.8-29.867c-8.533-8.533-17.067-12.8-29.867-12.8z"/><glyph unicode="" glyph-name="download" d="M213.333 588.8c-25.6 0-42.667 17.067-42.667 42.667 0 166.4 132.267 298.667 298.667 298.667 128 0 243.2-85.333 285.867-209.067 4.267-21.333-4.267-46.933-29.867-51.2-21.333-8.533-46.933 4.267-55.467 25.6-25.6 89.6-106.667 149.333-200.533 149.333C349.866 844.8 256 750.933 256 631.467c0-25.6-17.067-42.667-42.667-42.667zM768 247.467c-25.6 0-42.667 17.067-42.667 42.667S742.4 332.801 768 332.801c93.867 0 170.667 76.8 170.667 170.667S861.867 674.135 768 674.135c-12.8 0-29.867 0-42.667-4.267-21.333-4.267-46.933 8.533-51.2 29.867s8.533 46.933 29.867 51.2c21.333 4.267 42.667 8.533 64 8.533 140.8 0 256-115.2 256-256s-115.2-256-256-256zm-426.667 0h-128c-25.6 0-42.667 17.067-42.667 42.667s17.067 42.667 42.667 42.667h128c25.6 0 42.667-17.067 42.667-42.667s-17.067-42.667-42.667-42.667zm426.667 0h-85.333c-25.6 0-42.667 17.067-42.667 42.667s17.067 42.667 42.667 42.667H768c25.6 0 42.667-17.067 42.667-42.667S793.6 247.467 768 247.467zm-554.667 0C93.866 247.467 0 341.334 0 460.8s93.867 213.333 213.333 213.333c25.6 0 42.667-17.067 42.667-42.667s-17.067-42.667-42.667-42.667c-72.533 0-128-55.467-128-128s55.467-128 128-128c25.6 0 42.667-17.067 42.667-42.667s-17.067-42.667-42.667-42.667zM512-8.533c-25.6 0-42.667 17.067-42.667 42.667v384c0 25.6 17.067 42.667 42.667 42.667s42.667-17.067 42.667-42.667v-384c0-25.6-17.067-42.667-42.667-42.667zm0 0c-12.8 0-21.333 4.267-29.867 12.8-17.067 17.067-17.067 42.667 0 59.733l128 128c17.067 17.067 42.667 17.067 59.733 0s17.067-42.667 0-59.733l-128-128c-8.533-8.533-17.067-12.8-29.867-12.8zm0 0c-12.8 0-21.333 4.267-29.867 12.8l-128 128c-17.067 17.067-17.067 42.667 0 59.733s42.667 17.067 59.733 0l128-128c17.067-17.067 17.067-42.667 0-59.733-8.533-8.533-17.067-12.8-29.867-12.8z"/><glyph unicode="" glyph-name="drawer" d="M896-51.2H128c-25.6 0-42.667 17.067-42.667 42.667V460.8c0 25.6 17.067 42.667 42.667 42.667h768c25.6 0 42.667-17.067 42.667-42.667V-8.533c0-25.6-17.067-42.667-42.667-42.667zM170.667 34.133h682.667v384H170.667v-384zm426.666 213.334H426.666c-25.6 0-42.667 17.067-42.667 42.667s17.067 42.667 42.667 42.667h170.667c25.6 0 42.667-17.067 42.667-42.667s-17.067-42.667-42.667-42.667zM896 418.133H128c-25.6 0-42.667 17.067-42.667 42.667v469.333c0 25.6 17.067 42.667 42.667 42.667h768c25.6 0 42.667-17.067 42.667-42.667V460.8c0-25.6-17.067-42.667-42.667-42.667zm-725.333 85.334h682.667v384H170.667v-384zM597.333 716.8H426.666c-25.6 0-42.667 17.067-42.667 42.667s17.067 42.667 42.667 42.667h170.667c25.6 0 42.667-17.067 42.667-42.667S622.933 716.8 597.333 716.8z"/><glyph unicode="" glyph-name="drop" d="M512-51.2c-213.333 0-384 170.667-384 384 0 170.667 102.4 349.867 145.067 418.133C298.667 789.333 418.134 972.8 512 972.8c119.467 0 384-371.2 384-640 0-213.333-170.667-384-384-384zm0 938.667c-59.733-8.533-298.667-315.733-298.667-554.667C213.333 166.4 345.6 34.133 512 34.133S810.667 166.4 810.667 332.8c0 238.933-238.933 546.133-298.667 554.667zm0-768h-4.267c-106.667 4.267-200.533 102.4-209.067 209.067v4.267c0 25.6 17.067 42.667 42.667 42.667 21.333 0 42.667-17.067 42.667-42.667 0-64 64-128 128-128 21.333 0 42.667-21.333 42.667-42.667S537.6 119.467 512 119.467z"/><glyph unicode="" glyph-name="earth" d="M512-51.2c-281.6 0-512 230.4-512 512s230.4 512 512 512 512-230.4 512-512-230.4-512-512-512zm0 938.667c-234.667 0-426.667-192-426.667-426.667S277.333 34.133 512 34.133s426.667 192 426.667 426.667-192 426.667-426.667 426.667zM277.333 12.8c-12.8 0-21.333 4.267-29.867 12.8-17.067 17.067-17.067 42.667 0 59.733l17.067 17.067 34.133 102.4-29.867 59.733L149.332 345.6c-12.8 4.267-21.333 17.067-21.333 29.867v128c0 17.067 12.8 34.133 29.867 38.4l119.467 38.4 51.2 51.2-128 179.2c-12.8 21.333-8.533 51.2 8.533 64 21.333 12.8 46.933 8.533 59.733-8.533l149.333-209.067c12.8-17.067 8.533-38.4-4.267-55.467l-85.333-85.333c-4.267-4.267-8.533-8.533-17.067-8.533l-98.133-34.133v-72.533l110.933-72.533c4.267-4.267 12.8-8.533 12.8-17.067l42.667-85.333c4.267-12.8 4.267-25.6 0-34.133l-42.667-128c0-4.267-4.267-12.8-8.533-17.067l-21.333-21.333c-8.533-8.533-21.333-12.8-29.867-12.8zm405.334 149.333c-8.533 0-12.8 0-17.067 4.267l-85.333 42.667c-8.533 4.267-17.067 12.8-17.067 17.067l-42.667 85.333c-4.267 12.8-4.267 25.6 0 38.4l38.4 76.8v76.8c0 25.6 17.067 42.667 42.667 42.667h64l115.2 153.6 4.267 4.267 68.267 72.533c17.067 17.067 42.667 17.067 59.733 0s17.067-42.667 0-59.733l-72.533-72.533-128-166.4c-4.267-12.8-17.067-17.067-29.867-17.067H640v-42.667c0-8.533 0-12.8-4.267-17.067L601.6 332.8l25.6-55.467L674.133 256l59.733 59.733 38.4 81.067c8.533 12.8 21.333 21.333 34.133 25.6 17.067 0 29.867-4.267 38.4-17.067l81.067-119.467 17.067-8.533c21.333-8.533 29.867-38.4 17.067-55.467-8.533-21.333-38.4-29.867-55.467-17.067l-25.6 12.8c-8.533 4.267-12.8 8.533-17.067 12.8l-42.667 68.267-8.533-21.333c0-4.267-4.267-8.533-8.533-12.8L716.8 179.2c-12.8-12.8-21.333-17.067-34.133-17.067z"/><glyph unicode="" glyph-name="edit" d="M776.533-51.2h-614.4C72.533-51.2 0 21.333 0 110.933v614.4c0 89.6 72.533 162.133 162.133 162.133h307.2c25.6 0 42.667-17.067 42.667-42.667s-17.067-42.667-42.667-42.667h-307.2c-42.667 0-76.8-34.133-76.8-76.8V115.199c0-42.667 34.133-76.8 76.8-76.8h610.133c42.667 0 76.8 34.133 76.8 76.8v302.933c0 25.6 17.067 42.667 42.667 42.667s42.667-17.067 42.667-42.667v-307.2c4.267-89.6-68.267-162.133-157.867-162.133zM256 162.133c-12.8 0-21.333 4.267-29.867 12.8s-12.8 25.6-12.8 38.4L256 426.666c0 8.533 4.267 17.067 12.8 21.333l512 512c17.067 17.067 42.667 17.067 59.733 0L1011.2 789.332c17.067-17.067 17.067-42.667 0-59.733l-512-512c-4.267-4.267-12.8-8.533-21.333-12.8l-213.333-42.667h-8.533zM337.067 396.8l-25.6-136.533L448 285.867l473.6 473.6L810.667 870.4l-473.6-473.6z"/><glyph unicode="" glyph-name="education" d="M512 375.467c-4.267 0-8.533 0-12.8 4.267L29.867 550.401C12.8 554.668 0 571.734 0 588.801s12.8 34.133 29.867 38.4L499.2 797.868c8.533 4.267 21.333 4.267 29.867 0L998.4 627.201c12.8-4.267 25.6-21.333 25.6-38.4s-12.8-34.133-29.867-38.4L524.8 379.734c-4.267-4.267-8.533-4.267-12.8-4.267zM166.4 588.8L512 465.067 857.6 588.8 512 712.533 166.4 588.8zm644.267-469.333H512c-25.6 0-42.667 17.067-42.667 42.667S486.4 204.801 512 204.801h256c-4.267 110.933-29.867 204.8-72.533 273.067-12.8 21.333-4.267 46.933 12.8 59.733 21.333 12.8 46.933 4.267 59.733-12.8 55.467-89.6 85.333-213.333 85.333-358.4 0-29.867-17.067-46.933-42.667-46.933zm-298.667 0H213.333c-25.6 0-42.667 17.067-42.667 42.667 0 145.067 29.867 268.8 85.333 358.4 12.8 21.333 38.4 25.6 59.733 12.8s25.6-38.4 12.8-59.733c-42.667-68.267-68.267-162.133-72.533-273.067h256c25.6 0 42.667-17.067 42.667-42.667s-17.067-38.4-42.667-38.4zm426.667 0c-25.6 0-42.667 17.067-42.667 42.667v426.667c0 25.6 17.067 42.667 42.667 42.667s42.667-17.067 42.667-42.667V162.134c0-25.6-17.067-42.667-42.667-42.667z"/><glyph unicode="" glyph-name="eject" d="M768 290.133H256c-17.067 0-29.867 8.533-38.4 21.333s-8.533 29.867 0 42.667l256 384c17.067 25.6 55.467 25.6 72.533 0l256-384c8.533-12.8 8.533-29.867 0-42.667S785.066 290.133 768 290.133zm-430.933 85.334H691.2L512 640 337.067 375.467zM768 162.133H256c-25.6 0-42.667 17.067-42.667 42.667S230.4 247.467 256 247.467h512c25.6 0 42.667-17.067 42.667-42.667S793.6 162.133 768 162.133z"/><glyph unicode="" glyph-name="euro" d="M512-51.2c-281.6 0-512 230.4-512 512s230.4 512 512 512 512-230.4 512-512-230.4-512-512-512zm0 938.667c-234.667 0-426.667-192-426.667-426.667S277.333 34.133 512 34.133c234.667 0 426.667 192 426.667 426.667S746.667 887.467 512 887.467zM554.667 204.8c-140.8 0-256 115.2-256 256s115.2 256 256 256c55.467 0 110.933-17.067 153.6-51.2 17.067-12.8 21.333-42.667 8.533-59.733s-42.667-21.333-59.733-8.533c-29.867 21.333-64 34.133-102.4 34.133C460.8 631.467 384 554.667 384 460.8s76.8-170.667 170.667-170.667c38.4 0 72.533 12.8 102.4 34.133 17.067 12.8 46.933 8.533 59.733-8.533s8.533-46.933-8.533-59.733c-42.667-34.133-98.133-51.2-153.6-51.2zm0 213.333H256c-25.6 0-42.667 17.067-42.667 42.667S230.4 503.467 256 503.467h298.667c25.6 0 42.667-17.067 42.667-42.667s-17.067-42.667-42.667-42.667z"/><glyph unicode="" glyph-name="expand" d="M981.333-51.2H810.666c-25.6 0-42.667 17.067-42.667 42.667s17.067 42.667 42.667 42.667h170.667c25.6 0 42.667-17.067 42.667-42.667S1006.933-51.2 981.333-51.2zm0 0c-25.6 0-42.667 17.067-42.667 42.667v170.667c0 25.6 17.067 42.667 42.667 42.667S1024 187.734 1024 162.134V-8.533c0-25.6-17.067-42.667-42.667-42.667zm-768 938.667H42.666c-25.6 0-42.667 17.067-42.667 42.667s17.067 42.667 42.667 42.667h170.667c25.6 0 42.667-17.067 42.667-42.667s-17.067-42.667-42.667-42.667zM42.667 716.8C17.067 716.8 0 733.867 0 759.467v170.667c0 25.6 17.067 42.667 42.667 42.667s42.667-17.067 42.667-42.667V759.467c0-25.6-17.067-42.667-42.667-42.667zM332.8 597.333c-12.8 0-21.333 4.267-29.867 12.8l-281.6 281.6c-17.067 17.067-17.067 42.667 0 59.733s42.667 17.067 59.733 0l277.333-277.333c17.067-17.067 17.067-42.667 0-59.733-4.267-12.8-17.067-17.067-25.6-17.067zm640-640c-12.8 0-21.333 4.267-29.867 12.8L665.6 247.466c-17.067 17.067-17.067 42.667 0 59.733s42.667 17.067 59.733 0l277.333-277.333c17.067-17.067 17.067-42.667 0-59.733-8.533-8.533-21.333-12.8-29.867-12.8zM42.667-51.2C17.067-51.2 0-34.133 0-8.533v170.667c0 25.6 17.067 42.667 42.667 42.667s42.667-17.067 42.667-42.667V-8.533c0-25.6-17.067-42.667-42.667-42.667zm170.666 0H42.666C17.066-51.2-.001-34.133-.001-8.533s17.067 42.667 42.667 42.667h170.667c25.6 0 42.667-17.067 42.667-42.667S238.933-51.2 213.333-51.2zm768 768c-25.6 0-42.667 17.067-42.667 42.667v170.667c0 25.6 17.067 42.667 42.667 42.667S1024 955.734 1024 930.134V759.467c0-25.6-17.067-42.667-42.667-42.667zm0 170.667H810.666c-25.6 0-42.667 17.067-42.667 42.667s17.067 42.667 42.667 42.667h170.667c25.6 0 42.667-17.067 42.667-42.667s-17.067-42.667-42.667-42.667zM691.2 597.333c-12.8 0-21.333 4.267-29.867 12.8-17.067 17.067-17.067 42.667 0 59.733l277.333 277.333c17.067 17.067 42.667 17.067 59.733 0s17.067-42.667 0-59.733L721.066 610.133c-4.267-8.533-17.067-12.8-29.867-12.8zm-640-640c-12.8 0-21.333 4.267-29.867 12.8C4.266-12.8 4.266 12.8 21.333 29.866l277.333 277.333c17.067 17.067 42.667 17.067 59.733 0s17.067-42.667 0-59.733L81.066-29.867c-8.533-8.533-17.067-12.8-29.867-12.8z"/><glyph unicode="" glyph-name="external" d="M768 34.133H170.667C76.8 34.133 0 110.933 0 204.8v426.667c0 93.867 76.8 170.667 170.667 170.667H640c25.6 0 42.667-17.067 42.667-42.667S665.6 716.8 640 716.8H170.667c-46.933 0-85.333-38.4-85.333-85.333V204.8c0-46.933 38.4-85.333 85.333-85.333H768c46.933 0 85.333 38.4 85.333 85.333v298.667c0 25.6 17.067 42.667 42.667 42.667s42.667-17.067 42.667-42.667V204.8c0-93.867-76.8-170.667-170.667-170.667zM640 460.8c-12.8 0-21.333 4.267-29.867 12.8-17.067 17.067-17.067 42.667 0 59.733l341.333 341.333c17.067 17.067 42.667 17.067 59.733 0s17.067-42.667 0-59.733L669.866 473.6c-8.533-8.533-17.067-12.8-29.867-12.8zm341.333 341.333H810.666c-25.6 0-42.667 17.067-42.667 42.667s17.067 42.667 42.667 42.667h170.667c25.6 0 42.667-17.067 42.667-42.667s-17.067-42.667-42.667-42.667zm0-170.666c-25.6 0-42.667 17.067-42.667 42.667v170.667c0 25.6 17.067 42.667 42.667 42.667S1024 870.401 1024 844.801V674.134c0-25.6-17.067-42.667-42.667-42.667z"/><glyph unicode="" glyph-name="eye" d="M512 290.133c-93.867 0-170.667 76.8-170.667 170.667S418.133 631.467 512 631.467s170.667-76.8 170.667-170.667S605.867 290.133 512 290.133zm0 256c-46.933 0-85.333-38.4-85.333-85.333s38.4-85.333 85.333-85.333 85.333 38.4 85.333 85.333-38.4 85.333-85.333 85.333zm0-426.666c-320 0-499.2 307.2-507.733 320s-8.533 29.867 0 42.667 187.733 320 507.733 320 499.2-307.2 507.733-320c8.533-12.8 8.533-29.867 0-42.667S832 119.467 512 119.467zM93.867 460.8c42.667-64 192-256 418.133-256s375.467 192 418.133 256c-42.667 64-192 256-418.133 256s-375.467-192-418.133-256z"/><glyph unicode="" glyph-name="factory" d="M298.667-51.2h-256C17.067-51.2 0-34.133 0-8.533v938.667c0 25.6 17.067 42.667 42.667 42.667h170.667c25.6 0 42.667-17.067 42.667-42.667v-384c0-25.6-17.067-42.667-42.667-42.667s-42.667 17.067-42.667 42.667v341.333H85.334V34.134h213.333c25.6 0 42.667-17.067 42.667-42.667S324.267-51.2 298.667-51.2zm682.666 0H42.666C17.066-51.2-.001-34.133-.001-8.533v554.667c0 25.6 17.067 42.667 42.667 42.667s42.667-17.067 42.667-42.667v-512h853.333v469.333h-85.333c-25.6 0-42.667 17.067-42.667 42.667s17.067 42.667 42.667 42.667h128c25.6 0 42.667-17.067 42.667-42.667V-8.533c0-25.6-17.067-42.667-42.667-42.667zm-768 554.667c-12.8 0-25.6 4.267-34.133 17.067-12.8 17.067-12.8 46.933 8.533 59.733l213.333 170.667c12.8 8.533 29.867 12.8 46.933 4.267 12.8-8.533 21.333-21.333 21.333-38.4V546.134c0-25.6-17.067-42.667-42.667-42.667s-42.667 17.067-42.667 42.667v81.067l-145.067-115.2c-8.533-4.267-17.067-8.533-25.6-8.533zm213.334 0c-12.8 0-25.6 4.267-34.133 17.067-12.8 17.067-12.8 46.933 8.533 59.733L614.4 750.934c12.8 8.533 29.867 12.8 46.933 4.267 12.8-8.533 21.333-21.333 21.333-38.4V546.134c0-25.6-17.067-42.667-42.667-42.667s-42.667 17.067-42.667 42.667v81.067l-145.067-115.2c-8.533-4.267-17.067-8.533-25.6-8.533zm213.333 0c-12.8 0-25.6 4.267-34.133 17.067-12.8 17.067-12.8 46.933 8.533 59.733l213.333 170.667c12.8 8.533 29.867 12.8 46.933 4.267 12.8-8.533 21.333-21.333 21.333-38.4V546.134c0-25.6-17.067-42.667-42.667-42.667s-42.667 17.067-42.667 42.667v81.067l-145.067-115.2c-8.533-4.267-17.067-8.533-25.6-8.533zM810.667-51.2H213.334c-25.6 0-42.667 17.067-42.667 42.667V204.8c0 25.6 17.067 42.667 42.667 42.667h597.333c25.6 0 42.667-17.067 42.667-42.667V-8.533c0-25.6-17.067-42.667-42.667-42.667zM256 34.133h512v128H256v-128zM810.667 332.8H213.334c-25.6 0-42.667 17.067-42.667 42.667s17.067 42.667 42.667 42.667h597.333c25.6 0 42.667-17.067 42.667-42.667S836.267 332.8 810.667 332.8z"/><glyph unicode="" glyph-name="fast-forward" d="M128 162.133c-8.533 0-12.8 0-21.333 4.267-12.8 8.533-21.333 21.333-21.333 38.4v512c0 17.067 8.533 29.867 21.333 38.4s29.867 8.533 42.667 0l384-256c12.8-8.533 17.067-21.333 17.067-34.133s-8.533-25.6-17.067-34.133l-384-256c-4.267-8.533-12.8-12.8-21.333-12.8zm42.667 473.6V281.6L435.2 456.533l-264.533 179.2zM512 162.133c-8.533 0-12.8 0-21.333 4.267-12.8 8.533-21.333 21.333-21.333 38.4v512c0 17.067 8.533 29.867 21.333 38.4s29.867 8.533 42.667 0l384-256c12.8-8.533 17.067-21.333 17.067-34.133s-8.533-25.6-17.067-34.133l-384-256c-4.267-8.533-12.8-12.8-21.333-12.8zm42.667 473.6V281.6L819.2 456.533l-264.533 179.2zM896 162.133c-25.6 0-42.667 17.067-42.667 42.667v512c0 25.6 17.067 42.667 42.667 42.667s42.667-17.067 42.667-42.667v-512c0-25.6-17.067-42.667-42.667-42.667z"/><glyph unicode="" glyph-name="file" d="M853.333-51.2H170.666c-25.6 0-42.667 17.067-42.667 42.667v938.667c0 25.6 17.067 42.667 42.667 42.667h682.667c25.6 0 42.667-17.067 42.667-42.667V-8.533c0-25.6-17.067-42.667-42.667-42.667zm-640 85.333h597.333v853.333H213.333V34.133zm341.334 640H341.334c-25.6 0-42.667 17.067-42.667 42.667s17.067 42.667 42.667 42.667h213.333c25.6 0 42.667-17.067 42.667-42.667s-17.067-42.667-42.667-42.667zm128-170.666H341.334c-25.6 0-42.667 17.067-42.667 42.667s17.067 42.667 42.667 42.667h341.333c25.6 0 42.667-17.067 42.667-42.667s-17.067-42.667-42.667-42.667zM597.333 332.8h-256c-25.6 0-42.667 17.067-42.667 42.667s17.067 42.667 42.667 42.667h256c25.6 0 42.667-17.067 42.667-42.667S622.933 332.8 597.333 332.8zm85.334-170.667H341.334c-25.6 0-42.667 17.067-42.667 42.667s17.067 42.667 42.667 42.667h341.333c25.6 0 42.667-17.067 42.667-42.667s-17.067-42.667-42.667-42.667z"/><glyph unicode="" glyph-name="file-add" d="M853.333 631.467h-256c-25.6 0-42.667 17.067-42.667 42.667v256h85.333V716.801h213.333v-85.333zm-128-682.667H170.666c-25.6 0-42.667 17.067-42.667 42.667v938.667c0 25.6 17.067 42.667 42.667 42.667h426.667c12.8 0 21.333-4.267 29.867-12.8l256-256c8.533-8.533 12.8-17.067 12.8-29.867V460.801h-85.333v196.267l-230.4 230.4H213.334V34.135h512v-85.333zm128 256h-256c-25.6 0-42.667 17.067-42.667 42.667s17.067 42.667 42.667 42.667h256c25.6 0 42.667-17.067 42.667-42.667S878.933 204.8 853.333 204.8zm-128-128c-25.6 0-42.667 17.067-42.667 42.667v256c0 25.6 17.067 42.667 42.667 42.667S768 401.067 768 375.467v-256c0-25.6-17.067-42.667-42.667-42.667zm0-128c-166.4 0-298.667 132.267-298.667 298.667s132.267 298.667 298.667 298.667S1024 413.867 1024 247.467 891.733-51.2 725.333-51.2zm0 512C605.866 460.8 512 366.933 512 247.467S605.867 34.134 725.333 34.134s213.333 93.867 213.333 213.333S844.799 460.8 725.333 460.8z"/><glyph unicode="" glyph-name="file-remove" d="M853.333 631.467h-256c-25.6 0-42.667 17.067-42.667 42.667v256h85.333V716.801h213.333v-85.333zm-128-682.667H170.666c-25.6 0-42.667 17.067-42.667 42.667v938.667c0 25.6 17.067 42.667 42.667 42.667h426.667c12.8 0 21.333-4.267 29.867-12.8l256-256c8.533-8.533 12.8-17.067 12.8-29.867V460.801h-85.333v196.267l-230.4 230.4H213.334V34.135h512v-85.333zm128 256h-256c-25.6 0-42.667 17.067-42.667 42.667s17.067 42.667 42.667 42.667h256c25.6 0 42.667-17.067 42.667-42.667S878.933 204.8 853.333 204.8zm-128-256c-166.4 0-298.667 132.267-298.667 298.667s132.267 298.667 298.667 298.667S1024 413.867 1024 247.467 891.733-51.2 725.333-51.2zm0 512C605.866 460.8 512 366.933 512 247.467S605.867 34.134 725.333 34.134s213.333 93.867 213.333 213.333S844.799 460.8 725.333 460.8z"/><glyph unicode="" glyph-name="files" d="M682.667 119.467h-512c-25.6 0-42.667 17.067-42.667 42.667v768c0 25.6 17.067 42.667 42.667 42.667h512c25.6 0 42.667-17.067 42.667-42.667v-768c0-25.6-17.067-42.667-42.667-42.667zM213.333 204.8H640v682.667H213.333V204.8zm640-256h-512c-25.6 0-42.667 17.067-42.667 42.667v170.667c0 25.6 17.067 42.667 42.667 42.667S384 187.734 384 162.134v-128h426.667v682.667h-128c-25.6 0-42.667 17.067-42.667 42.667s17.067 42.667 42.667 42.667h170.667c25.6 0 42.667-17.067 42.667-42.667v-768c0-25.6-17.067-42.667-42.667-42.667z"/><glyph unicode="" glyph-name="filter" d="M426.667-51.2c-8.533 0-17.067 4.267-21.333 4.267-12.8 8.533-21.333 25.6-21.333 38.4v371.2L8.534 904.534c-8.533 12.8-12.8 29.867-4.267 46.933 8.533 12.8 21.333 21.333 38.4 21.333h938.667c17.067 0 29.867-8.533 38.4-21.333s4.267-29.867-4.267-42.667L640 362.667V76.8c0-17.067-8.533-29.867-25.6-38.4L443.733-46.933C439.466-51.2 435.2-51.2 426.666-51.2zM123.733 887.467l337.067-486.4c4.267-8.533 8.533-17.067 8.533-25.6V59.734l85.333 42.667v273.067c0 8.533 4.267 17.067 8.533 25.6l337.067 486.4H123.733z"/><glyph unicode="" glyph-name="fire" d="M512-51.2c-213.333 0-384 170.667-384 384 0 170.667 102.4 349.867 145.067 418.133C298.667 789.333 418.134 972.8 512 972.8c25.6 0 42.667-17.067 42.667-42.667S537.6 887.466 512 887.466c-59.733-8.533-298.667-315.733-298.667-554.667 0-166.4 132.267-298.667 298.667-298.667s298.667 132.267 298.667 298.667c0 34.133-4.267 68.267-12.8 110.933-21.333 81.067-59.733 174.933-115.2 260.267-12.8 21.333-8.533 46.933 12.8 59.733s46.933 8.533 59.733-12.8c59.733-93.867 102.4-196.267 128-285.867 8.533-46.933 12.8-93.867 12.8-132.267 0-213.333-170.667-384-384-384zm128 601.6c-12.8 0-25.6 4.267-34.133 12.8-89.6 102.4-136.533 230.4-136.533 366.933 0 25.6 17.067 42.667 42.667 42.667s42.667-17.067 42.667-42.667c0-115.2 42.667-226.133 115.2-311.467 17.067-17.067 12.8-42.667-4.267-59.733-4.267-4.267-17.067-8.533-25.6-8.533zm0 0c-12.8 0-21.333 4.267-29.867 12.8-17.067 17.067-17.067 42.667 0 59.733 29.867 34.133 55.467 72.533 64 115.2C678.4 759.466 704 772.266 725.333 768s38.4-29.867 29.867-51.2c-12.8-55.467-46.933-110.933-85.333-153.6-8.533-8.533-21.333-12.8-29.867-12.8zM512-51.2c-119.467 0-213.333 93.867-213.333 213.333 0 132.267 132.267 341.333 213.333 341.333 25.6 0 42.667-17.067 42.667-42.667 0-21.333-17.067-38.4-38.4-42.667C486.4 401.065 384 264.532 384 162.132c0-72.533 55.467-128 128-128s128 55.467 128 128c0 12.8-4.267 29.867-8.533 51.2-8.533 38.4-29.867 81.067-55.467 123.733-12.8 21.333-8.533 46.933 12.8 59.733s46.933 8.533 59.733-12.8C678.4 337.065 704 281.598 716.8 234.665c4.267-25.6 8.533-46.933 8.533-72.533 0-119.467-93.867-213.333-213.333-213.333zm64 298.667c-12.8 0-25.6 4.267-34.133 12.8-46.933 59.733-72.533 128-72.533 200.533 0 25.6 17.067 42.667 42.667 42.667s42.667-17.067 42.667-42.667c0-51.2 17.067-102.4 51.2-140.8 17.067-17.067 12.8-42.667-4.267-59.733-4.267-8.533-17.067-12.8-25.6-12.8zm0 0c-12.8 0-21.333 4.267-29.867 12.8-17.067 17.067-17.067 42.667 0 59.733 12.8 12.8 21.333 29.867 25.6 46.933 4.267 21.333 29.867 38.4 51.2 29.867 21.333-4.267 38.4-29.867 29.867-51.2-8.533-34.133-25.6-64-51.2-85.333-4.267-8.533-17.067-12.8-25.6-12.8z"/><glyph unicode="" glyph-name="first-aid" d="M341.333 802.133H256c0 72.533 55.467 128 128 128V844.8c-25.6 0-42.667-17.067-42.667-42.667zm426.667 0h-85.333c0 25.6-17.067 42.667-42.667 42.667v85.333c72.533 0 128-55.467 128-128zm0-128H256v128h85.333v-42.667h341.333v42.667h85.333zm-384 256h256V844.8H384v85.333zM896-8.533H128c-72.533 0-128 55.467-128 128v512c0 72.533 55.467 128 128 128h768c72.533 0 128-55.467 128-128v-512c0-72.533-55.467-128-128-128zM128 674.133c-25.6 0-42.667-17.067-42.667-42.667v-512c0-25.6 17.067-42.667 42.667-42.667h768c25.6 0 42.667 17.067 42.667 42.667v512c0 25.6-17.067 42.667-42.667 42.667H128zm384-512c-25.6 0-42.667 17.067-42.667 42.667v341.333c0 25.6 17.067 42.667 42.667 42.667s42.667-17.067 42.667-42.667V204.8c0-25.6-17.067-42.667-42.667-42.667zM682.667 332.8H341.334c-25.6 0-42.667 17.067-42.667 42.667s17.067 42.667 42.667 42.667h341.333c25.6 0 42.667-17.067 42.667-42.667S708.267 332.8 682.667 332.8z"/><glyph unicode="" glyph-name="flag" d="M170.667-51.2h-128C17.067-51.2 0-34.133 0-8.533v938.667c0 25.6 17.067 42.667 42.667 42.667h128c25.6 0 42.667-17.067 42.667-42.667V-8.533c0-25.6-17.067-42.667-42.667-42.667zM85.333 34.133H128v853.333H85.333V34.133zM426.667 332.8c-89.6 0-260.267 42.667-264.533 42.667-21.333 4.267-38.4 29.867-29.867 51.2 4.267 21.333 29.867 38.4 51.2 29.867 0 0 166.4-42.667 247.467-42.667 38.4 0 102.4 8.533 162.133 21.333 68.267 12.8 132.267 21.333 179.2 21.333 55.467 0 123.733-17.067 170.667-29.867v430.933c-46.933 8.533-119.467 29.867-174.933 29.867-38.4 0-102.4-8.533-162.133-21.333-68.267-12.8-132.267-21.333-179.2-21.333-89.6 0-260.267 42.667-264.533 42.667-25.6 8.533-38.4 29.867-34.133 51.2 8.533 25.6 29.867 38.4 51.2 34.133 0 0 166.4-42.667 247.467-42.667 38.4 0 102.4 8.533 162.133 21.333 68.267 12.8 132.267 21.333 179.2 21.333 89.6 0 221.867-42.667 226.133-46.933 17.067-4.267 29.867-21.333 29.867-38.4v-512c0-12.8-8.533-25.6-17.067-34.133-12.8-8.533-25.6-8.533-38.4-4.267 0 0-123.733 38.4-200.533 38.4-38.4 0-102.4-8.533-162.133-21.333-68.267-12.8-132.267-21.333-179.2-21.333z"/><glyph unicode="" glyph-name="floppy" d="M981.333-51.2h-768c-12.8 0-21.333 4.267-29.867 12.8L12.799 132.267c-8.533 8.533-12.8 17.067-12.8 29.867v768c0 25.6 17.067 42.667 42.667 42.667h938.667c25.6 0 42.667-17.067 42.667-42.667V-8.533c0-25.6-17.067-42.667-42.667-42.667zM230.4 34.133h708.267v853.333H85.334V179.199L230.401 34.132zM768-51.2H256c-25.6 0-42.667 17.067-42.667 42.667v298.667c0 25.6 17.067 42.667 42.667 42.667h512c25.6 0 42.667-17.067 42.667-42.667V-8.533c0-25.6-17.067-42.667-42.667-42.667zM298.667 34.133h426.667v213.333H298.667V34.133zm42.666 85.334h128V-51.2h-128v170.667zM512-51.2H341.333v213.333H512V-51.2zM384-8.533h85.333v128H384v-128zm426.667 426.666H213.334c-25.6 0-42.667 17.067-42.667 42.667v469.333c0 25.6 17.067 42.667 42.667 42.667h597.333c25.6 0 42.667-17.067 42.667-42.667V460.8c0-25.6-17.067-42.667-42.667-42.667zM256 503.467h512v384H256v-384z"/><glyph unicode="" glyph-name="folder" d="M853.333 34.133H42.666C17.066 34.133-.001 51.2-.001 76.8v768c0 25.6 17.067 42.667 42.667 42.667h298.667c25.6 0 42.667-17.067 42.667-42.667v-42.667h469.333c25.6 0 42.667-17.067 42.667-42.667V588.799c0-25.6-17.067-42.667-42.667-42.667s-42.667 17.067-42.667 42.667v128H341.333c-25.6 0-42.667 17.067-42.667 42.667v42.667H85.333V119.466h768c25.6 0 42.667-17.067 42.667-42.667s-17.067-42.667-42.667-42.667zm0 0H42.666c-12.8 0-25.6 4.267-34.133 17.067S0 72.533 0 85.333l128 512c4.267 21.333 21.333 34.133 42.667 34.133h810.667c12.8 0 25.6-4.267 34.133-17.067s8.533-21.333 8.533-34.133l-128-512c-4.267-21.333-21.333-34.133-42.667-34.133zm-755.2 85.334H819.2l106.667 426.667H204.8L98.133 119.467z"/><glyph unicode="" glyph-name="folder-add" d="M482.133 119.467H42.666c-25.6 0-42.667 17.067-42.667 42.667v768c0 25.6 17.067 42.667 42.667 42.667h298.667c25.6 0 42.667-17.067 42.667-42.667v-42.667h469.333c25.6 0 42.667-17.067 42.667-42.667V674.133c0-25.6-17.067-42.667-42.667-42.667s-42.667 17.067-42.667 42.667v128H341.333c-25.6 0-42.667 17.067-42.667 42.667v42.667H85.333V204.8h396.8c25.6 0 42.667-17.067 42.667-42.667s-17.067-42.667-42.667-42.667zm-12.8 0H42.666c-12.8 0-25.6 4.267-34.133 17.067C0 145.067 0 157.867 0 170.667l128 512C132.267 704 149.333 716.8 170.667 716.8h810.667c12.8 0 25.6-4.267 34.133-17.067 8.533-8.533 8.533-25.6 8.533-38.4L951.467 409.6c-4.267-21.333-29.867-34.133-51.2-29.867s-34.133 29.867-29.867 51.2l55.467 200.533H204.8L98.133 204.799h371.2c25.6 0 42.667-17.067 42.667-42.667s-17.067-42.667-42.667-42.667zm384 85.333h-256c-25.6 0-42.667 17.067-42.667 42.667s17.067 42.667 42.667 42.667h256c25.6 0 42.667-17.067 42.667-42.667S878.933 204.8 853.333 204.8zm-128-128c-25.6 0-42.667 17.067-42.667 42.667v256c0 25.6 17.067 42.667 42.667 42.667S768 401.067 768 375.467v-256c0-25.6-17.067-42.667-42.667-42.667zm0-128c-166.4 0-298.667 132.267-298.667 298.667s132.267 298.667 298.667 298.667S1024 413.867 1024 247.467 891.733-51.2 725.333-51.2zm0 512C605.866 460.8 512 366.933 512 247.467S605.867 34.134 725.333 34.134s213.333 93.867 213.333 213.333S844.799 460.8 725.333 460.8z"/><glyph unicode="" glyph-name="folder-remove" d="M482.133 119.467H42.666c-25.6 0-42.667 17.067-42.667 42.667v768c0 25.6 17.067 42.667 42.667 42.667h298.667c25.6 0 42.667-17.067 42.667-42.667v-42.667h469.333c25.6 0 42.667-17.067 42.667-42.667V674.133c0-25.6-17.067-42.667-42.667-42.667s-42.667 17.067-42.667 42.667v128H341.333c-25.6 0-42.667 17.067-42.667 42.667v42.667H85.333V204.8h396.8c25.6 0 42.667-17.067 42.667-42.667s-17.067-42.667-42.667-42.667zm-12.8 0H42.666c-12.8 0-25.6 4.267-34.133 17.067C0 145.067 0 157.867 0 170.667l128 512C132.267 704 149.333 716.8 170.667 716.8h810.667c12.8 0 25.6-4.267 34.133-17.067 8.533-8.533 8.533-25.6 8.533-38.4L951.467 409.6c-4.267-21.333-29.867-34.133-51.2-29.867s-34.133 29.867-29.867 51.2l55.467 200.533H204.8L98.133 204.799h371.2c25.6 0 42.667-17.067 42.667-42.667s-17.067-42.667-42.667-42.667zm384 85.333h-256c-25.6 0-42.667 17.067-42.667 42.667s17.067 42.667 42.667 42.667h256c25.6 0 42.667-17.067 42.667-42.667S878.933 204.8 853.333 204.8zm-128-256c-166.4 0-298.667 132.267-298.667 298.667s132.267 298.667 298.667 298.667S1024 413.867 1024 247.467 891.733-51.2 725.333-51.2zm0 512C605.866 460.8 512 366.933 512 247.467S605.867 34.134 725.333 34.134s213.333 93.867 213.333 213.333S844.799 460.8 725.333 460.8z"/><glyph unicode="" glyph-name="fork-knife" d="M341.333 546.133c-93.867 0-170.667 76.8-170.667 170.667v213.333c0 25.6 17.067 42.667 42.667 42.667h256c25.6 0 42.667-17.067 42.667-42.667V716.8c0-93.867-76.8-170.667-170.667-170.667zM256 887.467V716.8c0-46.933 38.4-85.333 85.333-85.333s85.333 38.4 85.333 85.333v170.667H255.999zM341.333-51.2c-25.6 0-42.667 17.067-42.667 42.667v554.667c0 25.6 17.067 42.667 42.667 42.667S384 571.734 384 546.134V-8.533c0-25.6-17.067-42.667-42.667-42.667zM640-51.2c-25.6 0-42.667 17.067-42.667 42.667v938.667c0 25.6 17.067 42.667 42.667 42.667s42.667-17.067 42.667-42.667V-8.533c0-25.6-17.067-42.667-42.667-42.667zm170.667 384H640c-25.6 0-42.667 17.067-42.667 42.667v554.667c0 25.6 17.067 42.667 42.667 42.667 119.467 0 213.333-93.867 213.333-213.333v-384c0-25.6-17.067-42.667-42.667-42.667zm-128 85.333H768v341.333c0 55.467-34.133 102.4-85.333 119.467v-460.8z"/><glyph unicode="" glyph-name="form" d="M938.667 716.8H85.334C38.401 716.8.001 755.2.001 802.133v85.333c0 46.933 38.4 85.333 85.333 85.333h853.333c46.933 0 85.333-38.4 85.333-85.333v-85.333c0-46.933-38.4-85.333-85.333-85.333zm0 85.333zM85.333 887.467v-85.333h853.333v85.333H85.333zM938.667 332.8H85.334C38.401 332.8.001 371.2.001 418.133v85.333c0 46.933 38.4 85.333 85.333 85.333h853.333c46.933 0 85.333-38.4 85.333-85.333v-85.333c0-46.933-38.4-85.333-85.333-85.333zm0 85.333zM85.333 503.467v-85.333h853.333v85.333H85.333zm384-512h-384C64-8.533 42.666 12.8 42.666 34.134v85.333c0 21.333 21.333 42.667 42.667 42.667h384c25.6 0 42.667-21.333 42.667-42.667V34.134c0-21.333-17.067-42.667-42.667-42.667zm0-42.667h-384C38.4-51.2 0-12.8 0 34.133v85.333c0 46.933 38.4 85.333 85.333 85.333h384c46.933 0 85.333-38.4 85.333-85.333V34.133c0-46.933-38.4-85.333-85.333-85.333zm0 85.333zm-384 85.334V34.134h384v85.333h-384z"/><glyph unicode="" glyph-name="frame" d="M170.667 34.133C145.067 34.133 128 51.2 128 76.8v768c0 25.6 17.067 42.667 42.667 42.667s42.667-17.067 42.667-42.667v-768c0-25.6-17.067-42.667-42.667-42.667zm682.666 0c-25.6 0-42.667 17.067-42.667 42.667v768c0 25.6 17.067 42.667 42.667 42.667S896 870.4 896 844.8v-768c0-25.6-17.067-42.667-42.667-42.667zm128 640H42.666c-25.6 0-42.667 17.067-42.667 42.667s17.067 42.667 42.667 42.667h938.667c25.6 0 42.667-17.067 42.667-42.667s-17.067-42.667-42.667-42.667zm0-512H42.666c-25.6 0-42.667 17.067-42.667 42.667s17.067 42.667 42.667 42.667h938.667c25.6 0 42.667-17.067 42.667-42.667s-17.067-42.667-42.667-42.667z"/><glyph unicode="" glyph-name="full-screen" d="M213.333 76.8H42.666c-25.6 0-42.667 17.067-42.667 42.667v170.667c0 25.6 17.067 42.667 42.667 42.667s42.667-17.067 42.667-42.667v-128h128c25.6 0 42.667-17.067 42.667-42.667S238.933 76.8 213.333 76.8zm768 0H810.666c-25.6 0-42.667 17.067-42.667 42.667s17.067 42.667 42.667 42.667h128v128c0 25.6 17.067 42.667 42.667 42.667S1024 315.734 1024 290.134V119.467c0-25.6-17.067-42.667-42.667-42.667zm0 512c-25.6 0-42.667 17.067-42.667 42.667v128h-128c-25.6 0-42.667 17.067-42.667 42.667s17.067 42.667 42.667 42.667h170.667c25.6 0 42.667-17.067 42.667-42.667V631.467c0-25.6-17.067-42.667-42.667-42.667zm-938.666 0C17.067 588.8 0 605.867 0 631.467v170.667c0 25.6 17.067 42.667 42.667 42.667h170.667c25.6 0 42.667-17.067 42.667-42.667s-17.067-42.667-42.667-42.667h-128v-128c0-25.6-17.067-42.667-42.667-42.667z"/><glyph unicode="" glyph-name="gift" d="M938.667-51.2H85.334c-25.6 0-42.667 17.067-42.667 42.667v512c0 25.6 17.067 42.667 42.667 42.667h853.333c25.6 0 42.667-17.067 42.667-42.667v-512c0-25.6-17.067-42.667-42.667-42.667zM128 34.133h768V460.8H128V34.133zM981.333 460.8H42.666c-25.6 0-42.667 17.067-42.667 42.667v170.667c0 25.6 17.067 42.667 42.667 42.667h938.667c25.6 0 42.667-17.067 42.667-42.667V503.467c0-25.6-17.067-42.667-42.667-42.667zm-896 85.333h853.333v85.333H85.333v-85.333zM512-51.2c-25.6 0-42.667 17.067-42.667 42.667v682.667c0 25.6 17.067 42.667 42.667 42.667s42.667-17.067 42.667-42.667V-8.533c0-25.6-17.067-42.667-42.667-42.667zm128 682.667c-25.6 0-42.667 17.067-42.667 42.667S614.4 716.801 640 716.801c46.933 0 85.333 38.4 85.333 85.333s-38.4 85.333-85.333 85.333-85.333-38.4-85.333-85.333c0-25.6-17.067-42.667-42.667-42.667s-42.667 17.067-42.667 42.667c0 93.867 76.8 170.667 170.667 170.667s170.667-76.8 170.667-170.667S733.867 631.467 640 631.467zm-256 0c-93.867 0-170.667 76.8-170.667 170.667S290.133 972.801 384 972.801s170.667-76.8 170.667-170.667c0-25.6-17.067-42.667-42.667-42.667s-42.667 17.067-42.667 42.667c0 46.933-38.4 85.333-85.333 85.333s-85.333-38.4-85.333-85.333 38.4-85.333 85.333-85.333c25.6 0 42.667-17.067 42.667-42.667S409.6 631.467 384 631.467zm128-85.334c-25.6 0-42.667 17.067-42.667 42.667v213.333c0 25.6 17.067 42.667 42.667 42.667s42.667-17.067 42.667-42.667V588.8c0-25.6-17.067-42.667-42.667-42.667z"/><glyph unicode="" glyph-name="glass" d="M512 332.8c-145.067 0-256 115.2-256 256v341.333c0 25.6 17.067 42.667 42.667 42.667h426.667c25.6 0 42.667-17.067 42.667-42.667V588.8c0-140.8-115.2-256-256-256zM341.333 887.467V588.8c0-93.867 76.8-170.667 170.667-170.667s170.667 76.8 170.667 170.667v298.667H341.334zM640-51.2H384c-25.6 0-42.667 17.067-42.667 42.667S358.4 34.134 384 34.134h256c25.6 0 42.667-17.067 42.667-42.667S665.6-51.2 640-51.2zm-128 0c-25.6 0-42.667 21.333-42.667 42.667v384c0 21.333 21.333 42.667 42.667 42.667 25.6 0 42.667-21.333 42.667-42.667v-384c0-25.6-21.333-42.667-42.667-42.667zm213.333 725.333h-4.267L294.399 716.8c-21.333 4.267-38.4 21.333-38.4 46.933 4.267 21.333 21.333 38.4 46.933 38.4l426.667-42.667c21.333-4.267 42.667-21.333 38.4-46.933-4.267-21.333-21.333-38.4-42.667-38.4z"/><glyph unicode="" glyph-name="glasses" d="M213.333 76.8C93.866 76.8 0 170.667 0 290.133s93.867 213.333 213.333 213.333 213.333-93.867 213.333-213.333S332.799 76.8 213.333 76.8zm0 341.333c-72.533 0-128-55.467-128-128s55.467-128 128-128 128 55.467 128 128-55.467 128-128 128zM810.667 76.8c-119.467 0-213.333 93.867-213.333 213.333s93.867 213.333 213.333 213.333S1024 409.599 1024 290.133 930.133 76.8 810.667 76.8zm0 341.333c-72.533 0-128-55.467-128-128s55.467-128 128-128 128 55.467 128 128-55.467 128-128 128zm-166.4-145.066c-12.8 0-25.6 4.267-34.133 17.067-25.6 25.6-59.733 42.667-98.133 42.667s-72.533-17.067-98.133-46.933c-17.067-17.067-42.667-21.333-59.733-4.267s-21.333 42.667-4.267 59.733c42.667 46.933 98.133 76.8 162.133 76.8s123.733-25.6 162.133-76.8c17.067-17.067 12.8-46.933-4.267-59.733-8.533-4.267-17.067-8.533-25.6-8.533zm-601.6-25.6C17.067 247.467 0 264.534 0 290.134c0 166.4 17.067 554.667 170.667 554.667 93.867 0 128-76.8 128-128 0-25.6-17.067-42.667-42.667-42.667s-42.667 17.067-42.667 42.667c0 21.333-8.533 42.667-42.667 42.667-38.4 0-85.333-217.6-85.333-469.333 0-25.6-17.067-42.667-42.667-42.667zm938.666 0c-25.6 0-42.667 17.067-42.667 42.667 0 324.267-59.733 469.333-85.333 469.333-34.133 0-42.667-25.6-42.667-42.667 0-21.333-21.333-42.667-42.667-42.667-21.333 0-42.667 17.067-42.667 42.667 0 51.2 34.133 128 128 128 153.6 0 170.667-388.267 170.667-554.667 0-25.6-17.067-42.667-42.667-42.667z"/><glyph unicode="" glyph-name="grid" d="M426.667 503.467h-384C17.067 503.467 0 520.534 0 546.134v384c0 25.6 17.067 42.667 42.667 42.667h384c25.6 0 42.667-17.067 42.667-42.667v-384c0-25.6-17.067-42.667-42.667-42.667zM85.333 588.8H384v298.667H85.333V588.8zm896-85.333h-384c-25.6 0-42.667 17.067-42.667 42.667v384c0 25.6 17.067 42.667 42.667 42.667h384c25.6 0 42.667-17.067 42.667-42.667v-384c0-25.6-17.067-42.667-42.667-42.667zM640 588.8h298.667v298.667H640V588.8zm-213.333-640h-384C17.067-51.2 0-34.133 0-8.533v384c0 25.6 17.067 42.667 42.667 42.667h384c25.6 0 42.667-17.067 42.667-42.667v-384c0-25.6-17.067-42.667-42.667-42.667zM85.333 34.133H384V332.8H85.333V34.133zm896-85.333h-384c-25.6 0-42.667 17.067-42.667 42.667v384c0 25.6 17.067 42.667 42.667 42.667h384c25.6 0 42.667-17.067 42.667-42.667v-384c0-25.6-17.067-42.667-42.667-42.667zM640 34.133h298.667V332.8H640V34.133z"/><glyph unicode="" glyph-name="group" d="M213.333 716.8H42.666c-25.6 0-42.667 17.067-42.667 42.667v170.667c0 25.6 17.067 42.667 42.667 42.667h170.667c25.6 0 42.667-17.067 42.667-42.667V759.467c0-25.6-17.067-42.667-42.667-42.667zm-128 85.333h85.333v85.333H85.333v-85.333zm896-85.333H810.666c-25.6 0-42.667 17.067-42.667 42.667v170.667c0 25.6 17.067 42.667 42.667 42.667h170.667c25.6 0 42.667-17.067 42.667-42.667V759.467c0-25.6-17.067-42.667-42.667-42.667zm-128 85.333h85.333v85.333h-85.333v-85.333zm-640-853.333H42.666C17.066-51.2-.001-34.133-.001-8.533v170.667c0 25.6 17.067 42.667 42.667 42.667h170.667c25.6 0 42.667-17.067 42.667-42.667V-8.533c0-25.6-17.067-42.667-42.667-42.667zm-128 85.333h85.333v85.333H85.333V34.133zm896-85.333H810.666c-25.6 0-42.667 17.067-42.667 42.667v170.667c0 25.6 17.067 42.667 42.667 42.667h170.667c25.6 0 42.667-17.067 42.667-42.667V-8.533c0-25.6-17.067-42.667-42.667-42.667zm-128 85.333h85.333v85.333h-85.333V34.133zM128 119.467c-25.6 0-42.667 17.067-42.667 42.667v597.333c0 25.6 17.067 42.667 42.667 42.667s42.667-17.067 42.667-42.667V162.134c0-25.6-17.067-42.667-42.667-42.667zm682.667-85.334H213.334c-25.6 0-42.667 17.067-42.667 42.667s17.067 42.667 42.667 42.667h597.333c25.6 0 42.667-17.067 42.667-42.667s-17.067-42.667-42.667-42.667zM896 119.467c-25.6 0-42.667 17.067-42.667 42.667v597.333c0 25.6 17.067 42.667 42.667 42.667s42.667-17.067 42.667-42.667V162.134c0-25.6-17.067-42.667-42.667-42.667zm-85.333 682.666H213.334c-25.6 0-42.667 17.067-42.667 42.667s17.067 42.667 42.667 42.667h597.333c25.6 0 42.667-17.067 42.667-42.667s-17.067-42.667-42.667-42.667z"/></font>
</defs>
</svg>
