<svg xmlns="http://www.w3.org/2000/svg" width="859.765" height="268.228" viewBox="0 0 227.48 70.969"><g stroke="#fff"><g fill="none" stroke-width="4.913"><path d="M226.637 55.078l-4.35.808a.376.376 0 00-.257.222l-1.333 3.11a.36.36 0 00.021.337l2.534 3.693a.246.246 0 01-.027.3l-3.166 3.166a.245.245 0 01-.3.028l-3.758-2.58a.371.371 0 00-.338-.024l-3.015 1.234a.368.368 0 00-.223.255l-.837 4.499a.246.246 0 01-.232.193h-4.477a.246.246 0 01-.232-.193l-.837-4.499a.368.368 0 00-.222-.255l-3.015-1.234a.371.371 0 00-.338.025l-3.758 2.579a.246.246 0 01-.301-.028l-3.166-3.165a.246.246 0 01-.027-.3l2.534-3.694c.061-.09.07-.24.021-.337l-1.333-3.11a.374.374 0 00-.258-.222l-4.35-.808a.246.246 0 01-.192-.233V50.37c0-.108.087-.213.193-.233l4.243-.79a.36.36 0 00.252-.222l1.324-3.309a.371.371 0 00-.025-.338l-2.41-3.511a.247.247 0 01.028-.301l3.166-3.165a.247.247 0 01.3-.028l3.45 2.368c.089.06.277.129.33.01l3.148-6.305m3.713-7.465l2.095-4.16h0c1.373-.879 2.856-2.78 2.856-4.533a4.95 4.95 0 10-9.901 0c0 1.752 1.482 3.654 2.855 4.534h0l2.095 4.16m0 0l6.81 13.716c.078.13.243.05.332-.011l3.45-2.368a.247.247 0 01.3.028l3.216 3.219a.246.246 0 01.027.3l-2.41 3.512a.373.373 0 00-.025.338l1.325 3.309a.359.359 0 00.252.223l4.242.79c.106.019.193.124.193.232v4.476a.246.246 0 01-.192.233M214.804 30.58c-.541 1.2-1.371 2.686-1.912 3.886z" stroke-width="1.29988154"/><path d="M214.515 30.868l1.463-.75a.338.338 0 01.33.011l3.45 2.368c.09.06.225.048.3-.028l3.167-3.165a.246.246 0 00.027-.3l-2.41-3.513a.373.373 0 01-.025-.337l1.325-3.309a.359.359 0 01.252-.223l4.242-.79a.246.246 0 00.193-.232v-4.476c0-.109-.086-.213-.231-.243l-4.31-.799a.376.376 0 01-.258-.221l-1.333-3.11a.36.36 0 01.021-.337l2.534-3.694a.246.246 0 00-.027-.3l-3.166-3.165a.245.245 0 00-.3-.028l-3.758 2.58a.371.371 0 01-.338.023l-3.015-1.234a.368.368 0 01-.223-.254l-.837-4.5a.246.246 0 00-.232-.192h-4.477a.246.246 0 00-.232.193l-.837 4.499a.368.368 0 01-.222.254l-3.015 1.234a.371.371 0 01-.338-.024l-3.758-2.58a.246.246 0 00-.301.029L195.01 7.42a.246.246 0 00-.027.3l2.534 3.694c.061.09.07.24.021.336l-1.333 3.11a.374.374 0 01-.258.222l-4.35.81a.246.246 0 00-.192.231V20.6c0 .108.087.213.193.232l4.243.79c.106.019.22.12.252.223l1.324 3.308a.371.371 0 01-.025.338l-2.41 3.512a.247.247 0 00.028.3l3.166 3.166a.247.247 0 00.3.028l3.45-2.368a.339.339 0 01.33-.011l1.522.812h0l7.765 17.297c.07.043.166.116.24.184a4.95 4.95 0 01-2.666 9.12c-2.734 0-4.892-2.278-4.892-5.012 0-1.752.91-3.29 2.284-4.17.075-.068.17-.142.241-.185l2.384-5.346" stroke-width="1.29988154"/></g><g aria-label="Reservoir" style="line-height:1.25;-inkscape-font-specification:'Estrangelo Talada'"><g aria-label="interrupt labs" style="line-height:1.25;-inkscape-font-specification:'Calling Code'" font-size="36.576" font-family="Calling Code" stroke-width=".255" font-weight="400" letter-spacing="0" word-spacing=".265" fill="#fff"><path d="M1.033 24.456h6.144V11.65H1.033V9.132h9.002v15.324h6.143v2.518H1.033zm7.18-18.914q-1.054 0-1.768-.714-.715-.714-.715-1.768 0-1.072.715-1.786Q7.159.56 8.213.56q1.072 0 1.786.714t.714 1.786q0 1.054-.714 1.768t-1.786.714zM21.518 9.132h2.536l.179 3.036h.143q.768-1.696 2.214-2.59 1.465-.892 3.483-.892 2.822 0 4.304 1.75 1.482 1.732 1.482 5.054v11.484h-2.857V15.597q0-2.143-.911-3.214-.91-1.072-2.697-1.072-1.464 0-2.607.697-1.143.678-1.786 1.893-.625 1.214-.625 2.75v10.323h-2.858zM50.933 27.42q-2.93 0-4.519-1.59-1.59-1.589-1.59-4.518V11.65h-4.571V9.132h4.715l.446-6.304h2.268v6.304h8.073v2.518h-8.073v9.287q0 3.84 3.286 3.84 3.322 0 3.322-3.84v-1.321h2.786v1.696q0 2.93-1.59 4.519-1.589 1.59-4.553 1.59zM69.846 27.42q-3.93 0-5.983-2.393-2.036-2.411-2.036-7.019 0-4.536 2-6.93 2-2.392 5.804-2.392 3.804 0 5.787 2.393 2 2.393 2 6.93 0 .517-.036.767h-12.59q.267 6.001 5.09 6.001 3.018 0 4.125-2.34h3.197q-.786 2.411-2.643 3.697-1.84 1.286-4.715 1.286zm4.536-11.055q-.304-2.5-1.5-3.768-1.197-1.286-3.25-1.286-2.054 0-3.269 1.286-1.197 1.268-1.5 3.768zM83.705 9.132h2.518l.196 3.036h.143q.768-1.679 2.197-2.571 1.428-.911 3.393-.911 2.768 0 4.233 1.75 1.482 1.732 1.482 5.054v2.375H95.01v-2.018q0-2.214-.947-3.375-.929-1.161-2.679-1.161-1.393 0-2.5.697-1.09.678-1.715 1.893-.607 1.214-.607 2.75v10.323h-2.857zM104.19 9.132h2.517l.197 3.036h.143q.768-1.679 2.196-2.571 1.43-.911 3.394-.911 2.768 0 4.232 1.75 1.483 1.732 1.483 5.054v2.375h-2.858v-2.018q0-2.214-.946-3.375-.929-1.161-2.68-1.161-1.392 0-2.5.697-1.089.678-1.714 1.893-.607 1.214-.607 2.75v10.323h-2.858zM137.997 26.974h-2.536l-.179-3.036h-.142q-.768 1.696-2.233 2.59-1.447.892-3.482.892-2.822 0-4.305-1.732-1.464-1.75-1.464-5.072V9.132h2.857V20.51q0 2.125.911 3.196.911 1.072 2.697 1.072 1.465 0 2.608-.679 1.143-.696 1.768-1.91.643-1.215.643-2.751V9.132h2.857zM144.248 9.132h2.518l.196 3.036h.143q.661-1.696 2.018-2.59 1.376-.892 3.394-.892 2.25 0 3.84 1.143 1.607 1.125 2.446 3.232.84 2.108.84 4.983 0 2.875-.84 4.983-.84 2.107-2.447 3.25-1.589 1.143-3.804 1.143-1.893 0-3.25-.857t-2.054-2.447h-.143v10.912h-2.857zm7.786 15.645q2.233 0 3.43-1.732 1.214-1.75 1.214-5.001 0-3.25-1.215-4.983-1.196-1.75-3.429-1.75-1.482 0-2.607.768-1.107.75-1.714 2.179-.608 1.41-.608 3.357v.875q0 1.947.608 3.376.607 1.41 1.714 2.16 1.125.751 2.607.751zM173.84 27.42q-2.928 0-4.518-1.59-1.59-1.589-1.59-4.518V11.65h-4.571V9.132h4.715l.446-6.304h2.268v6.304h8.073v2.518h-8.073v9.287q0 3.84 3.287 3.84 3.321 0 3.321-3.84v-1.321h2.786v1.696q0 2.93-1.59 4.519-1.589 1.59-4.553 1.59zM10.808 61.873q-2.93 0-4.519-1.59-1.59-1.589-1.59-4.518V37.978H.129v-2.519h7.43V55.39q0 3.84 3.285 3.84 3.322 0 3.322-3.84V54.07h2.786v1.696q0 2.93-1.59 4.519-1.589 1.59-4.553 1.59zM27.238 61.873q-1.768 0-3.072-.643-1.303-.66-2.018-1.857-.696-1.214-.696-2.84 0-2.59 1.786-3.947 1.786-1.357 5.161-1.357h5.019v-1.357q0-2.036-1.09-3.072t-3.232-1.036q-1.75 0-2.787.679-1.035.679-1.339 2h-2.893q.34-2.625 2.125-3.965 1.804-1.34 4.965-1.34 3.5 0 5.286 1.662 1.804 1.643 1.804 4.893v11.734H33.74l-.179-3.036h-.142q-.858 1.643-2.483 2.572-1.607.91-3.697.91zm.572-2.643q1.571 0 2.857-.678 1.286-.697 2.018-1.876.733-1.196.733-2.643v-.357h-5.019q-1.929 0-2.965.732-1.018.715-1.018 2.09 0 1.286.893 2.018.893.714 2.5.714zM50.938 61.873q-2.019 0-3.394-.893-1.357-.893-2.018-2.59h-.143l-.196 3.037h-2.518V35.459h2.857v10.966h.143q.697-1.572 2.054-2.429 1.357-.857 3.25-.857 2.215 0 3.804 1.143 1.608 1.143 2.447 3.25.84 2.108.84 4.965 0 2.893-.84 5-.84 2.108-2.447 3.251-1.59 1.125-3.84 1.125zm-.483-2.643q2.233 0 3.43-1.732 1.214-1.75 1.214-5 0-3.251-1.215-4.984-1.196-1.75-3.429-1.75-1.482 0-2.607.768-1.107.75-1.715 2.179-.607 1.41-.607 3.358v.875q0 1.946.607 3.375.608 1.411 1.715 2.161 1.125.75 2.607.75zM70.35 61.873q-3.357 0-5.304-1.34-1.946-1.339-2.107-3.75h2.929q.179 1.197 1.322 1.822 1.16.625 3.16.625 2.126 0 3.269-.714 1.16-.715 1.16-2.108 0-1.071-.785-1.643-.768-.589-2.572-.84l-2.607-.356q-2.733-.393-4.036-1.608-1.304-1.214-1.304-3.375 0-2.643 1.786-4.036 1.804-1.411 5.018-1.411 3.09 0 4.876 1.268 1.804 1.268 1.964 3.59h-2.964q-.09-.965-1.108-1.59-1-.643-2.732-.643-1.804 0-2.857.715-1.054.696-1.054 1.928 0 1.072.786 1.661.785.59 2.59.822l2.589.375q2.75.375 4.036 1.59 1.304 1.196 1.304 3.375 0 2.75-1.929 4.197-1.911 1.446-5.43 1.446z"/></g></g><text style="line-height:1.25;-inkscape-font-specification:'Estrangelo Talada'" x="63.201" y="159.017" font-weight="400" font-size="76.2" font-family="Estrangelo Talada" letter-spacing="0" word-spacing=".265" fill="#fff" stroke-width=".265" transform="translate(158.074 -104.93)"/></g></svg>