<svg xmlns="http://www.w3.org/2000/svg" width="300" height="300" viewBox="0 0 79.375 79.375"><path style="fill:#000;fill-opacity:1;stroke:none;stroke-width:1.19326" transform="rotate(.047) skewX(-.024)" d="M-.071.025h79.277v79.31H-.071z"/><g style="display:inline"><g style="display:inline;fill:none;fill-opacity:.999999;stroke:#fff;stroke-width:1.3;stroke-miterlimit:4;stroke-dasharray:none;stroke-opacity:1"><g style="fill:none;fill-opacity:.999999;stroke:#fff;stroke-width:1.3;stroke-miterlimit:4;stroke-dasharray:none;stroke-opacity:1" fill="#0099b0"><path d="m150.005 198.606-16.44 3.057c-.4.075-.837.451-.972.837l-5.04 11.756c-.187.363-.151.933.08 1.271l9.579 13.96a.932.932 0 0 1-.105 1.136l-11.963 11.963a.927.927 0 0 1-1.135.105l-14.205-9.748c-.336-.23-.912-.272-1.277-.092l-11.396 4.665c-.387.128-.764.561-.84.962l-3.165 17.003a.929.929 0 0 1-.877.73h-16.92a.928.928 0 0 1-.876-.73l-3.164-17.003c-.076-.4-.452-.834-.84-.962l-11.397-4.665c-.366-.18-.942-.139-1.277.092l-14.204 9.748a.929.929 0 0 1-1.136-.105L30.47 230.623a.93.93 0 0 1-.105-1.136l9.579-13.96c.23-.338.266-.908.079-1.27l-5.04-11.757c-.134-.386-.571-.762-.973-.837l-16.438-3.057a.93.93 0 0 1-.73-.878l.002-16.919c0-.408.328-.805.729-.878l16.035-2.984c.4-.073.83-.454.952-.843l5.006-12.505c.179-.367.137-.94-.095-1.277l-9.108-13.273a.933.933 0 0 1 .105-1.137l11.965-11.963a.934.934 0 0 1 1.136-.105l13.038 8.95c.336.23 1.046.487 1.25.042l11.897-23.832M83.789 92.79l7.915-15.72c5.192-3.325 10.794-10.513 10.794-17.135 0-10.334-8.377-18.711-18.71-18.711S65.077 49.6 65.077 59.934c0 6.623 5.602 13.81 10.793 17.135l7.919 15.721m0 0 25.74 51.843c.292.49.914.188 1.25-.043l13.039-8.949a.933.933 0 0 1 1.135.105l12.154 12.165a.93.93 0 0 1 .105 1.137l-9.11 13.273c-.23.336-.272.91-.093 1.277l5.006 12.505c.123.39.549.77.95.843l16.036 2.984c.4.073.729.47.729.878l.002 16.92a.93.93 0 0 1-.727.878m-44.725-92.585c-2.045 4.535-5.182 10.153-7.227 14.688z" style="display:inline;fill:none;fill-opacity:.999999;stroke:#fff;stroke-width:4.91339;stroke-miterlimit:4;stroke-dasharray:none;stroke-opacity:1" transform="matrix(.26458 0 0 .26458 17.36 6.763)"/><path d="m104.187 107.104 5.53-2.833c.353-.205.915-.188 1.25.043l13.04 8.949a.933.933 0 0 0 1.135-.105l11.965-11.963a.93.93 0 0 0 .105-1.137l-9.11-13.273c-.23-.336-.272-.91-.093-1.277l5.006-12.505c.123-.39.549-.77.95-.843l16.036-2.984a.93.93 0 0 0 .729-.878l.002-16.92c0-.408-.327-.802-.876-.915l-16.29-3.02c-.4-.075-.838-.451-.973-.837l-5.04-11.756c-.187-.363-.151-.933.08-1.271l9.579-13.96a.932.932 0 0 0-.105-1.136L125.144 6.52a.927.927 0 0 0-1.135-.105l-14.205 9.748c-.336.23-.912.272-1.277.092L97.13 11.59c-.387-.128-.764-.561-.84-.962L93.126-6.375a.929.929 0 0 0-.877-.73h-16.92a.928.928 0 0 0-.876.73l-3.164 17.003c-.076.4-.452.834-.84.962l-11.397 4.665c-.366.18-.942.139-1.277-.092L43.57 6.415a.929.929 0 0 0-1.136.105L30.47 18.483a.93.93 0 0 0-.105 1.136l9.579 13.96c.23.338.266.908.079 1.27l-5.04 11.757c-.134.386-.571.762-.973.837L17.573 50.5a.93.93 0 0 0-.73.878l.002 16.919c0 .408.328.805.729.878l16.035 2.984c.4.073.83.454.952.843l5.006 12.505c.179.367.137.94-.095 1.277l-9.108 13.273a.933.933 0 0 0 .105 1.137l11.965 11.963a.934.934 0 0 0 1.136.105l13.038-8.95c.336-.23.899-.247 1.25-.042l5.75 3.07 29.347 65.373c.265.162.627.441.908.697 5.192 3.324 8.635 9.14 8.635 15.761 0 10.334-8.377 18.711-18.71 18.711s-18.492-8.613-18.492-18.947c0-6.622 3.444-12.437 8.635-15.761a6.81 6.81 0 0 1 .91-.697l9.01-20.206" style="fill:none;fill-opacity:.999999;stroke:#fff;stroke-width:4.91339;stroke-miterlimit:4;stroke-dasharray:none;stroke-opacity:1" transform="matrix(.26458 0 0 .26458 17.36 6.763)"/></g></g><text xml:space="preserve" style="font-style:normal;font-variant:normal;font-weight:400;font-stretch:normal;font-size:76.2px;line-height:1.25;font-family:'Estrangelo Talada';-inkscape-font-specification:'Estrangelo Talada';letter-spacing:0;word-spacing:.264583px;fill:#fff;fill-opacity:.999999;stroke:#fff;stroke-width:.264583;stroke-opacity:1" x="63.201" y="159.017" transform="translate(-24.28 -103.73)"/></g></svg>