<svg width="436.32" height="434.88" xmlns="http://www.w3.org/2000/svg"><path style="fill:#000;stroke-width:1.76948" d="m206.179 411.788-1.414-3.344h-15.981l-1.289 2.865c-1.172 2.606-1.612 2.865-4.859 2.865-1.963 0-3.57-.114-3.57-.253 0-1.138 5.838-14.625 8.73-20.169 1.985-3.803 3.608-7.404 3.608-8.002 0-1.22 3.523-2.685 6.446-2.68 1.507.002 2.621 1.293 5.125 5.935 10.769 19.968 13.167 24.564 12.93 24.777-.147.131-2.077.489-4.29.795l-4.022.556zm-5.081-10.311c0-1.805-3.579-8.587-4.531-8.587-.447 0-.96.46-1.14 1.023-.18.563-.906 2.773-1.614 4.912l-1.286 3.888h4.285c3.236 0 4.286-.303 4.286-1.236zm31.688 13.011c-.195-3.857.19-30.199.445-30.436.776-.721 13.003-.235 15.822.63 3.632 1.113 8.445 5.895 8.445 8.389 0 .968-.841 2.592-1.87 3.609l-1.869 1.848 2.311 1.888c4.811 3.93 3.38 9.47-3.276 12.678-3.056 1.472-19.944 2.65-20.008 1.394zm17.574-7.45c3.632-2.733-.133-5.962-6.952-5.962-4.024 0-4.78.81-4.064 4.351.497 2.46.768 2.62 4.792 2.845 3.082.172 4.809-.17 6.224-1.235zm-.226-12.93c.85-2.06-1.29-3.5-6.12-4.117-2.52-.322-4.78-.53-5.022-.462-.497.14-.649 4.257-.193 5.203.163.338 2.665.614 5.56.614 3.885 0 5.397-.324 5.774-1.238zm32.48 19.573c-1.94-.658-4.319-1.938-5.288-2.844l-1.762-1.647 2.203-1.583c2.622-1.883 4.655-2.02 7.301-.49 3.482 2.012 7.316 2.238 8.98.53 2.723-2.795 1.393-4.255-5.706-6.266-7.78-2.203-9.694-3.966-9.694-8.928 0-6.298 5.264-10.204 13.305-9.873 7.395.305 11.377 3.683 8.54 7.244-.965 1.21-1.636 1.294-4.475.56-1.837-.475-4.811-.75-6.61-.611-2.59.2-3.326.625-3.544 2.047-.232 1.514.403 1.982 4.047 2.987 7.392 2.04 11.672 4.483 12.992 7.416 3.91 8.692-8.234 15.55-20.29 11.458zm-143.387-14.652-.258-15.145h3.746l3.745.001v23.74l6.83.013c9.692.016 10.795.4 10.795 3.768v2.769h-24.6Zm-119.667.247v-3.848l43.296-.059c23.814-.032 43.642-.256 44.063-.498.421-.242.766 1.516.766 3.906v4.346H19.56Zm356.246 3.634-40.758-.213v-7.351h40.868c22.478 0 42.13-.234 43.673-.521l2.804-.52-.27 4.408c-.265 4.298-.338 4.41-2.915 4.41-1.454 0-20.985-.096-43.402-.213zM18.458 354.633l-4.186-.307.01-22.672c.005-12.469.245-23.991.532-25.605l.523-2.934 13.788.36c15.235.398 18.405 1.168 24.166 5.866 7.667 6.253 6.645 20.65-1.842 25.963-1.59.996-3.341 1.95-3.89 2.12-1.04.322 1.902 4.713 8.782 13.103l3.86 4.707h-5.627c-6.596 0-6.808-.16-13.828-10.437l-4.612-6.754H24.847v8.596c0 6.41-.28 8.558-1.101 8.448-.606-.081-2.986-.286-5.288-.454zm25.794-26.012c5.445-2.615 6.098-8.8 1.393-13.171-2.939-2.73-3.141-2.783-10.503-2.783-4.129 0-8.134-.224-8.9-.497-1.22-.435-1.395.64-1.395 8.595v9.092h8.416c5.783 0 9.22-.386 10.99-1.236zm192.096 5.33v-21.284h-16.744v-9.824h44.063v9.824H245.16v20.787c0 22.968.317 21.78-5.8 21.78h-3.012zm46.25 20.441c-.618-.928.349-49.906 1.004-50.891.24-.362 2.397-.658 4.792-.658h4.354v11.46c0 6.304.26 11.461.578 11.461.682 0 8.967-8.421 10.878-11.058.727-1.002 2.667-2.869 4.31-4.147 1.644-1.279 3.685-3.39 4.537-4.69 1.479-2.26 1.87-2.376 8.689-2.588 3.988-.124 7.14.115 7.14.54 0 .42-3.887 4.515-8.636 9.101-12.685 12.25-13.604 13.407-12.365 15.562.563.98 5.023 6.343 9.91 11.918 4.888 5.574 9.614 11.007 10.503 12.074l1.616 1.94H317.44l-2.872-3.556c-1.58-1.956-5.649-6.732-9.042-10.613l-6.169-7.057-3.267 3.45c-3.133 3.308-3.269 3.702-3.318 9.59-.028 3.376-.342 6.543-.698 7.037-.872 1.207-8.795 2.148-9.476 1.125zm119.583.24-3.808-.316.617-20.825.617-20.824h-18.734v-9.824h8.672c4.77 0 15.279.242 23.353.538l14.682.538v9.654l-9.474-.249-9.473-.248-.235 21.08c-.18 16.14-.49 21.045-1.322 20.935-.598-.078-2.8-.285-4.895-.459zm-306.522-1.726c-5.608-1.8-9.729-4.964-13.81-10.603-4.111-5.681-5.434-11.543-4.228-18.74 3.33-19.872 29.172-27.6 45.815-13.7 6.636 5.543 8.469 9.701 8.477 19.238.005 7.293-.178 8.117-2.647 11.828-7.315 10.996-21.223 15.953-33.607 11.977zm18.38-10.43c6.155-4.026 9.575-12.04 7.78-18.23-3.857-13.307-25.558-16.112-32.43-4.192-4.915 8.528.378 21.212 10.365 24.836 3.303 1.199 10.663-.045 14.284-2.414zm54.745 10.475c-11.68-3.878-18.799-13.703-18.799-25.943 0-10.047 4.981-17.29 14.844-21.585 4.168-1.815 6.212-2.17 12.475-2.17 6.94 0 7.912.215 13.219 2.932 6.68 3.42 10.818 7.973 12.755 14.034 3.085 9.648.968 18.97-5.82 25.638-7.615 7.48-19.017 10.3-28.674 7.094zm15.627-9.791c3.13-1.475 5.693-3.476 7.428-5.801 2.35-3.147 2.65-4.221 2.65-9.478 0-5.235-.29-6.28-2.475-8.941-5.227-6.366-15.129-8.285-23.307-4.516-11.424 5.263-10.52 23.213 1.465 29.084 5.067 2.483 8.402 2.401 14.239-.348zM351.4 329.383c-.354-13.767-.51-25.136-.346-25.263.163-.127 2.478-.459 5.144-.737l4.847-.507-.245 25.77-.244 25.77h-8.513zm-136.621-49.792c-3.218-3.17-5.369-9.168-4.474-12.479.824-3.05 3.688-6.63 5.803-7.254 1.72-.508 1.742-1.331 1.52-59.193-.225-58.17-.242-58.676-1.99-58.394-1.577.254-18.608 14.811-21.378 18.274-.846 1.058-1.111 8.793-1.116 32.591l-.005 31.204 2.69 2.103c4.23 3.306 5.562 6.412 4.983 11.619-.413 3.721-1.03 4.99-3.569 7.349-2.564 2.382-3.844 2.91-7.784 3.214-9.47.73-14.791-3.62-14.791-12.089 0-5.283 2.167-9.205 6.247-11.304l2.692-1.384-.286-33.207-.285-33.206 3.832-4.252c2.107-2.338 6.072-5.984 8.81-8.103 2.74-2.118 7.618-6.168 10.843-8.998 3.966-3.482 6.573-5.146 8.058-5.146 1.7 0 2.188-.417 2.161-1.842-.018-1.013.122-6.263.312-11.666.473-13.41.318-13.405-15.525.596-6.779 5.99-13.906 12.175-15.838 13.744-1.932 1.568-8.424 7.272-14.428 12.675a5883.42 5883.42 0 0 1-11.922 10.712c-.636.562-.929 3.428-.794 7.777.117 3.788.222 13.59.234 21.782l.02 14.895 2.424 1.068c2.86 1.261 6.389 7.282 6.389 10.904 0 3.543-3.962 10.541-6.752 11.927-3.098 1.538-9.743 1.362-13.282-.354-3.25-1.576-5.22-4.633-6.036-9.37-.766-4.45.704-8.092 4.965-12.294l3.579-3.53-.103-21.437c-.056-11.791-.078-22.252-.049-23.245.074-2.523 28.843-29.094 43.455-40.135 3.271-2.472 5.948-4.821 5.948-5.22 0-.4-7.983-.727-17.74-.727h-17.741l-12.002 10.41c-6.601 5.726-16.76 14.733-22.577 20.015l-10.575 9.603.261 13.548.262 13.547 2.594 1.246c3.546 1.704 6.136 6.711 6.136 11.863 0 5.022-1.624 8.19-5.667 11.055l-3.025 2.144.51 12.02.511 12.02 3.35 2.687c7 5.618 5.728 17.463-2.253 20.981-6.616 2.917-14.261.608-17.439-5.266-2.884-5.333-1.045-13.188 3.845-16.423l2.543-1.682v-25.896l-2.245-1.366c-3.314-2.017-5.68-6.144-5.683-9.917-.003-3.838 3.742-11.44 6.252-12.688 1.558-.774 1.676-1.942 1.676-16.646v-15.813l11.678-10.558c6.422-5.807 15.131-13.478 19.353-17.047 4.221-3.568 7.867-6.953 8.101-7.52.247-.597-1.32-1.983-3.71-3.282-2.276-1.237-7.764-4.93-12.197-8.206l-8.059-5.956-3.556 1.298c-8.372 3.055-17.779-3.128-17.779-11.687 0-4.178 3.583-9.59 7.49-11.312 3.663-1.615 9.718-1.294 12.976.69 2.77 1.686 5.63 6.57 6.396 10.92.337 1.913.998 3.478 1.47 3.478s4.81 3.512 9.638 7.804l8.78 7.804 29.599-.392c16.28-.215 29.822-.598 30.093-.85 1.022-.95-19.17-17.438-32.721-26.72-13.92-9.536-12.914-8.484-12.914-13.514 0-4.127-.181-4.52-2.424-5.259-4.03-1.327-4.982-2.049-7.087-5.38-5.01-7.929.817-19.179 10.13-19.554 6.977-.28 11.74 2.91 13.382 8.967 1.295 4.776-.1 11.013-3.036 13.575-1.393 1.216-2.145 2.767-2.132 4.397.019 2.197 1.17 3.381 9.033 9.293 4.957 3.727 14.564 11.337 21.35 16.913 6.785 5.575 12.404 10.078 12.485 10.005.081-.073.252-10.025.378-22.116l.23-21.983-2.388-1.346c-5.085-2.865-7.636-12.951-4.37-17.282 2.02-2.68 4.195-4.64 6.318-5.695 2.798-1.392 9.087-1.04 12.121.68 3.385 1.916 6.514 7.699 6.495 12-.018 4.111-3.159 9.26-6.654 10.908l-2.703 1.275.3 21.664c.164 11.916.47 21.823.678 22.017.208.194 4.66-3.47 9.894-8.14 5.233-4.671 12.886-11.21 17.006-14.53 4.12-3.321 9.572-7.73 12.117-9.797 2.545-2.067 4.627-4.35 4.627-5.071 0-.722-1.03-2.206-2.287-3.298-3.732-3.238-5-6.282-4.58-10.993.481-5.38 3.266-9.109 8.371-11.207 11.07-4.549 21.603 7.274 16.327 18.328-1.949 4.083-3.315 5.305-6.375 5.698-1.987.255-2.23.7-2.468 4.533-.254 4.075-.45 4.374-4.756 7.248-4.54 3.03-31.843 25.727-37.94 31.54-1.818 1.732-3.304 3.44-3.303 3.795 0 .826 31.235.76 46.367-.097l11.56-.655 8.595-7.742c5.147-4.636 9.082-7.567 9.81-7.308.91.324 1.216-.394 1.216-2.848 0-4.275 2.868-9.407 6.134-10.976 3.512-1.687 12.263-1.634 14.914.091 2.354 1.532 6.25 8.78 6.262 11.65.005 1.065-.88 3.405-1.967 5.202-3.47 5.735-11.206 7.922-17.757 5.02l-3.049-1.35-10.18 8.922c-5.598 4.908-10.188 9.398-10.2 9.978-.01.58 8.308 8.849 18.487 18.376l18.506 17.321V174.362l2.14.756c4.979 1.758 8.13 11.07 5.735 16.955-1.127 2.773-5.109 6.807-6.718 6.807-.904 0-1.157 2.693-1.157 12.311v12.312l3.539 3.222c4.128 3.759 5.274 6.142 5.274 10.971 0 6.549-6.218 12.12-13.692 12.27-7.21.145-12.746-5.74-12.746-13.549 0-4.352.29-5.087 3.187-8.065 1.753-1.802 3.702-3.277 4.332-3.277.91 0 1.047-2.64.668-12.893l-.475-12.893-2.644-1.981c-3.027-2.268-5.901-7.583-5.93-10.965-.032-3.86 3.412-10.171 6.465-11.844l2.77-1.518-.09-12.79-.09-12.792-18.245-17.401c-10.035-9.57-19.71-18.525-21.501-19.897l-3.256-2.496-18.489.41-18.489.409 13.654 11.115c7.51 6.114 18.606 16.186 24.658 22.383 9.357 9.58 11.09 11.776 11.582 14.67.318 1.872.648 19.213.733 38.534.17 38.932.438 37.188-5.532 36.098-2.11-.386-2.493-.3-1.508.338.81.525.916.86.272.868-.577.005-1.351-.44-1.72-.995-.37-.555-.792-17.96-.94-38.68l-.27-37.67-14.9-13.508c-18.643-16.9-21.986-19.822-30.096-26.299-3.592-2.87-7.253-5.884-8.134-6.7-.881-.816-2.269-1.364-3.084-1.218-1.255.225-1.435 1.14-1.179 5.985.837 15.822 1.11 17.729 2.472 17.243.885-.315 6.204 4.128 16.229 13.557l14.912 14.026V175.9l3.612 3.13c2.968 2.57 3.695 3.81 4.075 6.936.737 6.078-.344 9.368-4.28 13.023l-3.544 3.293.289 10.416.289 10.417 3.2 3.47c7.382 8.004 6.387 17.854-2.167 21.462-6.652 2.806-11.71 1.732-15.327-3.253-3.67-5.058-1.86-16.245 3.038-18.791 1.323-.688 1.576-2.412 1.837-12.528l.303-11.73-2.637-1.354c-3.222-1.655-5.362-4.564-6.367-8.655-1.09-4.436.324-8.248 4.637-12.503l3.733-3.683.064-7.628.065-7.628-9.962-8.308c-11.1-9.258-12.38-10.106-13.578-8.993-.502.466-.727 23.097-.576 57.75l.25 56.984 1.988 1.72c3.205 2.774 4.666 5.329 5.141 8.996.606 4.665-.907 8.45-4.57 11.438-2.556 2.085-3.803 2.497-7.553 2.497-3.968 0-4.822-.325-7.322-2.788zm11.052-6.246c1.876-.933 2.251-4.042.792-6.574-.63-1.093-1.848-1.584-3.935-1.584-3.28 0-4.846 1.65-4.846 5.104 0 3.56 3.94 5.067 7.989 3.054zm-106.475-33.531c3.027-4.04 1.133-8.19-3.739-8.19-3.17 0-6.465 3.543-5.64 6.064 1.573 4.81 6.526 5.932 9.379 2.126zm213.1-1.357c1.374-3.358-.737-6.454-4.297-6.3-3.684.159-5.448 1.568-5.448 4.352 0 2.203 1.838 4.343 4.406 5.13 1.964.603 4.378-.836 5.339-3.182zm-140.661 1.171c1.633-2.166 1.789-5.651.314-7.021-1.527-1.419-6.027-1.207-7.906.372-2.251 1.893-2.071 5.621.347 7.194 2.764 1.799 5.64 1.582 7.245-.545zm67.382.27c2.325-1.66 2.803-5.807.914-7.921-1.598-1.788-5.072-1.399-7.48.838-2.512 2.333-2.776 5.01-.705 7.136 1.853 1.9 4.562 1.88 7.271-.054zM157 216.07c.387 0 1.203-1.122 1.814-2.493 2.285-5.124-2.891-8.92-7.536-5.526-3.079 2.25-2.957 5.934.25 7.553 1.332.673 2.95 1.053 3.596.845.646-.209 1.49-.38 1.876-.38zm101.701-23.8c2.455-1.793 2.915-3.93 1.41-6.543-.714-1.239-1.864-1.583-5.288-1.583-3.908 0-4.39.197-4.515 1.842-.253 3.341.162 5.01 1.619 6.505 1.882 1.932 3.919 1.866 6.774-.22zM118.46 190.9c3.523-3.727 2.112-8.391-2.54-8.391-2.529 0-5.591 2.69-5.591 4.912 0 2.053 2.997 4.911 5.15 4.911.895 0 2.236-.644 2.98-1.432zm212.402-.866c1.79-1.427 2.1-6.68.485-8.18-.582-.54-2.287-.982-3.79-.982-3.59 0-4.846 1.3-4.846 5.016 0 2.316.555 3.457 2.306 4.736 2.334 1.705 3.06 1.632 5.845-.59zM328.95 83.047c2.54-6.047-2.6-11.166-7.27-7.24-1.822 1.53-2.118 5.283-.594 7.548 1.442 2.145 6.924 1.93 7.864-.308zm-207.347-1.105c1.72-2.037.917-5.08-1.84-6.983-2.276-1.572-2.646-1.607-4.847-.46-1.96 1.022-2.383 1.816-2.383 4.462 0 2.613.414 3.413 2.203 4.248 2.528 1.182 5.22.685 6.867-1.267zm48.251-38.151c2.347-2.18 2.915-6.249 1.062-7.596-1.848-1.343-5.262-1.816-6.972-.966-2.493 1.24-2.262 7.605.338 9.297 2.59 1.685 3.03 1.626 5.572-.735zm109.952.986c.821-.563 1.859-2.214 2.305-3.669 1.119-3.644-1.113-6.238-5.273-6.128-5.41.143-7.265 5.946-2.917 9.124 2.685 1.962 3.815 2.091 5.885.673zm-53.974-6.373c1.147-.57 1.704-1.715 1.704-3.502 0-3.763-2.163-6.293-5.382-6.293-2.19 0-2.861.495-3.944 2.902-.718 1.595-1.034 3.345-.702 3.888 2.288 3.747 4.92 4.697 8.324 3.005z"/></svg>