<svg width="436.32" height="434.88" xmlns="http://www.w3.org/2000/svg"><path style="fill:#000;stroke-width:1.76948" d="m206.179 411.788-1.414-3.344h-15.981l-1.289 2.865c-1.172 2.606-1.612 2.865-4.859 2.865-1.963 0-3.57-.114-3.57-.253 0-1.138 5.838-14.625 8.73-20.169 1.985-3.803 3.608-7.404 3.608-8.002 0-1.22 3.523-2.685 6.446-2.68 1.507.002 2.621 1.293 5.125 5.935 10.769 19.968 13.167 24.564 12.93 24.777-.147.131-2.077.489-4.29.795l-4.022.556zm-5.081-10.311c0-1.805-3.579-8.587-4.531-8.587-.447 0-.96.46-1.14 1.023-.18.563-.906 2.773-1.614 4.912l-1.286 3.888h4.285c3.236 0 4.286-.303 4.286-1.236zm31.688 13.011c-.195-3.857.19-30.199.445-30.436.776-.721 13.003-.235 15.822.63 3.632 1.113 8.445 5.895 8.445 8.389 0 .968-.841 2.592-1.87 3.609l-1.869 1.848 2.311 1.888c4.811 3.93 3.38 9.47-3.276 12.678-3.056 1.472-19.944 2.65-20.008 1.394zm17.574-7.45c3.632-2.733-.133-5.962-6.952-5.962-4.024 0-4.78.81-4.064 4.351.497 2.46.768 2.62 4.792 2.845 3.082.172 4.809-.17 6.224-1.235zm-.226-12.93c.85-2.06-1.29-3.5-6.12-4.117-2.52-.322-4.78-.53-5.022-.462-.497.14-.649 4.257-.193 5.203.163.338 2.665.614 5.56.614 3.885 0 5.397-.324 5.774-1.238zm32.48 19.573c-1.94-.658-4.319-1.938-5.288-2.844l-1.762-1.647 2.203-1.583c2.622-1.883 4.655-2.02 7.301-.49 3.482 2.012 7.316 2.238 8.98.53 2.723-2.795 1.393-4.255-5.706-6.266-7.78-2.203-9.694-3.966-9.694-8.928 0-6.298 5.264-10.204 13.305-9.873 7.395.305 11.377 3.683 8.54 7.244-.965 1.21-1.636 1.294-4.475.56-1.837-.475-4.811-.75-6.61-.611-2.59.2-3.326.625-3.544 2.047-.232 1.514.403 1.982 4.047 2.987 7.392 2.04 11.672 4.483 12.992 7.416 3.91 8.692-8.234 15.55-20.29 11.458zm-143.387-14.652-.258-15.145h3.746l3.745.001v23.74l6.83.013c9.692.016 10.795.4 10.795 3.768v2.769h-24.6Zm-119.667.247v-3.848l43.296-.059c23.814-.032 43.642-.256 44.063-.498.421-.242.766 1.516.766 3.906v4.346H19.56Zm356.246 3.634-40.758-.213v-7.351h40.868c22.478 0 42.13-.234 43.673-.521l2.804-.52-.27 4.408c-.265 4.298-.338 4.41-2.915 4.41-1.454 0-20.985-.096-43.402-.213zM18.458 354.633l-4.186-.307.01-22.672c.005-12.469.245-23.991.532-25.605l.523-2.934 13.788.36c15.235.398 18.405 1.168 24.166 5.866 7.667 6.253 6.645 20.65-1.842 25.963-1.59.996-3.341 1.95-3.89 2.12-1.04.322 1.902 4.713 8.782 13.103l3.86 4.707h-5.627c-6.596 0-6.808-.16-13.828-10.437l-4.612-6.754H24.847v8.596c0 6.41-.28 8.558-1.101 8.448-.606-.081-2.986-.286-5.288-.454zm25.794-26.012c5.445-2.615 6.098-8.8 1.393-13.171-2.939-2.73-3.141-2.783-10.503-2.783-4.129 0-8.134-.224-8.9-.497-1.22-.435-1.395.64-1.395 8.595v9.092h8.416c5.783 0 9.22-.386 10.99-1.236zm192.096 5.33v-21.284h-16.744v-9.824h44.063v9.824H245.16v20.787c0 22.968.317 21.78-5.8 21.78h-3.012zm46.25 20.441c-.618-.928.349-49.906 1.004-50.891.24-.362 2.397-.658 4.792-.658h4.354v11.46c0 6.304.26 11.461.578 11.461.682 0 8.967-8.421 10.878-11.058.727-1.002 2.667-2.869 4.31-4.147 1.644-1.279 3.685-3.39 4.537-4.69 1.479-2.26 1.87-2.376 8.689-2.588 3.988-.124 7.14.115 7.14.54 0 .42-3.887 4.515-8.636 9.101-12.685 12.25-13.604 13.407-12.365 15.562.563.98 5.023 6.343 9.91 11.918 4.888 5.574 9.614 11.007 10.503 12.074l1.616 1.94H317.44l-2.872-3.556c-1.58-1.956-5.649-6.732-9.042-10.613l-6.169-7.057-3.267 3.45c-3.133 3.308-3.269 3.702-3.318 9.59-.028 3.376-.342 6.543-.698 7.037-.872 1.207-8.795 2.148-9.476 1.125zm119.583.24-3.808-.316.617-20.825.617-20.824h-18.734v-9.824h8.672c4.77 0 15.279.242 23.353.538l14.682.538v9.654l-9.474-.249-9.473-.248-.235 21.08c-.18 16.14-.49 21.045-1.322 20.935-.598-.078-2.8-.285-4.895-.459zm-306.522-1.726c-5.608-1.8-9.729-4.964-13.81-10.603-4.111-5.681-5.434-11.543-4.228-18.74 3.33-19.872 29.172-27.6 45.815-13.7 6.636 5.543 8.469 9.701 8.477 19.238.005 7.293-.178 8.117-2.647 11.828-7.315 10.996-21.223 15.953-33.607 11.977zm18.38-10.43c6.155-4.026 9.575-12.04 7.78-18.23-3.857-13.307-25.558-16.112-32.43-4.192-4.915 8.528.378 21.212 10.365 24.836 3.303 1.199 10.663-.045 14.284-2.414zm54.745 10.475c-11.68-3.878-18.799-13.703-18.799-25.943 0-10.047 4.981-17.29 14.844-21.585 4.168-1.815 6.212-2.17 12.475-2.17 6.94 0 7.912.215 13.219 2.932 6.68 3.42 10.818 7.973 12.755 14.034 3.085 9.648.968 18.97-5.82 25.638-7.615 7.48-19.017 10.3-28.674 7.094zm15.627-9.791c3.13-1.475 5.693-3.476 7.428-5.801 2.35-3.147 2.65-4.221 2.65-9.478 0-5.235-.29-6.28-2.475-8.941-5.227-6.366-15.129-8.285-23.307-4.516-11.424 5.263-10.52 23.213 1.465 29.084 5.067 2.483 8.402 2.401 14.239-.348zM351.4 329.383c-.354-13.767-.51-25.136-.346-25.263.163-.127 2.478-.459 5.144-.737l4.847-.507-.245 25.77-.244 25.77h-8.513zm-136.621-49.792c-3.218-3.17-5.369-9.168-4.474-12.479.824-3.05 3.688-6.63 5.803-7.254 1.72-.508 1.742-1.331 1.52-59.193-.225-58.17-.242-58.676-1.99-58.394-1.577.254-18.608 14.811-21.378 18.274-.846 1.058-1.111 8.793-1.116 32.591l-.005 31.204 2.69 2.103c4.23 3.306 5.562 6.412 4.983 11.619-.413 3.721-1.03 4.99-3.569 7.349-2.564 2.382-3.844 2.91-7.784 3.214-9.47.73-14.791-3.62-14.791-12.089 0-5.283 2.167-9.205 6.247-11.304l2.692-1.384-.286-33.207-.285-33.206 3.832-4.252c2.107-2.338 6.072-5.984 8.81-8.103 2.74-2.118 7.618-6.168 10.843-8.998 3.966-3.482 6.573-5.146 8.058-5.146 1.7 0 2.188-.417 2.161-1.842-.018-1.013.122-6.263.312-11.666.473-13.41.318-13.405-15.525.596-6.779 5.99-13.906 12.175-15.838 13.744-1.932 1.568-8.424 7.272-14.428 12.675a5883.42 5883.42 0 0 1-11.922 10.712c-.636.562-.929 3.428-.794 7.777.117 3.788.222 13.59.234 21.782l.02 14.895 2.424 1.068c2.86 1.261 6.389 7.282 6.389 10.904 0 3.543-3.962 10.541-6.752 11.927-3.098 1.538-9.743 1.362-13.282-.354-3.25-1.576-5.22-4.633-6.036-9.37-.766-4.45.704-8.092 4.965-12.294l3.579-3.53-.103-21.437c-.056-11.791-.078-22.252-.049-23.245.074-2.523 28.843-29.094 43.455-40.135 3.271-2.472 5.948-4.821 5.948-5.22 0-.4-7.983-.727-17.74-.727h-17.741l-12.002 10.41c-6.601 5.726-16.76 14.733-22.577 20.015l-10.575 9.603.261 13.548.262 13.547 2.594 1.246c3.546 1.704 6.136 6.711 6.136 11.863 0 5.022-1.624 8.19-5.667 11.055l-3.025 2.144.51 12.02.511 12.02 3.35 2.687c7 5.618 5.728 17.463-2.253 20.981-6.616 2.917-14.261.608-17.439-5.266-2.884-5.333-1.045-13.188 3.845-16.423l2.543-1.682v-25.896l-2.245-1.366c-3.314-2.017-5.68-6.144-5.683-9.917-.003-3.838 3.742-11.44 6.252-12.688 1.558-.774 1.676-1.942 1.676-16.646v-15.813l11.678-10.558c6.422-5.807 15.131-13.478 19.353-17.047 4.221-3.568 7.867-6.953 8.101-7.52.247-.597-1.32-1.983-3.71-3.282-2.276-1.237-7.764-4.93-12.197-8.206l-8.059-5.956-3.556 1.298c-8.372 3.055-17.779-3.128-17.779-11.687 0-4.178 3.583-9.59 7.49-11.312 3.663-1.615 9.718-1.294 12.976.69 2.77 1.686 5.63 6.57 6.396 10.92.337 1.913.998 3.478 1.47 3.478s4.81 3.512 9.638 7.804l8.78 7.804 29.599-.392c16.28-.215 29.822-.598 30.093-.85 1.022-.95-19.17-17.438-32.721-26.72-13.92-9.536-12.914-8.484-12.914-13.514 0-4.127-.181-4.52-2.424-5.259-4.03-1.327-4.982-2.049-7.087-5.38-5.01-7.929.817-19.179 10.13-19.554 6.977-.28 11.74 2.91 13.382 8.967 1.295 4.776-.1 11.013-3.036 13.575-1.393 1.216-2.145 2.767-2.132 4.397.019 2.197 1.17 3.381 9.033 9.293 4.957 3.727 14.564 11.337 21.35 16.913 6.785 5.575 12.404 10.078 12.485 10.005.081-.073.252-10.025.378-22.116l.23-21.983-2.388-1.346c-5.085-2.865-7.636-12.951-4.37-17.282 2.02-2.68 4.195-4.64 6.318-5.695 2.798-1.392 9.087-1.04 12.121.68 3.385 1.916 6.514 7.699 6.495 12-.018 4.111-3.159 9.26-6.654 10.908l-2.703 1.275.3 21.664c.164 11.916.47 21.823.678 22.017.208.194 4.66-3.47 9.894-8.14 5.233-4.671 12.886-11.21 17.006-14.53 4.12-3.321 9.572-7.73 12.117-9.797 2.545-2.067 4.627-4.35 4.627-5.071 0-.722-1.03-2.206-2.287-3.298-3.732-3.238-5-6.282-4.58-10.993.481-5.38 3.266-9.109 8.371-11.207 11.07-4.549 21.603 7.274 16.327 18.328-1.949 4.083-3.315 5.305-6.375 5.698-1.987.255-2.23.7-2.468 4.533-.254 4.075-.45 4.374-4.756 7.248-4.54 3.03-31.843 25.727-37.94 31.54-1.818 1.732-3.304 3.44-3.303 3.795 0 .826 31.235.76 46.367-.097l11.56-.655 8.595-7.742c5.147-4.636 9.082-7.567 9.81-7.308.91.324 1.216-.394 1.216-2.848 0-4.275 2.868-9.407 6.134-10.976 3.512-1.687 12.263-1.634 14.914.091 2.354 1.532 6.25 8.78 6.262 11.65.005 1.065-.88 3.405-1.967 5.202-3.47 5.735-11.206 7.922-17.757 5.02l-3.049-1.35-10.18 8.922c-5.598 4.908-10.188 9.398-10.2 9.978-.01.58 8.308 8.849 18.487 18.376l18.506 17.321V174.362l2.14.756c4.979 1.758 8.13 11.07 5.735 16.955-1.127 2.773-5.109 6.807-6.718 6.807-.904 0-1.157 2.693-1.157 12.311v12.312l3.539 3.222c4.128 3.759 5.274 6.142 5.274 10.971 0 6.549-6.218 12.12-13.692 12.27-7.21.145-12.746-5.74-12.746-13.549 0-4.352.29-5.087 3.187-8.065 1.753-1.802 3.702-3.277 4.332-3.277.91 0 1.047-2.64.668-12.893l-.475-12.893-2.644-1.981c-3.027-2.268-5.901-7.583-5.93-10.965-.032-3.86 3.412-10.171 6.465-11.844l2.77-1.518-.09-12.79-.09-12.792-18.245-17.401c-10.035-9.57-19.71-18.525-21.501-19.897l-3.256-2.496-18.489.41-18.489.409 13.654 11.115c7.51 6.114 18.606 16.186 24.658 22.383 9.357 9.58 11.09 11.776 11.582 14.67.318 1.872.648 19.213.733 38.534.17 38.932.438 37.188-5.532 36.098-2.11-.386-2.493-.3-1.508.338.81.525.916.86.272.868-.577.005-1.351-.44-1.72-.995-.37-.555-.792-17.96-.94-38.68l-.27-37.67-14.9-13.508c-18.643-16.9-21.986-19.822-30.096-26.299-3.592-2.87-7.253-5.884-8.134-6.7-.881-.816-2.269-1.364-3.084-1.218-1.255.225-1.435 1.14-1.179 5.985.837 15.822 1.11 17.729 2.472 17.243.885-.315 6.204 4.128 16.229 13.557l14.912 14.026V175.9l3.612 3.13c2.968 2.57 3.695 3.81 4.075 6.936.737 6.078-.344 9.368-4.28 13.023l-3.544 3.293.289 10.416.289 10.417 3.2 3.47c7.382 8.004 6.387 17.854-2.167 21.462-6.652 2.806-11.71 1.732-15.327-3.253-3.67-5.058-1.86-16.245 3.038-18.791 1.323-.688 1.576-2.412 1.837-12.528l.303-11.73-2.637-1.354c-3.222-1.655-5.362-4.564-6.367-8.655-1.09-4.436.324-8.248 4.637-12.503l3.733-3.683.064-7.628.065-7.628-9.962-8.308c-11.1-9.258-12.38-10.106-13.578-8.993-.502.466-.727 23.097-.576 57.75l.25 56.984 1.988 1.72c3.205 2.774 4.666 5.329 5.141 8.996.606 4.665-.907 8.45-4.57 11.438-2.556 2.085-3.803 2.497-7.553 2.497-3.968 0-4.822-.325-7.322-2.788zm11.052-6.246c1.876-.933 2.251-4.042.792-6.574-.63-1.093-1.848-1.584-3.935-1.584-3.28 0-4.846 1.65-4.846 5.104 0 3.56 3.94 5.067 7.989 3.054zm-106.475-33.531c3.027-4.04 1.133-8.19-3.739-8.19-3.17 0-6.465 3.543-5.64 6.064 1.573 4.81 6.526 5.932 9.379 2.126zm213.1-1.357c1.374-3.358-.737-6.454-4.297-6.3-3.684.159-5.448 1.568-5.448 4.352 0 2.203 1.838 4.343 4.406 5.13 1.964.603 4.378-.836 5.339-3.182zm-140.661 1.171c1.633-2.166 1.789-5.651.314-7.021-1.527-1.419-6.027-1.207-7.906.372-2.251 1.893-2.071 5.621.347 7.194 2.764 1.799 5.64 1.582 7.245-.545zm67.382.27c2.325-1.66 2.803-5.807.914-7.921-1.598-1.788-5.072-1.399-7.48.838-2.512 2.333-2.776 5.01-.705 7.136 1.853 1.9 4.562 1.88 7.271-.054zM157 216.07c.387 0 1.203-1.122 1.814-2.493 2.285-5.124-2.891-8.92-7.536-5.526-3.079 2.25-2.957 5.934.25 7.553 1.332.673 2.95 1.053 3.596.845.646-.209 1.49-.38 1.876-.38zm101.701-23.8c2.455-1.793 2.915-3.93 1.41-6.543-.714-1.239-1.864-1.583-5.288-1.583-3.908 0-4.39.197-4.515 1.842-.253 3.341.162 5.01 1.619 6.505 1.882 1.932 3.919 1.866 6.774-.22zM118.46 190.9c3.523-3.727 2.112-8.391-2.54-8.391-2.529 0-5.591 2.69-5.591 4.912 0 2.053 2.997 4.911 5.15 4.911.895 0 2.236-.644 2.98-1.432zm212.402-.866c1.79-1.427 2.1-6.68.485-8.18-.582-.54-2.287-.982-3.79-.982-3.59 0-4.846 1.3-4.846 5.016 0 2.316.555 3.457 2.306 4.736 2.334 1.705 3.06 1.632 5.845-.59zM328.95 83.047c2.54-6.047-2.6-11.166-7.27-7.24-1.822 1.53-2.118 5.283-.594 7.548 1.442 2.145 6.924 1.93 7.864-.308zm-207.347-1.105c1.72-2.037.917-5.08-1.84-6.983-2.276-1.572-2.646-1.607-4.847-.46-1.96 1.022-2.383 1.816-2.383 4.462 0 2.613.414 3.413 2.203 4.248 2.528 1.182 5.22.685 6.867-1.267zm48.251-38.151c2.347-2.18 2.915-6.249 1.062-7.596-1.848-1.343-5.262-1.816-6.972-.966-2.493 1.24-2.262 7.605.338 9.297 2.59 1.685 3.03 1.626 5.572-.735zm109.952.986c.821-.563 1.859-2.214 2.305-3.669 1.119-3.644-1.113-6.238-5.273-6.128-5.41.143-7.265 5.946-2.917 9.124 2.685 1.962 3.815 2.091 5.885.673zm-53.974-6.373c1.147-.57 1.704-1.715 1.704-3.502 0-3.763-2.163-6.293-5.382-6.293-2.19 0-2.861.495-3.944 2.902-.718 1.595-1.034 3.345-.702 3.888 2.288 3.747 4.92 4.697 8.324 3.005z"/><path style="fill:#fff;stroke-width:.629337" d="M216.951 280.785c-3.807-2.51-7.217-9.648-6.326-13.243.488-1.972 3.293-6.367 4.063-6.367.3 0 1.112-.566 1.804-1.259 1.24-1.239 1.259-2.094 1.254-55.224-.002-29.681-.185-55.877-.405-58.214-.492-5.202-1.17-5.385-5.984-1.618-7.323 5.731-17.034 14.654-17.626 16.195-.365.95-.777 14.403-.987 32.259l-.36 30.63 3.825 3.669c3.273 3.14 3.885 4.084 4.242 6.545.756 5.216-1.776 10.705-5.903 12.798-4.243 2.152-11.597 1.671-15.353-1.004-3.593-2.558-5.19-8.811-3.523-13.79.885-2.64 2.634-4.65 5.813-6.677l2.438-1.555-.236-33.278-.235-33.277 3.776-3.865c4.398-4.502 22.995-20.23 25.039-21.177a79.569 79.569 0 0 1 3.124-1.339l1.73-.694.144-8.038c.283-15.9.105-16.49-4.235-14.016-2.776 1.583-19.931 16.268-40.803 34.928-6.195 5.538-11.817 10.511-12.494 11.05-1.465 1.168-1.53 2.604-1.297 28.365l.157 17.388 1.92.795c2.15.89 5.064 4.78 6.206 8.284.941 2.89.208 5.956-2.41 10.086-2.396 3.777-4.61 4.902-9.642 4.902-7.293 0-11.767-3.691-12.808-10.568-.574-3.788.948-7.344 5.11-11.944l3.443-3.803v-45.203l9.282-9.111c11.15-10.943 18.736-17.7 30.776-27.411 4.966-4.006 9.03-7.499 9.03-7.762 0-1.023-3.417-1.237-19.51-1.224l-16.677.014-10.07 8.835c-5.537 4.86-15.68 13.841-22.537 19.96l-12.469 11.123.432 13.846c.237 7.615.666 13.935.953 14.045 3.815 1.46 7.24 6.192 7.884 10.893.74 5.404-1.393 9.603-6.852 13.481l-1.753 1.245.54 12.158.54 12.157 2.894 2.473c5.174 4.423 6.361 11.482 2.828 16.821-2.234 3.376-5.447 4.835-10.64 4.831-3.648-.002-4.548-.25-6.868-1.888-1.468-1.037-3.222-2.957-3.899-4.266-2.676-5.181-.75-12.834 4.026-15.995l2.441-1.615v-26.247l-2.509-1.661c-3.404-2.253-5.994-7.447-5.376-10.781.61-3.294 3.19-8.267 5.569-10.738l2.002-2.08.239-15.542.239-15.542 4.795-4.324c2.638-2.378 11.38-10.122 19.428-17.208 8.048-7.086 14.632-13.28 14.632-13.765 0-.486-2.478-2.475-5.506-4.422-3.03-1.946-8.442-5.67-12.03-8.277l-6.521-4.739-3.288 1.037c-6.115 1.927-10.055.996-14.302-3.382-4.925-5.076-4.776-10.692.426-16.1 2.91-3.026 7.027-4.261 11.46-3.438 5.161.96 8.133 4.17 10.311 11.141 1.021 3.269 1.84 4.75 3.03 5.477.897.548 5.17 4.115 9.498 7.927l7.866 6.932 5.35-.017c14.559-.046 54.23-1.108 54.583-1.46 1.118-1.118-17.533-16.69-31.743-26.502-13.217-9.127-13.4-9.304-13.4-12.898 0-4.431-.737-5.854-3.545-6.844-9.906-3.49-10.458-17.73-.876-22.576 7.222-3.653 15.922.302 17.57 7.987.936 4.362-.053 8.629-2.848 12.29-1.759 2.302-2.156 3.337-2 5.21.222 2.661-1.543 1.09 25.3 22.508 8.962 7.15 16.633 13.131 17.047 13.29.57.219.853-5.092 1.168-21.924.296-15.86.218-22.277-.273-22.442-1.657-.553-5.265-4.374-6.316-6.687-.686-1.51-1.152-4.015-1.16-6.242-.013-3.696.01-3.743 3.605-7.335 4.368-4.363 7.253-5.135 12.974-3.472 3.637 1.057 5.306 2.64 7.637 7.244 2.706 5.344.279 12.632-5.218 15.668l-2.649 1.463V58.16c0 17.463.704 32.465 1.523 32.465.383 0 5.649-4.275 11.701-9.5 6.053-5.224 15.157-12.865 20.232-16.978 5.074-4.113 9.81-8.222 10.524-9.13 1.164-1.479 1.209-1.824.432-3.318-.478-.916-1.63-2.375-2.56-3.24-2.53-2.35-3.464-4.6-3.448-8.307.014-3.58 1.552-7.684 3.539-9.448.667-.592 2.59-1.686 4.273-2.43 10.272-4.545 20.253 5.497 16.379 16.478-1.214 3.44-3.658 6.036-6.2 6.587-2.41.523-2.88 1.199-2.892 4.17-.014 3.484-.959 4.936-5.238 8.054-11.462 8.351-40.713 33.458-40.713 34.946 0 .797 2.797.924 19.982.91 10.99-.01 24.171-.275 29.292-.588l9.312-.57 5.478-4.968c7.001-6.349 11.959-10.22 13.087-10.22.575 0 .887-.695.887-1.973 0-3.333 1.38-6.816 3.733-9.417 1.87-2.067 2.852-2.592 5.864-3.13 4.24-.76 10.107.085 11.906 1.713 1.775 1.607 4.93 8.372 4.919 10.547-.015 2.8-2.414 6.633-5.515 8.812-3.629 2.551-9.123 2.973-13.59 1.044l-3.066-1.324-3.511 3c-7.603 6.495-16.588 14.838-16.924 15.714-.435 1.134 4.203 5.9 22.95 23.58l14.002 13.206v15.056c0 12.602.146 15.055.896 15.055 1.525 0 4.89 3.282 6.103 5.952 1.576 3.47 1.566 9.46-.02 12.062-.66 1.081-2.5 3.053-4.09 4.381l-2.889 2.416v23.856l3.714 3.867c4.774 4.971 5.828 8.127 4.357 13.038-1.779 5.937-9.438 10.232-15.52 8.703-6.088-1.53-9.543-6.207-9.543-12.917 0-4.33 1.151-6.377 5.487-9.753l2.83-2.202-.405-12.479-.404-12.478-3.338-3.259c-4.128-4.03-5.869-8.404-4.85-12.185 1.02-3.788 4.172-8.258 6.66-9.444l2.226-1.062-.17-13.217-.17-13.217-13.845-13.185c-7.615-7.251-17.094-16.117-21.064-19.7l-7.219-6.516-13.864.062c-7.625.035-16.251.247-19.17.472l-5.306.41 12.858 10.68c14.538 12.075 34.34 31.385 36.16 35.261 1.1 2.341 1.2 4.87 1.443 36.019.143 18.425.07 34.777-.165 36.336-.564 3.765-1.412 4.5-4.872 4.224l-2.834-.225-.411-12.689c-.226-6.978-.412-24.046-.413-37.927l-.002-25.238-14.632-13.21c-18.528-16.727-22.869-20.514-32.565-28.405-7.919-6.444-10.252-7.548-10.997-5.202-.397 1.251.713 19.7 1.3 21.616.187.606.705 1.101 1.154 1.101 1.272 0 4.734 2.932 18.426 15.605l12.718 11.771.026 8.793.026 8.792 3.607 3.645 3.607 3.645.237 4.698c.21 4.149.049 5.02-1.373 7.446-.886 1.51-2.638 3.532-3.895 4.49l-2.285 1.743.209 10.826.208 10.826 2.76 3.106c1.517 1.708 3.28 4.238 3.919 5.623 1.24 2.691 1.544 7.476.628 9.885-1.46 3.838-7.675 7.422-12.873 7.422-3.02 0-7.033-2.753-8.534-5.854-2.474-5.112-1.412-12.262 2.386-16.06 2.085-2.085 2.202-2.446 2.669-8.227.268-3.325.501-8.659.518-11.851l.03-5.806-2.045-1.036c-2.884-1.46-4.206-2.743-5.557-5.389-2.967-5.814-2.095-9.702 3.49-15.557l3.483-3.652v-15.939l-8.541-7.078c-9.12-7.556-13.207-10.539-14.442-10.539-.422 0-.942 1.062-1.157 2.36-.214 1.298-.393 27.255-.397 57.681l-.007 55.321 3.09 3.268c2.97 3.139 4.45 6.335 4.459 9.618.009 3.529-3.428 8.687-7.046 10.577-2.45 1.281-7.985 1.133-10.113-.27zm10.079-8.042c1.156-1.545.619-5.9-.862-6.983-1.721-1.26-5.7-1.01-7.159.45-1.592 1.592-1.677 5.417-.158 7.095 1.451 1.604 6.834 1.233 8.179-.562zm-108.037-32.288c1.379-1.379 1.84-2.43 1.84-4.198 0-3.287-1.434-4.66-4.866-4.66-2.237 0-3.144.36-4.623 1.839-1.109 1.109-1.84 2.503-1.84 3.51 0 2.385 3.139 5.349 5.665 5.349 1.354 0 2.569-.584 3.824-1.84zm210.979 1.108c2.09-1.114 2.905-2.503 2.928-4.992.026-2.975-1.795-4.657-4.953-4.574-3.262.085-4.92 1.138-5.427 3.445-.491 2.238.968 4.736 3.537 6.057 1.882.967 2.209.972 3.915.064zm-138.31-1.442c1.166-1.166 1.545-2.215 1.545-4.28 0-3.475-.806-4.245-4.447-4.245-3.854 0-6.252 1.782-6.252 4.646 0 4.756 5.813 7.22 9.154 3.879zm67.53-.046c3.17-2.667 3.187-7.453.032-9.142-1.905-1.02-5.767.19-7.455 2.337-4.127 5.246 2.288 11.127 7.424 6.805zM158.6 214.447c1.66-2.724 1.575-4.611-.293-6.48-1.802-1.802-4.138-1.976-6.643-.496-5.088 3.005-3.096 8.975 3.005 9.007 2.36.012 2.835-.233 3.93-2.031zm98.173-20.611c.291 0 1.4-.733 2.466-1.63 2.148-1.807 2.612-4.758 1.077-6.857-1.08-1.477-8.054-2.174-9.527-.952-1.145.95-1.219 4.765-.134 6.91.889 1.755 3.48 3.304 4.75 2.837.461-.17 1.077-.308 1.368-.308zm-138.14-2.778c2.05-2.049 2.622-4.593 1.49-6.619-.73-1.305-1.451-1.652-3.75-1.803-2.316-.152-3.16.105-4.542 1.386-2.246 2.08-2.197 4.376.143 6.716 2.26 2.26 4.606 2.373 6.66.32zm211.581-.056c2.848-1.995 3.377-8.383.808-9.758-1.71-.915-5.856-.761-7.265.27-.936.684-1.222 1.652-1.222 4.144 0 2.783.255 3.471 1.766 4.771 2.025 1.742 3.974 1.93 5.913.573zm-1.42-107.44c1.392-1.988 1.236-5.657-.326-7.642-2.496-3.174-7.716-1.7-8.485 2.396-.803 4.282 1.002 6.645 5.08 6.645 2.129 0 2.972-.316 3.73-1.4zm-208.636-.152c3.24-1.675 3.513-5.238.608-7.952-2.461-2.3-5.079-2.401-7.2-.28-2.586 2.586-1.966 6.647 1.288 8.427 1.728.945 3.206.89 5.304-.195zm49.765-39.262c1.01-1.009 1.991-2.847 2.245-4.202.399-2.124.251-2.582-1.247-3.87-1.211-1.043-2.48-1.462-4.42-1.462-3.455 0-4.447 1.156-4.447 5.185 0 2.622.275 3.341 1.766 4.624 2.313 1.989 3.911 1.917 6.103-.275zm109.538 1.146c1.601-.857 3.112-3.866 3.112-6.198 0-3.68-4.781-5.623-8.766-3.562-3.323 1.718-3.5 5.19-.423 8.268 2.198 2.197 3.953 2.628 6.077 1.492zm-54.37-6.314c2.256-.858 2.708-1.618 2.72-4.572.013-3.266-2.715-6.088-5.885-6.088-5.242 0-6.431 8.692-1.464 10.693 1.87.753 2.575.748 4.63-.033zM18.408 354.48l-3.933-.223.055-19.637c.054-19.524.504-30.16 1.31-30.967.784-.784 26.46.818 29.787 1.858 7.82 2.443 12.254 8.289 12.266 16.166.008 5.752-2.22 10.02-6.95 13.315-1.885 1.313-3.513 2.769-3.618 3.234-.16.715 2.148 3.973 10.836 15.292l1.206 1.571-5.13-.233c-6.12-.278-6.192-.334-12.976-10.054L36.7 338.27l-6.078-.18-6.078-.18v7.523c0 7.84-.277 9.596-1.483 9.393-.396-.067-2.49-.222-4.653-.345zm25.938-25.601c2.524-1.055 4.737-4.265 4.74-6.878.003-2.67-1.715-5.794-4.253-7.73-2.126-1.621-2.74-1.74-10.8-2.089-5.505-.238-8.71-.141-9.007.272-.254.353-.467 4.58-.472 9.393l-.01 8.751 8.802-.4c5.42-.247 9.646-.754 11-1.32zM96.603 352.84c-6.41-2.12-11.022-5.759-15.051-11.877-6.109-9.275-5.13-20.86 2.475-29.32 5.203-5.787 13.171-8.727 22.105-8.156 6.125.391 10.985 2.193 15.921 5.904 7.21 5.42 9.479 10.276 9.479 20.297 0 4.865-.258 6.517-1.382 8.854-2.187 4.55-7.86 9.78-13.528 12.473-4.521 2.148-5.419 2.348-11.208 2.496-3.954.1-7.23-.149-8.81-.672zm15.463-9.03c8.887-3.954 13.103-15.316 8.554-23.054-4.608-7.84-16.514-10.784-25.48-6.3-5.178 2.59-7.258 5.824-7.55 11.738-.38 7.704 3.325 14.52 9.818 18.06 3.063 1.67 10.409 1.448 14.658-.443zM168.969 352.59c-7.628-2.722-12.887-7.422-16.251-14.523-1.843-3.889-1.992-4.698-1.992-10.812 0-5.946.175-6.963 1.744-10.158 5.866-11.944 23.53-17.254 36.659-11.019 8.375 3.977 12.819 9.318 14.513 17.443 1.247 5.984.69 10.265-2.052 15.745-2.643 5.283-6.412 8.768-12.781 11.818-4.225 2.023-5.333 2.276-10.7 2.445-4.53.142-6.752-.086-9.14-.938zm15.54-9.16c3.869-1.893 7.56-5.186 9.056-8.078.684-1.322.99-3.654.99-7.533 0-4.7-.227-5.987-1.392-7.871-5.469-8.85-21.337-10.368-28.738-2.75-3.028 3.116-4.174 6.685-3.805 11.849.525 7.333 4.706 13.083 11.388 15.658 3.138 1.21 8.55.658 12.5-1.275zM236.63 333.549V312.15H219.64v-8.81h43.424v8.81h-18.186l-.19 20.358c-.15 16.115-.37 20.575-1.053 21.398-.587.706-1.848 1.04-3.933 1.04h-3.07zM282.807 334.114c.228-11.214.585-22.726.793-25.581l.38-5.192H292.641v11.328c0 8.243.202 11.328.739 11.328.718 0 1.922-1.181 15.51-15.215l6.492-6.706 5.24-.436c9.138-.762 9.106-.63-2.653 11.055-5.626 5.59-10.401 10.849-10.61 11.684-.275 1.092.115 2.17 1.387 3.837 1.572 2.062 16.043 19.037 19.338 22.685l1.279 1.416h-11.368l-8.429-9.832c-4.635-5.407-8.783-10.277-9.218-10.823-.697-.875-1.092-.699-3.356 1.493-3.596 3.482-4.128 4.832-4.543 11.544-.202 3.251-.64 6.185-.973 6.518-.333.333-2.513.76-4.845.947l-4.238.34zM352.191 344.72c-.825-21.387-1.105-39.993-.606-40.285.291-.17 2.44-.51 4.777-.752l4.248-.443v21.67c0 11.919-.182 23.411-.404 25.539l-.404 3.868h-7.24zM402.227 354.48l-3.38-.234.464-21.047.464-21.048h-18.396v-8.81h11.541c6.348 0 16.685.186 22.971.414l11.43.414v9.232l-9.338-.404-9.337-.404-.418 13.411c-.23 7.377-.417 16.021-.417 19.21 0 6.671-.484 9.782-1.495 9.616-.39-.064-2.23-.222-4.089-.35zM20.139 399.41v-3.365l43.267-.35c23.797-.192 43.385-.235 43.53-.095.144.14.392 1.812.55 3.715l.287 3.461H20.139ZM139.71 404.192c-.003-5.452-.187-12.248-.409-15.104l-.404-5.192h7.109v23.785l7.77.222c8.739.25 9.852.71 9.852 4.075v2.126h-23.915zM206.487 411.597l-1.358-3.157h-16.804l-.793 1.913c-.436 1.052-1.383 2.327-2.104 2.832-1.373.962-5.154 1.26-5.652.447-.313-.513 4.443-11.598 9.564-22.29 2.895-6.042 3.436-6.785 5.42-7.44 4.293-1.416 4.503-1.159 14.79 18.146 3.2 6.004 5.575 11.137 5.278 11.408-.296.27-1.988.673-3.76.895l-3.222.404zm-5.285-9.872c.593-1.548-3.482-9.13-4.776-8.885-.637.122-1.654 2.012-2.723 5.065l-1.707 4.871h4.401c3.531 0 4.48-.208 4.805-1.051zM233.061 413.734c-.453-1.182.368-28.61.882-29.441.591-.957 13.35.157 16.192 1.414 2.513 1.112 6.565 5.067 6.71 6.55.166 1.706-.258 2.734-1.8 4.363l-1.62 1.71 2.617 2.839c2.938 3.187 3.189 4.622 1.333 7.624-1.735 2.809-5.53 4.49-11.917 5.28-7.92.98-11.933.87-12.397-.34zm17.783-6.863c1.313-1.314 1.454-1.784.865-2.885-.992-1.854-4.376-3.098-8.428-3.098-3.923 0-4.881.912-4.304 4.097.555 3.066 1.224 3.455 5.94 3.455 3.806 0 4.557-.199 5.927-1.57zm-2.256-11.578c2.183-.604 2.407-2.847.416-4.152-.853-.558-3.56-1.23-6.018-1.493l-4.467-.477v2.985c0 2.773.123 3.003 1.73 3.246 2.74.416 6.626.364 8.34-.11zM284.46 413.758c-3.11-.864-8.18-3.587-8.18-4.392 0-.662 4.152-2.81 5.437-2.812.741 0 2.582.558 4.09 1.243 3.544 1.608 6.252 1.597 8.323-.032 3.191-2.51 1.883-4.181-5.097-6.51-6.662-2.222-8.69-3.567-9.618-6.378-2.367-7.172 5.644-13.407 14.958-11.64 5.744 1.089 7.938 3.636 5.475 6.357-.783.865-1.434.971-3.304.537-2.717-.631-8.392-.74-9.83-.19-.578.223-.995 1.118-.995 2.14 0 1.647.328 1.863 5.192 3.43 11.224 3.614 14.752 7.98 11.013 13.623-2.907 4.387-10.797 6.476-17.463 4.624zM340.944 402.307l-5.507-.21v-6.04l42.346-.385c23.29-.212 42.792-.556 43.335-.764.842-.323.948.117.716 2.958-.15 1.835-.384 3.69-.52 4.123-.195.62-8.17.76-37.556.658-20.52-.072-39.786-.224-42.814-.34z"/></svg>