<svg xmlns="http://www.w3.org/2000/svg" width="300" height="300" viewBox="0 0 79.375 79.375"><path d="M-.071.025L79.206.09l-.098 79.31-79.277-.065z"/><g stroke="#fff"><g fill="none" stroke-width="4.913"><path d="M57.049 59.31l-4.35.81a.376.376 0 00-.257.221l-1.333 3.11a.36.36 0 00.02.337l2.535 3.693a.246.246 0 01-.028.301l-3.165 3.165a.245.245 0 01-.3.028l-3.759-2.58a.371.371 0 00-.338-.023l-3.015 1.234a.368.368 0 00-.222.254L42 74.36a.246.246 0 01-.232.192H37.29a.246.246 0 01-.232-.193l-.837-4.499a.368.368 0 00-.222-.254l-3.016-1.234a.371.371 0 00-.338.024l-3.758 2.579a.246.246 0 01-.3-.028l-3.166-3.165a.246.246 0 01-.028-.3l2.535-3.694c.06-.09.07-.24.02-.336l-1.333-3.11a.374.374 0 00-.257-.222l-4.35-.81a.246.246 0 01-.192-.231v-4.477c0-.108.087-.213.193-.232l4.242-.79a.36.36 0 00.252-.223l1.325-3.308a.371.371 0 00-.025-.338l-2.41-3.512a.247.247 0 01.028-.3l3.165-3.166a.247.247 0 01.3-.028l3.45 2.368c.09.06.277.129.331.011l3.148-6.305m3.713-7.465l2.094-4.16h0c1.374-.88 2.856-2.781 2.856-4.533a4.95 4.95 0 10-9.9 0c0 1.752 1.481 3.654 2.855 4.533h0l2.095 4.16m0 0l6.81 13.717c.078.13.242.05.331-.012l3.45-2.368a.247.247 0 01.3.028l3.216 3.219a.246.246 0 01.028.3l-2.41 3.512a.373.373 0 00-.025.338l1.325 3.309a.359.359 0 00.251.223l4.243.79c.106.019.193.124.193.232v4.476a.246.246 0 01-.192.233M45.215 34.815c-.54 1.2-1.37 2.686-1.912 3.886z" stroke-width="1.29988154"/><path d="M44.926 35.101l1.464-.75a.338.338 0 01.33.012l3.45 2.367c.09.061.225.049.3-.027l3.166-3.166a.246.246 0 00.028-.3l-2.41-3.512a.373.373 0 01-.025-.338l1.325-3.309a.359.359 0 01.251-.223l4.243-.79a.246.246 0 00.193-.232v-4.476c0-.108-.086-.212-.232-.242l-4.31-.8a.376.376 0 01-.257-.22l-1.333-3.111a.36.36 0 01.02-.337l2.535-3.693a.246.246 0 00-.028-.3l-3.165-3.166a.245.245 0 00-.3-.028l-3.759 2.58a.371.371 0 01-.338.024L43.06 9.829a.368.368 0 01-.222-.254L42 5.076a.246.246 0 00-.232-.193H37.29a.246.246 0 00-.232.193l-.837 4.499a.368.368 0 01-.222.254l-3.016 1.235a.371.371 0 01-.338-.025L28.888 8.46a.246.246 0 00-.3.028l-3.166 3.165a.246.246 0 00-.028.3l2.535 3.694c.06.09.07.24.02.337l-1.333 3.11a.374.374 0 01-.257.222l-4.35.808a.246.246 0 00-.192.233v4.476c0 .108.087.213.193.232l4.242.79c.107.02.22.12.252.223l1.325 3.309a.371.371 0 01-.025.338l-2.41 3.511a.247.247 0 00.028.301l3.165 3.165a.247.247 0 00.3.028l3.45-2.368a.339.339 0 01.331-.011l1.522.812h0l7.764 17.297c.07.043.166.117.24.184a4.95 4.95 0 01-2.666 9.12c-2.733.001-4.892-2.278-4.892-5.012 0-1.752.911-3.29 2.285-4.17.075-.068.17-.142.24-.184l2.385-5.347" stroke-width="1.29988154"/></g><text style="line-height:1.25;-inkscape-font-specification:'Estrangelo Talada'" x="63.201" y="159.017" font-weight="400" font-size="76.2" font-family="Estrangelo Talada" letter-spacing="0" word-spacing=".265" fill="#fff" stroke-width=".265" transform="translate(-24.28 -103.73)"/></g></svg>