<svg width="300" height="300" viewBox="0 0 79.375 79.375" xmlns="http://www.w3.org/2000/svg"><path style="fill:#000;stroke-width:1.48652" d="M139.39 283.563c-1.12-.822-1.547-2.25-3.01-10.043-.872-4.64-1.651-8.49-1.733-8.556-.081-.065-2.46-1.07-5.284-2.232l-5.137-2.114-7.09 4.858c-3.9 2.672-7.458 4.937-7.906 5.035-1.434.313-2.72-.701-9.272-7.316-4.862-4.908-6.42-6.73-6.42-7.504 0-.637 1.737-3.547 4.606-7.715 2.533-3.68 4.75-6.93 4.927-7.221.195-.321-.595-2.672-2.005-5.969l-2.326-5.439-2.295-.433c-1.263-.238-4.926-.923-8.141-1.522-4.463-.831-6.103-1.31-6.93-2.02l-1.082-.932V205.142l1.048-.9c.818-.704 2.658-1.195 8.356-2.23 4.018-.731 7.612-1.418 7.984-1.525.427-.124 1.532-2.33 2.982-5.956l2.304-5.758-4.767-7.026c-4.187-6.169-4.733-7.167-4.479-8.184.35-1.405 12.619-13.92 13.981-14.263 1.558-.392 2.557.108 8.66 4.33l5.907 4.088 5.177-10.292c2.847-5.66 5.186-10.534 5.198-10.83.013-.297-1.124-3.115-2.525-6.264-2.481-5.576-2.6-5.755-4.585-6.895-1.121-.645-2.232-1.173-2.468-1.175-.237-.002-3.228 1.928-6.648 4.29-3.419 2.362-6.77 4.406-7.447 4.54-1.156.232-1.658-.18-8.33-6.854-4.927-4.926-7.102-7.378-7.102-8.004 0-.497 2.11-4.015 4.688-7.817l4.687-6.912-2.327-5.859-2.326-5.858-8.157-1.494c-6.322-1.158-8.343-1.68-8.984-2.32-.773-.773-.835-1.416-.95-9.904-.076-5.637.039-9.503.303-10.199.589-1.547 1.914-1.996 10.417-3.522 4.035-.724 7.537-1.526 7.783-1.781.945-.983 4.744-10.615 4.391-11.133-7.556-11.08-9.525-14.16-9.525-14.901 0-.62 2.204-3.101 7.101-7.999 6.553-6.552 7.192-7.082 8.277-6.865.647.13 4.268 2.356 8.046 4.948 3.78 2.592 7.07 4.717 7.313 4.722.244.006 2.622-.865 5.286-1.934 3.276-1.315 4.955-2.208 5.187-2.76.19-.45.984-4.28 1.766-8.51.783-4.232 1.703-8.12 2.045-8.642.869-1.327 2.095-1.462 11.927-1.318 8.09.119 8.705.181 9.486.963.653.654 1.18 2.692 2.409 9.307.864 4.658 1.731 8.613 1.926 8.788.507.458 9.523 4.097 10.15 4.097.29 0 3.431-1.992 6.98-4.426 7.791-5.343 8.075-5.498 9.447-5.154 1.233.308 12.83 11.577 13.784 13.394.345.657.504 1.592.366 2.145-.136.54-2.352 4.036-4.924 7.77-2.573 3.733-4.668 6.894-4.655 7.024.013.13 1.068 2.617 2.344 5.526l2.322 5.289 8.348 1.543c6.449 1.192 8.535 1.73 9.17 2.365.777.777.82 1.34.82 10.58 0 9.261-.041 9.801-.826 10.586-.64.639-2.68 1.17-8.993 2.342l-8.165 1.516-2.32 5.84-2.32 5.842 4.486 6.532c2.467 3.593 4.593 6.96 4.724 7.482.375 1.496-.362 2.481-6.498 8.695-5.557 5.625-7.247 7.002-8.597 7.002-.346 0-3.665-2.05-7.374-4.555l-6.744-4.556-1.805.877c-1.73.84-1.933 1.141-4.92 7.302l-3.114 6.426 5.04 10.125c2.771 5.569 5.161 10.203 5.311 10.299.15.096 2.986-1.698 6.303-3.987 4.715-3.253 6.328-4.16 7.4-4.16 1.23 0 2.07.705 8.268 6.932 5.38 5.406 6.899 7.166 6.899 7.992 0 .656-1.256 2.898-3.298 5.886a2790.91 2790.91 0 0 0-4.687 6.879l-1.39 2.052 2.281 5.692c1.255 3.13 2.342 5.754 2.416 5.83.074.078 3.756.83 8.183 1.672 10.77 2.05 9.944.994 9.944 12.707 0 9.086-.152 10.162-1.595 11.23-.517.384-.702.343-.923-.203-.252-.621-.28-.623-.306-.014-.034.787.106.749-8.791 2.403-3.811.709-6.954 1.316-6.985 1.35-.03.034-1.09 2.495-2.357 5.469l-2.301 5.408 4.904 7.198c3.055 4.484 4.905 7.584 4.905 8.222 0 .78-1.64 2.671-6.881 7.938-6.034 6.062-7.036 6.91-8.138 6.878-.906-.025-3.257-1.41-8.419-4.96l-7.162-4.925-5.18 2.111c-2.85 1.161-5.233 2.148-5.296 2.193-.063.045-.76 3.545-1.547 7.779-1.675 8.999-2.017 10.214-3.032 10.757-.872.467-19.543.552-20.169.092zm17.473-4.884c.113-.393.79-3.923 1.504-7.846s1.544-7.614 1.844-8.203c.42-.822 1.697-1.555 5.532-3.17 6.996-2.947 8.59-3.467 9.739-3.178.554.139 3.847 2.211 7.32 4.606 3.472 2.394 6.587 4.426 6.924 4.515.367.098 2.624-1.859 5.656-4.903l5.044-5.067-4.739-6.87c-3.297-4.778-4.739-7.217-4.739-8.015 0-1.03 3.411-9.588 5.333-13.382.935-1.846 1.242-1.952 10.47-3.629l7.447-1.352-.11-7.36-.112-7.361-7.864-1.461c-5.888-1.094-8.058-1.659-8.63-2.246-.967-.991-6.126-13.849-6.126-15.266 0-.674 1.638-3.455 4.537-7.7l4.537-6.646-5.279-5.279-5.279-5.278-6.284 4.323c-3.456 2.377-6.713 4.43-7.236 4.561-2.31.58-2.099.95-19.79-34.593-16.779-33.713-16.91-33.958-18.94-35.482-2.577-1.935-5.468-5.736-7.339-9.65-5.132-10.733 1.797-24.34 14.015-27.522 8.304-2.163 17.655 1.425 22.419 8.601 4.42 6.66 4.614 15.08.495 21.586-1.741 2.75-4.966 6.421-6.592 7.504-1.277.85-2.12 2.197-5.164 8.25l-3.638 7.233 5.709 11.413c3.14 6.277 5.799 11.412 5.909 11.412.11 0 1.393-2.382 2.852-5.294l2.653-5.294 3.312-1.666c2.332-1.172 3.606-1.592 4.301-1.417.544.137 3.593 2.044 6.775 4.24 3.182 2.194 5.981 4.104 6.22 4.243.24.14 2.766-2.081 5.614-4.935l5.177-5.19-4.484-6.506c-3.008-4.365-4.487-6.876-4.492-7.626-.011-1.604 5.161-14.31 6.23-15.303.648-.603 2.465-1.125 6.6-1.897 3.139-.586 6.67-1.256 7.846-1.49l2.14-.424V78.108l-2.14-.422c-1.176-.232-4.77-.91-7.985-1.508-4.316-.801-6.1-1.312-6.817-1.95-1.147-1.022-6.29-12.862-6.29-14.48 0-.748 1.537-3.369 4.693-8.003l4.692-6.89-5.174-5.186c-2.846-2.852-5.37-5.067-5.61-4.922-.239.145-3.446 2.336-7.127 4.87-3.68 2.532-7.041 4.605-7.469 4.605-1.536 0-13.127-4.96-14.181-6.07-.872-.916-1.215-2.082-2.17-7.393-.625-3.467-1.32-7.176-1.546-8.24l-.411-1.937h-7.303c-4.016 0-7.302.068-7.302.151 0 .83-2.955 15.796-3.272 16.571-.56 1.371-.972 1.598-8.16 4.494-4.317 1.738-6.484 2.414-7.18 2.24-.548-.138-3.6-2.05-6.782-4.247-3.182-2.199-6.251-4.297-6.82-4.664l-1.035-.668-5.193 5.205-5.192 5.204 1.557 2.224c6.069 8.664 7.84 11.53 7.84 12.682 0 1.763-5.188 13.647-6.36 14.57-.627.493-3.33 1.2-7.795 2.037-3.759.706-7.34 1.385-7.956 1.509l-1.12.225v14.55l2.14.425c1.176.233 4.707.903 7.845 1.489 4.136.772 5.953 1.294 6.602 1.897 1.067.992 6.237 13.69 6.237 15.322 0 .783-1.398 3.165-4.482 7.637l-4.48 6.498 5.166 5.178c2.842 2.849 5.363 5.063 5.602 4.922.24-.141 3.232-2.149 6.65-4.461 3.417-2.313 6.521-4.205 6.897-4.205.874 0 7.055 3.133 7.927 4.018.363.368 6.944 14.7 14.624 31.848 7.68 17.15 14.26 31.75 14.624 32.448.363.697 1.66 2.076 2.881 3.064 4.684 3.79 7.357 9.522 7.357 15.777 0 5.77-1.927 10.745-5.625 14.52-8.42 8.6-21.275 8.811-29.572.487-4.601-4.617-6.995-11.463-6.102-17.455.868-5.831 3.659-10.815 7.842-14.005 1.91-1.457 2.166-1.91 6.13-10.845l4.138-9.325-5.829-13.027-5.83-13.027-4.952 9.89c-2.724 5.44-5.233 10.124-5.576 10.408-1.492 1.239-2.855.688-9.424-3.809l-6.42-4.394-5.232 5.22-5.232 5.221 2.971 4.31c1.634 2.37 3.64 5.293 4.459 6.495.88 1.292 1.488 2.676 1.488 3.385 0 1.522-5.08 14.139-6.114 15.184-.575.582-2.792 1.162-8.64 2.258l-7.867 1.474-.11 7.34-.111 7.34 7.608 1.386c4.184.762 8.163 1.67 8.84 2.018 1.046.537 1.654 1.617 4.017 7.137 1.531 3.578 2.784 7.077 2.784 7.777 0 .957-1.17 2.97-4.723 8.126l-4.723 6.854 5.023 5.035c2.762 2.769 5.224 5.034 5.47 5.034.247 0 1.442-.695 2.656-1.546 8.274-5.795 11.533-7.828 12.552-7.828 1.02 0 9.951 3.472 13.038 5.068 1.628.842 1.787 1.263 3.093 8.231.582 3.11 1.25 6.616 1.484 7.793l.424 2.14h7.28c6.584 0 7.3-.068 7.486-.713zm-4.588-47.79c5.223-.975 9.87-4.562 12.142-9.373.94-1.99 1.058-2.745 1.058-6.725 0-4.01-.115-4.728-1.092-6.813-1.175-2.507-4.132-5.942-6.232-7.24-1.09-.674-1.877-2.101-4.931-8.946-2-4.48-3.756-8.015-3.905-7.857-.149.159-1.768 3.682-3.598 7.829-2.297 5.203-3.66 7.792-4.402 8.355-4.608 3.495-7.02 7.067-7.863 11.647-1.552 8.421 4.465 17.476 12.682 19.087 2.543.499 3.626.505 6.141.036zm.338-123.853c2.135-4.301 3.33-6.254 4.11-6.714 1.872-1.106 5.829-5.657 7.326-8.425 1.359-2.514 1.426-2.83 1.426-6.714 0-3.755-.102-4.284-1.298-6.725-2.17-4.427-5.406-7.219-9.974-8.606-7.77-2.36-15.994 1.22-19.594 8.532-1.222 2.481-1.332 3.025-1.332 6.592 0 3.584.106 4.104 1.363 6.659 1.382 2.81 5.363 7.49 7.389 8.687.78.46 1.975 2.413 4.11 6.714 1.656 3.336 3.113 6.066 3.237 6.066.124 0 1.58-2.73 3.237-6.066z" transform="scale(.26458)"/></svg>