<svg width="300" height="300" viewBox="0 0 79.375 79.375" xmlns="http://www.w3.org/2000/svg"><path d="M36.88 75.026c-.296-.218-.41-.595-.796-2.657-.23-1.228-.437-2.247-.459-2.264-.021-.017-.65-.283-1.398-.59l-1.359-.56-1.876 1.285c-1.032.707-1.973 1.307-2.092 1.333-.38.083-.72-.186-2.453-1.936-1.286-1.299-1.698-1.78-1.698-1.985 0-.17.46-.939 1.218-2.042.67-.974 1.257-1.833 1.304-1.91.051-.085-.158-.707-.53-1.58l-.616-1.439-.607-.114-2.154-.403c-1.181-.22-1.615-.346-1.834-.534l-.286-.247v-5.106l.277-.238c.217-.186.703-.316 2.211-.59a71.307 71.307 0 002.113-.404c.112-.032.405-.616.788-1.575l.61-1.524-1.261-1.859c-1.108-1.632-1.252-1.896-1.185-2.165.093-.372 3.339-3.683 3.699-3.774.412-.104.677.029 2.291 1.146l1.563 1.081 1.37-2.723c.753-1.497 1.372-2.787 1.375-2.865.003-.079-.297-.824-.668-1.657-.656-1.476-.688-1.523-1.213-1.825-.297-.17-.59-.31-.653-.31-.063-.001-.854.51-1.759 1.134-.905.625-1.791 1.166-1.97 1.202-.306.061-.439-.048-2.205-1.814-1.303-1.303-1.878-1.952-1.878-2.118 0-.131.558-1.062 1.24-2.068l1.24-1.829-.616-1.55-.615-1.55-2.158-.395c-1.673-.307-2.208-.445-2.377-.614-.205-.204-.221-.375-.252-2.62-.02-1.492.01-2.515.08-2.699.156-.41.507-.528 2.757-.932 1.067-.191 1.994-.403 2.059-.471.25-.26 1.255-2.808 1.162-2.945-2-2.932-2.52-3.747-2.52-3.943 0-.164.583-.82 1.878-2.116 1.734-1.734 1.903-1.874 2.19-1.817.172.034 1.13.623 2.13 1.31 1 .685 1.87 1.247 1.934 1.249.065.001.694-.23 1.399-.512.867-.348 1.31-.584 1.372-.73.05-.12.26-1.132.467-2.252.207-1.12.45-2.148.541-2.286.23-.351.555-.387 3.156-.35 2.14.032 2.303.049 2.51.256.173.173.312.712.637 2.462.229 1.233.458 2.279.51 2.325.134.122 2.52 1.084 2.686 1.084.076 0 .907-.527 1.846-1.17 2.062-1.414 2.137-1.455 2.5-1.365.326.082 3.394 3.064 3.647 3.544.091.174.133.422.096.568-.035.143-.622 1.068-1.302 2.056-.681.987-1.235 1.824-1.232 1.858.004.035.283.693.62 1.462l.615 1.4 2.208.408c1.707.315 2.259.458 2.427.626.205.205.217.354.217 2.799 0 2.45-.011 2.593-.219 2.8-.17.17-.709.31-2.38.62l-2.16.402-.613 1.545-.614 1.545 1.187 1.729c.652.95 1.215 1.841 1.25 1.98.099.395-.096.656-1.72 2.3-1.47 1.488-1.917 1.853-2.274 1.853-.092 0-.97-.543-1.951-1.206l-1.785-1.205-.477.232c-.458.222-.512.302-1.302 1.932l-.824 1.7 1.333 2.68c.734 1.472 1.366 2.699 1.406 2.724.04.025.79-.45 1.667-1.055 1.248-.86 1.675-1.1 1.958-1.1.326 0 .548.186 2.188 1.833 1.423 1.43 1.825 1.896 1.825 2.115 0 .174-.332.767-.872 1.557l-1.24 1.82-.368.543.603 1.506c.332.828.62 1.523.64 1.543.02.02.993.22 2.165.442 2.85.543 2.63.263 2.63 3.362 0 2.404-.04 2.69-.421 2.972-.137.101-.186.09-.245-.054-.066-.164-.074-.165-.08-.004-.01.208.027.198-2.327.636-1.008.188-1.84.348-1.848.357-.008.01-.288.66-.623 1.447l-.61 1.431 1.298 1.905c.809 1.186 1.298 2.006 1.298 2.175 0 .206-.434.707-1.82 2.1-1.597 1.604-1.862 1.828-2.154 1.82-.24-.007-.861-.373-2.227-1.312L46.2 68.959l-1.37.558a70.8 70.8 0 00-1.402.58c-.017.012-.2.938-.41 2.058-.442 2.381-.533 2.703-.801 2.847-.231.123-5.171.146-5.337.024zm4.623-1.292c.03-.104.21-1.038.398-2.076.19-1.038.409-2.015.488-2.17.111-.218.45-.412 1.464-.84 1.851-.779 2.272-.916 2.577-.84.146.037 1.018.585 1.936 1.219.919.633 1.743 1.17 1.832 1.194.097.026.695-.492 1.497-1.297l1.334-1.34-1.253-1.818c-.873-1.265-1.254-1.91-1.254-2.121 0-.272.902-2.537 1.41-3.54.248-.49.33-.517 2.771-.96l1.97-.359-.03-1.947-.028-1.948-2.081-.386c-1.558-.29-2.132-.439-2.284-.594-.255-.263-1.62-3.664-1.62-4.04 0-.178.433-.913 1.2-2.037l1.2-1.758-1.396-1.397-1.397-1.396-1.663 1.143c-.914.63-1.776 1.173-1.914 1.207-.611.154-.556.251-5.236-9.153-4.44-8.92-4.474-8.984-5.011-9.388-.682-.511-1.447-1.517-1.942-2.553-1.358-2.84.475-6.44 3.708-7.282 2.197-.572 4.671.377 5.931 2.276 1.17 1.762 1.221 3.99.132 5.711-.461.728-1.314 1.7-1.745 1.986-.337.225-.56.581-1.366 2.182l-.963 1.914 1.511 3.02c.83 1.66 1.534 3.02 1.563 3.02.03 0 .369-.63.755-1.401l.702-1.401.876-.44c.617-.31.954-.422 1.138-.376.144.037.95.541 1.793 1.122.842.58 1.582 1.086 1.646 1.123.063.037.731-.55 1.485-1.306l1.37-1.373-1.187-1.722c-.796-1.154-1.187-1.819-1.188-2.017-.003-.425 1.365-3.787 1.648-4.05.172-.159.652-.297 1.746-.501.83-.155 1.765-.332 2.076-.394l.566-.112v-3.852l-.566-.112c-.311-.061-1.262-.24-2.113-.399-1.141-.211-1.613-.347-1.803-.515-.303-.271-1.664-3.404-1.664-3.832 0-.198.406-.891 1.241-2.117l1.242-1.823-1.37-1.372c-.752-.755-1.42-1.34-1.483-1.303-.064.039-.912.619-1.886 1.289-.974.67-1.863 1.218-1.976 1.218-.407 0-3.474-1.312-3.753-1.605-.23-.243-.32-.552-.574-1.957-.165-.917-.349-1.898-.409-2.18l-.108-.512h-1.933c-1.062 0-1.932.018-1.932.04 0 .22-.781 4.179-.865 4.384-.148.363-.258.423-2.16 1.189-1.141.46-1.715.639-1.899.593-.145-.037-.953-.542-1.794-1.124a151.227 151.227 0 00-1.805-1.234l-.274-.177-1.374 1.377-1.374 1.377.413.589c1.605 2.292 2.074 3.05 2.074 3.355 0 .467-1.373 3.611-1.683 3.855-.166.13-.88.317-2.062.54a374.8 374.8 0 00-2.105.398l-.297.06v3.85l.566.112c.312.062 1.246.24 2.076.394 1.094.204 1.575.342 1.747.502.282.262 1.65 3.622 1.65 4.054 0 .207-.37.837-1.186 2.02l-1.185 1.72 1.367 1.37c.752.753 1.419 1.34 1.482 1.302.063-.037.855-.568 1.76-1.18.904-.612 1.725-1.113 1.824-1.113.231 0 1.867.83 2.098 1.063.096.098 1.837 3.89 3.869 8.427 2.032 4.537 3.773 8.4 3.87 8.585.095.184.438.55.761.81 1.24 1.003 1.947 2.52 1.947 4.175 0 1.527-.51 2.843-1.488 3.842-2.228 2.275-5.63 2.331-7.825.128-1.217-1.221-1.85-3.032-1.614-4.618.23-1.543.968-2.861 2.075-3.705.505-.386.573-.505 1.622-2.87l1.095-2.467-1.543-3.447-1.542-3.446-1.31 2.617c-.721 1.439-1.385 2.678-1.476 2.753-.394.328-.755.182-2.493-1.008l-1.699-1.162-1.384 1.381-1.384 1.381.786 1.14c.432.628.963 1.401 1.18 1.72.232.341.393.707.393.895 0 .402-1.344 3.74-1.617 4.017-.153.154-.74.308-2.287.598l-2.08.39-.03 1.942-.03 1.942 2.014.366c1.107.202 2.16.442 2.339.534.276.142.437.428 1.062 1.889.405.946.737 1.872.737 2.057 0 .254-.31.786-1.25 2.15l-1.25 1.814 1.33 1.332c.73.733 1.382 1.332 1.447 1.332.065 0 .381-.184.703-.41 2.189-1.532 3.051-2.07 3.32-2.07.27 0 2.634.918 3.45 1.34.431.223.473.335.819 2.178.154.823.33 1.75.392 2.062l.113.566h1.926c1.742 0 1.931-.018 1.98-.188zM40.29 61.089a4.527 4.527 0 003.213-2.48c.248-.526.28-.726.28-1.779 0-1.061-.03-1.25-.29-1.803-.31-.663-1.092-1.572-1.648-1.915-.288-.178-.496-.556-1.305-2.367-.528-1.185-.993-2.12-1.033-2.079-.04.042-.468.974-.952 2.071-.607 1.377-.968 2.062-1.164 2.211-1.22.925-1.858 1.87-2.08 3.082-.411 2.228 1.18 4.624 3.355 5.05.672.132.96.133 1.624.01zm.09-32.769c.565-1.138.881-1.655 1.087-1.777.496-.292 1.542-1.496 1.939-2.229.36-.665.377-.748.377-1.776 0-.994-.027-1.133-.344-1.78-.574-1.17-1.43-1.91-2.639-2.276a4.347 4.347 0 00-5.184 2.257c-.323.657-.352.8-.352 1.744 0 .949.028 1.086.36 1.762.366.744 1.42 1.982 1.955 2.298.207.122.523.639 1.088 1.777.438.883.824 1.605.856 1.605.033 0 .419-.722.857-1.605z"/></svg>